{"glyphs":{"0":{"ha":969,"x_min":75,"x_max":894,"o":"m 485 -19 q 266 46 358 -19 q 124 228 174 111 q 75 494 75 344 q 127 756 75 643 q 272 930 179 868 q 485 992 365 992 q 700 930 607 992 q 844 756 793 868 q 894 494 894 643 q 846 228 894 344 q 704 46 797 111 q 485 -19 611 -19 m 485 100 q 684 203 614 100 q 754 494 754 306 q 683 776 754 681 q 485 872 611 872 q 290 775 364 872 q 215 494 215 678 q 285 203 215 306 q 485 100 356 100 z "},"1":{"ha":453,"x_min":47,"x_max":342,"o":"m 214 782 q 135 726 168 744 q 69 697 103 708 l 47 821 q 163 883 106 840 q 251 972 221 925 l 342 972 l 342 0 l 214 0 l 214 782 z "},"2":{"ha":728,"x_min":79,"x_max":654,"o":"m 344 404 q 450 583 417 513 q 483 713 483 654 q 442 827 483 785 q 332 869 401 869 q 96 760 203 869 l 79 899 q 200 967 132 940 q 346 993 268 993 q 546 918 475 993 q 617 726 617 843 q 581 553 617 635 q 461 343 546 471 l 314 121 l 654 121 l 654 1 l 79 1 l 344 404 z "},"3":{"ha":751,"x_min":56,"x_max":668,"o":"m 489 508 q 668 267 668 450 q 624 115 668 179 q 505 15 581 50 q 333 -19 429 -19 q 56 54 190 -19 l 88 176 q 210 119 153 139 q 335 100 268 100 q 476 144 424 100 q 528 263 528 189 q 470 393 528 346 q 299 440 413 440 l 238 440 l 238 560 l 299 560 q 441 602 389 560 q 493 718 493 644 q 453 834 493 796 q 338 872 414 872 q 232 851 282 872 q 126 793 182 831 l 104 928 q 356 992 217 992 q 563 921 489 992 q 638 735 638 850 q 599 597 638 656 q 489 508 560 538 z "},"4":{"ha":803,"x_min":28,"x_max":765,"o":"m 765 364 l 765 251 l 640 251 l 640 0 l 507 0 l 507 251 l 28 251 l 544 972 l 640 972 l 640 364 l 765 364 m 507 364 l 507 726 l 249 364 l 507 364 z "},"5":{"ha":751,"x_min":71,"x_max":688,"o":"m 361 614 q 536 574 463 614 q 649 463 610 533 q 688 301 688 392 q 642 132 688 204 q 519 20 597 60 q 342 -19 440 -19 q 195 0 267 -19 q 71 54 124 19 l 103 176 q 217 126 163 143 q 335 108 271 108 q 485 161 428 108 q 543 301 543 214 q 482 452 543 399 q 318 506 421 506 q 122 478 231 506 l 182 972 l 640 972 l 635 847 l 290 847 l 261 607 q 361 614 314 614 z "},"6":{"ha":789,"x_min":86,"x_max":729,"o":"m 440 583 q 590 545 524 583 q 692 440 656 507 q 729 289 729 372 q 689 130 729 200 q 576 20 649 60 q 410 -19 504 -19 q 172 79 258 -19 q 86 342 86 178 q 149 615 86 486 q 309 839 211 743 q 517 992 407 935 l 607 907 q 385 745 482 844 q 247 525 289 646 q 440 583 325 583 m 410 94 q 542 149 492 94 q 593 285 593 203 q 542 417 593 364 q 410 469 492 469 q 276 417 328 469 q 225 283 225 364 q 276 147 225 200 q 410 94 326 94 z "},"7":{"ha":699,"x_min":56,"x_max":685,"o":"m 685 972 l 264 0 l 125 0 l 490 847 l 56 847 l 56 972 l 685 972 z "},"8":{"ha":842,"x_min":83,"x_max":758,"o":"m 613 532 q 720 428 682 494 q 758 278 758 363 q 717 123 758 190 q 599 18 675 56 q 421 -19 522 -19 q 242 18 318 -19 q 124 123 165 56 q 83 278 83 190 q 122 429 83 363 q 231 533 161 496 q 155 619 182 568 q 128 729 128 669 q 159 857 128 797 q 256 954 190 917 q 421 992 322 992 q 584 954 519 992 q 678 857 649 917 q 708 729 708 797 q 683 617 708 667 q 613 532 658 567 m 421 872 q 302 833 344 872 q 260 729 260 794 q 303 626 260 668 q 421 585 346 585 q 535 626 494 585 q 576 729 576 667 q 536 833 576 794 q 421 872 496 872 m 421 100 q 569 148 515 100 q 622 278 622 196 q 569 416 622 363 q 421 469 515 469 q 273 416 326 469 q 219 278 219 363 q 273 148 219 196 q 421 100 326 100 z "},"9":{"ha":789,"x_min":60,"x_max":703,"o":"m 379 992 q 617 893 531 992 q 703 631 703 794 q 642 366 703 490 q 487 149 582 242 q 286 0 392 56 l 196 85 q 403 238 311 144 q 539 446 496 332 q 349 389 460 389 q 199 427 265 389 q 97 533 133 465 q 60 683 60 600 q 100 842 60 772 q 213 952 140 913 q 379 992 285 992 m 379 503 q 513 556 461 503 q 564 689 564 608 q 513 825 564 772 q 379 878 463 878 q 247 824 297 878 q 196 688 196 769 q 247 556 196 608 q 379 503 297 503 z "},"\r":{"ha":313,"x_min":0,"x_max":0,"o":""}," ":{"ha":313,"x_min":0,"x_max":0,"o":""},"A":{"ha":856,"x_min":10,"x_max":846,"o":"m 614 263 l 242 263 l 149 0 l 10 0 l 358 972 l 497 972 l 846 0 l 707 0 l 614 263 m 572 382 l 428 788 l 283 382 l 572 382 z "},"Á":{"ha":856,"x_min":10,"x_max":846,"o":"m 614 263 l 242 263 l 149 0 l 10 0 l 358 972 l 497 972 l 846 0 l 707 0 l 614 263 m 572 382 l 428 788 l 283 382 l 572 382 m 299 1142 l 558 1274 l 558 1142 l 299 1061 l 299 1142 z "},"Ă":{"ha":856,"x_min":10,"x_max":846,"o":"m 614 263 l 242 263 l 149 0 l 10 0 l 358 972 l 497 972 l 846 0 l 707 0 l 614 263 m 572 382 l 428 788 l 283 382 l 572 382 m 428 1061 q 277 1110 329 1061 q 225 1228 225 1158 l 336 1228 q 362 1168 336 1189 q 428 1147 388 1147 q 494 1168 468 1147 q 519 1228 519 1189 l 631 1228 q 578 1110 631 1158 q 428 1061 526 1061 z "},"Ắ":{"ha":856,"x_min":10,"x_max":846,"o":"m 614 263 l 242 263 l 149 0 l 10 0 l 358 972 l 497 972 l 846 0 l 707 0 l 614 263 m 572 382 l 428 788 l 283 382 l 572 382 m 428 1061 q 277 1110 329 1061 q 225 1228 225 1158 l 336 1228 q 362 1168 336 1189 q 428 1147 388 1147 q 494 1168 468 1147 q 519 1228 519 1189 l 631 1228 q 578 1110 631 1158 q 428 1061 526 1061 m 299 1369 l 558 1501 l 558 1369 l 299 1289 l 299 1369 z "},"Ặ":{"ha":856,"x_min":10,"x_max":846,"o":"m 614 263 l 242 263 l 149 0 l 10 0 l 358 972 l 497 972 l 846 0 l 707 0 l 614 263 m 572 382 l 428 788 l 283 382 l 572 382 m 428 1092 q 277 1143 329 1092 q 225 1268 225 1194 l 336 1268 q 362 1206 336 1228 q 428 1183 388 1183 q 494 1206 468 1183 q 519 1268 519 1228 l 631 1268 q 578 1143 631 1194 q 428 1092 526 1092 m 361 -112 l 494 -112 l 494 -237 l 361 -237 l 361 -112 z "},"Ằ":{"ha":856,"x_min":10,"x_max":846,"o":"m 614 263 l 242 263 l 149 0 l 10 0 l 358 972 l 497 972 l 846 0 l 707 0 l 614 263 m 572 382 l 428 788 l 283 382 l 572 382 m 428 1060 q 277 1108 329 1060 q 225 1226 225 1157 l 336 1226 q 362 1167 336 1188 q 428 1146 388 1146 q 494 1167 468 1146 q 519 1226 519 1188 l 631 1226 q 578 1108 631 1157 q 428 1060 526 1060 m 297 1368 l 297 1500 l 557 1368 l 557 1288 l 297 1368 z "},"Ẳ":{"ha":856,"x_min":10,"x_max":846,"o":"m 614 263 l 242 263 l 149 0 l 10 0 l 358 972 l 497 972 l 846 0 l 707 0 l 614 263 m 572 382 l 428 788 l 283 382 l 572 382 m 428 1061 q 277 1110 329 1061 q 225 1228 225 1158 l 336 1228 q 362 1168 336 1189 q 428 1147 388 1147 q 494 1168 468 1147 q 519 1228 519 1189 l 631 1228 q 578 1110 631 1158 q 428 1061 526 1061 m 428 1306 q 476 1360 476 1322 q 419 1404 476 1404 q 332 1378 382 1404 l 308 1449 q 419 1475 357 1475 q 518 1447 479 1475 q 557 1368 557 1418 q 529 1292 557 1321 q 440 1250 501 1264 l 428 1306 z "},"Ẵ":{"ha":856,"x_min":10,"x_max":846,"o":"m 614 263 l 242 263 l 149 0 l 10 0 l 358 972 l 497 972 l 846 0 l 707 0 l 614 263 m 572 382 l 428 788 l 283 382 l 572 382 m 428 1061 q 277 1110 329 1061 q 225 1228 225 1158 l 336 1228 q 362 1168 336 1189 q 428 1147 388 1147 q 494 1168 468 1147 q 519 1228 519 1189 l 631 1228 q 578 1110 631 1158 q 428 1061 526 1061 m 543 1293 q 496 1301 521 1293 q 436 1324 471 1308 q 349 1350 375 1350 q 314 1337 326 1350 q 301 1300 301 1324 l 211 1300 q 238 1403 211 1367 q 313 1439 264 1439 q 360 1431 335 1439 q 419 1408 385 1424 q 507 1382 481 1382 q 542 1395 529 1382 q 554 1432 554 1408 l 644 1432 q 618 1329 644 1365 q 543 1293 592 1293 z "},"Â":{"ha":856,"x_min":10,"x_max":846,"o":"m 614 263 l 242 263 l 149 0 l 10 0 l 358 972 l 497 972 l 846 0 l 707 0 l 614 263 m 572 382 l 428 788 l 283 382 l 572 382 m 604 1131 l 604 1046 l 428 1138 l 251 1046 l 251 1131 l 428 1256 l 604 1131 z "},"Ấ":{"ha":856,"x_min":10,"x_max":846,"o":"m 614 263 l 242 263 l 149 0 l 10 0 l 358 972 l 497 972 l 846 0 l 707 0 l 614 263 m 572 382 l 428 788 l 283 382 l 572 382 m 624 1411 l 760 1411 l 624 1249 l 532 1249 l 624 1411 m 604 1131 l 604 1046 l 428 1138 l 251 1046 l 251 1131 l 428 1256 l 604 1131 z "},"Ậ":{"ha":856,"x_min":10,"x_max":846,"o":"m 614 263 l 242 263 l 149 0 l 10 0 l 358 972 l 497 972 l 846 0 l 707 0 l 614 263 m 572 382 l 428 788 l 283 382 l 572 382 m 251 1160 l 428 1313 l 604 1160 l 604 1075 l 428 1186 l 251 1075 l 251 1160 m 361 -112 l 494 -112 l 494 -237 l 361 -237 l 361 -112 z "},"Ầ":{"ha":856,"x_min":10,"x_max":846,"o":"m 614 263 l 242 263 l 149 0 l 10 0 l 358 972 l 497 972 l 846 0 l 707 0 l 614 263 m 572 382 l 428 788 l 283 382 l 572 382 m 551 1249 l 431 1411 l 563 1411 l 640 1249 l 551 1249 m 604 1131 l 604 1046 l 428 1138 l 251 1046 l 251 1131 l 428 1256 l 604 1131 z "},"Ẩ":{"ha":856,"x_min":10,"x_max":846,"o":"m 614 263 l 242 263 l 149 0 l 10 0 l 358 972 l 497 972 l 846 0 l 707 0 l 614 263 m 572 382 l 428 788 l 283 382 l 572 382 m 604 1131 l 604 1046 l 428 1138 l 251 1046 l 251 1131 l 428 1256 l 604 1131 m 549 1267 q 597 1321 597 1283 q 540 1365 597 1365 q 453 1339 503 1365 l 429 1410 q 540 1436 478 1436 q 639 1408 600 1436 q 678 1329 678 1379 q 650 1253 678 1282 q 561 1211 622 1225 l 549 1267 z "},"Ẫ":{"ha":856,"x_min":10,"x_max":846,"o":"m 614 263 l 242 263 l 149 0 l 10 0 l 358 972 l 497 972 l 846 0 l 707 0 l 614 263 m 572 382 l 428 788 l 283 382 l 572 382 m 604 1131 l 604 1046 l 428 1138 l 251 1046 l 251 1131 l 428 1256 l 604 1131 m 543 1313 q 496 1320 521 1313 q 436 1343 471 1328 q 349 1369 375 1369 q 314 1356 326 1369 q 301 1319 301 1343 l 211 1319 q 238 1422 211 1386 q 313 1458 264 1458 q 360 1451 335 1458 q 419 1428 385 1443 q 507 1401 481 1401 q 542 1415 529 1401 q 554 1451 554 1428 l 644 1451 q 618 1349 644 1385 q 543 1313 592 1313 z "},"Ȁ":{"ha":856,"x_min":10,"x_max":846,"o":"m 614 263 l 242 263 l 149 0 l 10 0 l 358 972 l 497 972 l 846 0 l 707 0 l 614 263 m 572 382 l 428 788 l 283 382 l 572 382 m 286 1094 l 154 1299 l 290 1299 l 378 1094 l 286 1094 m 481 1094 l 356 1299 l 492 1299 l 572 1094 l 481 1094 z "},"Ä":{"ha":856,"x_min":10,"x_max":846,"o":"m 614 263 l 242 263 l 149 0 l 10 0 l 358 972 l 497 972 l 846 0 l 707 0 l 614 263 m 572 382 l 428 788 l 283 382 l 572 382 m 235 1207 l 354 1207 l 354 1103 l 235 1103 l 235 1207 m 501 1207 l 621 1207 l 621 1103 l 501 1103 l 501 1207 z "},"Ạ":{"ha":856,"x_min":10,"x_max":846,"o":"m 614 263 l 242 263 l 149 0 l 10 0 l 358 972 l 497 972 l 846 0 l 707 0 l 614 263 m 572 382 l 428 788 l 283 382 l 572 382 m 361 -112 l 494 -112 l 494 -237 l 361 -237 l 361 -112 z "},"À":{"ha":856,"x_min":10,"x_max":846,"o":"m 614 263 l 242 263 l 149 0 l 10 0 l 358 972 l 497 972 l 846 0 l 707 0 l 614 263 m 572 382 l 428 788 l 283 382 l 572 382 m 297 1142 l 297 1274 l 557 1142 l 557 1061 l 297 1142 z "},"Ả":{"ha":856,"x_min":10,"x_max":846,"o":"m 614 263 l 242 263 l 149 0 l 10 0 l 358 972 l 497 972 l 846 0 l 707 0 l 614 263 m 572 382 l 428 788 l 283 382 l 572 382 m 414 1111 q 463 1165 463 1128 q 406 1210 463 1210 q 318 1183 368 1210 l 294 1254 q 406 1281 343 1281 q 504 1252 465 1281 q 543 1174 543 1224 q 515 1098 543 1126 q 426 1056 488 1069 l 414 1111 z "},"Ȃ":{"ha":856,"x_min":10,"x_max":846,"o":"m 614 263 l 242 263 l 149 0 l 10 0 l 358 972 l 497 972 l 846 0 l 707 0 l 614 263 m 572 382 l 428 788 l 283 382 l 572 382 m 428 1249 q 578 1200 526 1249 q 631 1082 631 1151 l 519 1082 q 494 1142 519 1121 q 428 1163 468 1163 q 362 1142 388 1163 q 336 1082 336 1121 l 225 1082 q 277 1200 225 1151 q 428 1249 329 1249 z "},"Ā":{"ha":856,"x_min":10,"x_max":846,"o":"m 614 263 l 242 263 l 149 0 l 10 0 l 358 972 l 497 972 l 846 0 l 707 0 l 614 263 m 572 382 l 428 788 l 283 382 l 572 382 m 206 1196 l 650 1196 l 650 1101 l 206 1101 l 206 1196 z "},"Ą":{"ha":856,"x_min":10,"x_max":886,"o":"m 614 263 l 242 263 l 149 0 l 10 0 l 358 972 l 497 972 l 846 0 l 707 0 l 614 263 m 572 382 l 428 788 l 283 382 l 572 382 m 819 0 q 739 -76 767 -40 q 711 -147 711 -111 q 729 -200 711 -182 q 778 -218 747 -218 q 865 -194 822 -218 l 886 -262 q 771 -289 836 -289 q 670 -258 710 -289 q 631 -169 631 -226 q 665 -72 631 -118 q 746 0 699 -26 l 819 0 z "},"Å":{"ha":856,"x_min":10,"x_max":846,"o":"m 614 263 l 242 263 l 149 0 l 10 0 l 358 972 l 497 972 l 846 0 l 707 0 l 614 263 m 572 382 l 428 788 l 283 382 l 572 382 m 428 1050 q 322 1090 360 1050 q 283 1186 283 1129 q 322 1282 283 1242 q 428 1322 361 1322 q 534 1282 496 1322 q 572 1186 572 1242 q 535 1090 572 1129 q 428 1050 497 1050 m 428 1111 q 481 1132 458 1111 q 503 1186 503 1153 q 481 1240 503 1218 q 428 1261 458 1261 q 375 1240 397 1261 q 353 1186 353 1218 q 375 1132 353 1153 q 428 1111 397 1111 z "},"Ǻ":{"ha":856,"x_min":10,"x_max":846,"o":"m 614 263 l 242 263 l 149 0 l 10 0 l 358 972 l 497 972 l 846 0 l 707 0 l 614 263 m 572 382 l 428 788 l 283 382 l 572 382 m 428 1050 q 322 1090 360 1050 q 283 1186 283 1129 q 322 1282 283 1242 q 428 1322 361 1322 q 534 1282 496 1322 q 572 1186 572 1242 q 535 1090 572 1129 q 428 1050 497 1050 m 428 1111 q 481 1132 458 1111 q 503 1186 503 1153 q 481 1240 503 1218 q 428 1261 458 1261 q 375 1240 397 1261 q 353 1186 353 1218 q 375 1132 353 1153 q 428 1111 397 1111 m 299 1449 l 558 1581 l 558 1449 l 299 1368 l 299 1449 z "},"Ã":{"ha":856,"x_min":10,"x_max":846,"o":"m 614 263 l 242 263 l 149 0 l 10 0 l 358 972 l 497 972 l 846 0 l 707 0 l 614 263 m 572 382 l 428 788 l 283 382 l 572 382 m 543 1094 q 496 1102 521 1094 q 436 1125 471 1110 q 349 1151 375 1151 q 314 1138 326 1151 q 301 1101 301 1125 l 211 1101 q 238 1204 211 1168 q 313 1240 264 1240 q 360 1233 335 1240 q 419 1210 385 1225 q 507 1183 481 1183 q 542 1197 529 1183 q 554 1233 554 1210 l 644 1233 q 618 1131 644 1167 q 543 1094 592 1094 z "},"Æ":{"ha":1203,"x_min":-10,"x_max":1150,"o":"m 465 972 l 1136 972 l 1136 851 l 703 851 l 703 568 l 1038 568 l 1038 449 l 703 449 l 703 119 l 1150 119 l 1150 0 l 544 0 l 544 250 l 247 250 l 119 0 l -10 0 l 465 972 m 544 378 l 544 849 l 307 378 l 544 378 z "},"Ǽ":{"ha":1203,"x_min":-10,"x_max":1150,"o":"m 465 972 l 1136 972 l 1136 851 l 703 851 l 703 568 l 1038 568 l 1038 449 l 703 449 l 703 119 l 1150 119 l 1150 0 l 544 0 l 544 250 l 247 250 l 119 0 l -10 0 l 465 972 m 544 378 l 544 849 l 307 378 l 544 378 m 672 1142 l 932 1274 l 932 1142 l 672 1061 l 672 1142 z "},"B":{"ha":829,"x_min":111,"x_max":788,"o":"m 599 529 q 739 444 690 507 q 788 278 788 381 q 705 74 788 149 q 478 0 622 0 l 111 0 l 111 972 l 418 972 q 624 913 551 972 q 697 735 697 853 q 672 611 697 665 q 599 529 647 557 m 243 568 l 401 568 q 520 599 479 568 q 561 711 561 631 q 520 823 561 792 q 401 854 479 854 l 243 854 l 243 568 m 467 119 q 596 160 549 119 q 643 282 643 201 q 467 449 643 449 l 243 449 l 243 119 l 467 119 z "},"C":{"ha":856,"x_min":54,"x_max":810,"o":"m 544 -19 q 292 43 403 -19 q 117 220 181 106 q 54 486 54 335 q 118 752 54 638 q 294 929 182 867 q 550 992 407 992 q 689 976 621 992 q 810 935 757 961 l 796 813 q 549 872 671 872 q 358 822 438 872 q 239 683 279 771 q 199 486 199 596 q 239 289 199 376 q 357 151 279 201 q 546 100 435 100 q 796 158 676 100 l 810 36 q 544 -19 689 -19 z "},"Ć":{"ha":856,"x_min":54,"x_max":810,"o":"m 544 -19 q 292 43 403 -19 q 117 220 181 106 q 54 486 54 335 q 118 752 54 638 q 294 929 182 867 q 550 992 407 992 q 689 976 621 992 q 810 935 757 961 l 796 813 q 549 872 671 872 q 358 822 438 872 q 239 683 279 771 q 199 486 199 596 q 239 289 199 376 q 357 151 279 201 q 546 100 435 100 q 796 158 676 100 l 810 36 q 544 -19 689 -19 m 393 1142 l 653 1274 l 653 1142 l 393 1061 l 393 1142 z "},"Č":{"ha":856,"x_min":54,"x_max":810,"o":"m 544 -19 q 292 43 403 -19 q 117 220 181 106 q 54 486 54 335 q 118 752 54 638 q 294 929 182 867 q 550 992 407 992 q 689 976 621 992 q 810 935 757 961 l 796 813 q 549 872 671 872 q 358 822 438 872 q 239 683 279 771 q 199 486 199 596 q 239 289 199 376 q 357 151 279 201 q 546 100 435 100 q 796 158 676 100 l 810 36 q 544 -19 689 -19 m 346 1207 l 346 1292 l 522 1200 l 699 1292 l 699 1207 l 522 1082 l 346 1207 z "},"Ç":{"ha":856,"x_min":54,"x_max":810,"o":"m 810 36 q 565 -19 699 -15 l 547 -75 l 558 -75 q 647 -105 614 -75 q 679 -187 679 -135 q 638 -281 679 -247 q 532 -314 596 -314 q 424 -287 471 -314 l 444 -219 q 532 -243 488 -243 q 581 -229 563 -243 q 599 -190 599 -215 q 581 -149 599 -164 q 529 -135 564 -135 q 465 -146 497 -135 l 497 -18 q 267 57 368 -8 q 110 233 167 122 q 54 486 54 343 q 118 752 54 638 q 294 929 182 867 q 550 992 407 992 q 689 976 621 992 q 810 935 757 961 l 796 813 q 549 872 671 872 q 358 822 438 872 q 239 683 279 771 q 199 486 199 596 q 239 289 199 376 q 357 151 279 201 q 546 100 435 100 q 796 158 676 100 l 810 36 z "},"Ḉ":{"ha":856,"x_min":54,"x_max":810,"o":"m 653 1142 l 393 1061 l 393 1142 l 653 1274 l 653 1142 m 810 36 q 565 -19 699 -15 l 547 -75 l 558 -75 q 647 -105 614 -75 q 679 -187 679 -135 q 638 -281 679 -247 q 532 -314 596 -314 q 424 -287 471 -314 l 444 -219 q 532 -243 488 -243 q 581 -229 563 -243 q 599 -190 599 -215 q 581 -149 599 -164 q 529 -135 564 -135 q 465 -146 497 -135 l 497 -18 q 267 57 368 -8 q 110 233 167 122 q 54 486 54 343 q 118 752 54 638 q 294 929 182 867 q 550 992 407 992 q 689 976 621 992 q 810 935 757 961 l 796 813 q 549 872 671 872 q 358 822 438 872 q 239 683 279 771 q 199 486 199 596 q 239 289 199 376 q 357 151 279 201 q 546 100 435 100 q 796 158 676 100 l 810 36 z "},"Ĉ":{"ha":856,"x_min":54,"x_max":810,"o":"m 544 -19 q 292 43 403 -19 q 117 220 181 106 q 54 486 54 335 q 118 752 54 638 q 294 929 182 867 q 550 992 407 992 q 689 976 621 992 q 810 935 757 961 l 796 813 q 549 872 671 872 q 358 822 438 872 q 239 683 279 771 q 199 486 199 596 q 239 289 199 376 q 357 151 279 201 q 546 100 435 100 q 796 158 676 100 l 810 36 q 544 -19 689 -19 m 699 1131 l 699 1046 l 522 1138 l 346 1046 l 346 1131 l 522 1256 l 699 1131 z "},"Ċ":{"ha":856,"x_min":54,"x_max":810,"o":"m 544 -19 q 292 43 403 -19 q 117 220 181 106 q 54 486 54 335 q 118 752 54 638 q 294 929 182 867 q 550 992 407 992 q 689 976 621 992 q 810 935 757 961 l 796 813 q 549 872 671 872 q 358 822 438 872 q 239 683 279 771 q 199 486 199 596 q 239 289 199 376 q 357 151 279 201 q 546 100 435 100 q 796 158 676 100 l 810 36 q 544 -19 689 -19 m 456 1224 l 589 1224 l 589 1099 l 456 1099 l 456 1224 z "},"D":{"ha":1010,"x_min":111,"x_max":954,"o":"m 111 972 l 471 972 q 722 915 613 972 q 893 747 832 857 q 954 486 954 636 q 893 226 954 336 q 722 58 832 115 q 471 0 613 0 l 111 0 l 111 972 m 471 119 q 722 219 633 119 q 810 486 810 318 q 722 753 810 654 q 471 853 633 853 l 243 853 l 243 119 l 471 119 z "},"Ǆ":{"ha":1743,"x_min":111,"x_max":1733,"o":"m 111 972 l 471 972 q 722 915 613 972 q 893 747 832 857 q 954 486 954 636 q 893 226 954 336 q 722 58 832 115 q 471 0 613 0 l 111 0 l 111 972 m 471 119 q 722 219 633 119 q 810 486 810 318 q 722 753 810 654 q 471 853 633 853 l 243 853 l 243 119 l 471 119 m 1204 119 l 1726 119 l 1726 0 l 993 0 l 1519 853 l 1056 853 l 1056 972 l 1733 972 l 1204 119 m 1218 1207 l 1218 1292 l 1394 1200 l 1571 1292 l 1571 1207 l 1394 1082 l 1218 1207 z "},"Ð":{"ha":1013,"x_min":25,"x_max":957,"o":"m 122 435 l 25 435 l 25 551 l 122 551 l 122 972 l 478 972 q 726 914 618 972 q 896 746 835 856 q 957 486 957 636 q 896 226 957 336 q 726 58 835 117 q 478 0 618 0 l 122 0 l 122 435 m 478 121 q 728 219 642 121 q 815 486 815 317 q 728 754 815 656 q 478 853 642 853 l 247 853 l 247 551 l 432 551 l 432 435 l 247 435 l 247 121 l 478 121 z "},"Ď":{"ha":1010,"x_min":111,"x_max":954,"o":"m 111 972 l 471 972 q 722 915 613 972 q 893 747 832 857 q 954 486 954 636 q 893 226 954 336 q 722 58 832 115 q 471 0 613 0 l 111 0 l 111 972 m 471 119 q 722 219 633 119 q 810 486 810 318 q 722 753 810 654 q 471 853 633 853 l 243 853 l 243 119 l 471 119 m 329 1207 l 329 1292 l 506 1200 l 682 1292 l 682 1207 l 506 1082 l 329 1207 z "},"Đ":{"ha":1013,"x_min":25,"x_max":957,"o":"m 122 435 l 25 435 l 25 551 l 122 551 l 122 972 l 478 972 q 726 914 618 972 q 896 746 835 856 q 957 486 957 636 q 896 226 957 336 q 726 58 835 117 q 478 0 618 0 l 122 0 l 122 435 m 478 121 q 728 219 642 121 q 815 486 815 317 q 728 754 815 656 q 478 853 642 853 l 247 853 l 247 551 l 432 551 l 432 435 l 247 435 l 247 121 l 478 121 z "},"Ḍ":{"ha":1010,"x_min":111,"x_max":954,"o":"m 111 972 l 471 972 q 722 915 613 972 q 893 747 832 857 q 954 486 954 636 q 893 226 954 336 q 722 58 832 115 q 471 0 613 0 l 111 0 l 111 972 m 471 119 q 722 219 633 119 q 810 486 810 318 q 722 753 810 654 q 471 853 633 853 l 243 853 l 243 119 l 471 119 m 439 -112 l 572 -112 l 572 -237 l 439 -237 l 439 -112 z "},"Ḏ":{"ha":1010,"x_min":111,"x_max":954,"o":"m 111 972 l 471 972 q 722 915 613 972 q 893 747 832 857 q 954 486 954 636 q 893 226 954 336 q 722 58 832 115 q 471 0 613 0 l 111 0 l 111 972 m 471 119 q 722 219 633 119 q 810 486 810 318 q 722 753 810 654 q 471 853 633 853 l 243 853 l 243 119 l 471 119 m 283 -126 l 728 -126 l 728 -225 l 283 -225 l 283 -126 z "},"ǅ":{"ha":1656,"x_min":111,"x_max":1621,"o":"m 111 972 l 471 972 q 722 915 613 972 q 893 747 832 857 q 954 486 954 636 q 893 226 954 336 q 722 58 832 115 q 471 0 613 0 l 111 0 l 111 972 m 471 119 q 722 219 633 119 q 810 486 810 318 q 722 753 810 654 q 471 853 633 853 l 243 853 l 243 119 l 471 119 m 1242 110 l 1614 110 l 1614 0 l 1032 0 l 1411 571 l 1054 571 l 1054 681 l 1621 681 l 1242 110 m 1160 942 l 1160 1026 l 1336 915 l 1513 1026 l 1513 942 l 1336 789 l 1160 942 z "},"E":{"ha":769,"x_min":111,"x_max":717,"o":"m 111 972 l 704 972 l 704 853 l 243 853 l 243 568 l 610 568 l 610 449 l 243 449 l 243 119 l 717 119 l 717 0 l 111 0 l 111 972 z "},"É":{"ha":769,"x_min":111,"x_max":717,"o":"m 111 972 l 704 972 l 704 853 l 243 853 l 243 568 l 610 568 l 610 449 l 243 449 l 243 119 l 717 119 l 717 0 l 111 0 l 111 972 m 293 1142 l 553 1274 l 553 1142 l 293 1061 l 293 1142 z "},"Ĕ":{"ha":769,"x_min":111,"x_max":717,"o":"m 111 972 l 704 972 l 704 853 l 243 853 l 243 568 l 610 568 l 610 449 l 243 449 l 243 119 l 717 119 l 717 0 l 111 0 l 111 972 m 422 1092 q 272 1143 324 1092 q 219 1268 219 1194 l 331 1268 q 356 1206 331 1228 q 422 1183 382 1183 q 488 1206 463 1183 q 514 1268 514 1228 l 625 1268 q 573 1143 625 1194 q 422 1092 521 1092 z "},"Ě":{"ha":769,"x_min":111,"x_max":717,"o":"m 111 972 l 704 972 l 704 853 l 243 853 l 243 568 l 610 568 l 610 449 l 243 449 l 243 119 l 717 119 l 717 0 l 111 0 l 111 972 m 246 1219 l 246 1304 l 422 1193 l 599 1304 l 599 1219 l 422 1067 l 246 1219 z "},"Ḝ":{"ha":769,"x_min":111,"x_max":717,"o":"m 111 972 l 704 972 l 704 853 l 243 853 l 243 568 l 610 568 l 610 449 l 243 449 l 243 119 l 717 119 l 717 0 l 111 0 l 111 972 m 451 -75 q 540 -105 507 -75 q 572 -187 572 -135 q 531 -281 572 -247 q 425 -314 489 -314 q 317 -287 364 -314 l 338 -219 q 425 -243 381 -243 q 474 -229 456 -243 q 492 -190 492 -215 q 474 -149 492 -164 q 422 -135 457 -135 q 358 -146 390 -135 l 394 0 l 464 0 l 440 -75 l 451 -75 m 422 1061 q 272 1110 324 1061 q 219 1228 219 1158 l 331 1228 q 356 1168 331 1189 q 422 1147 382 1147 q 488 1168 463 1147 q 514 1228 514 1189 l 625 1228 q 573 1110 625 1158 q 422 1061 521 1061 z "},"Ê":{"ha":769,"x_min":111,"x_max":717,"o":"m 111 972 l 704 972 l 704 853 l 243 853 l 243 568 l 610 568 l 610 449 l 243 449 l 243 119 l 717 119 l 717 0 l 111 0 l 111 972 m 599 1131 l 599 1046 l 422 1138 l 246 1046 l 246 1131 l 422 1256 l 599 1131 z "},"Ế":{"ha":769,"x_min":111,"x_max":754,"o":"m 111 972 l 704 972 l 704 853 l 243 853 l 243 568 l 610 568 l 610 449 l 243 449 l 243 119 l 717 119 l 717 0 l 111 0 l 111 972 m 618 1411 l 754 1411 l 618 1249 l 526 1249 l 618 1411 m 599 1131 l 599 1046 l 422 1138 l 246 1046 l 246 1131 l 422 1256 l 599 1131 z "},"Ệ":{"ha":769,"x_min":111,"x_max":717,"o":"m 111 972 l 704 972 l 704 853 l 243 853 l 243 568 l 610 568 l 610 449 l 243 449 l 243 119 l 717 119 l 717 0 l 111 0 l 111 972 m 246 1160 l 422 1313 l 599 1160 l 599 1075 l 422 1186 l 246 1075 l 246 1160 m 358 -112 l 492 -112 l 492 -237 l 358 -237 l 358 -112 z "},"Ề":{"ha":769,"x_min":111,"x_max":717,"o":"m 111 972 l 704 972 l 704 853 l 243 853 l 243 568 l 610 568 l 610 449 l 243 449 l 243 119 l 717 119 l 717 0 l 111 0 l 111 972 m 546 1249 l 425 1411 l 557 1411 l 635 1249 l 546 1249 m 599 1131 l 599 1046 l 422 1138 l 246 1046 l 246 1131 l 422 1256 l 599 1131 z "},"Ể":{"ha":769,"x_min":111,"x_max":717,"o":"m 111 972 l 704 972 l 704 853 l 243 853 l 243 568 l 610 568 l 610 449 l 243 449 l 243 119 l 717 119 l 717 0 l 111 0 l 111 972 m 599 1131 l 599 1046 l 422 1138 l 246 1046 l 246 1131 l 422 1256 l 599 1131 m 543 1267 q 592 1321 592 1283 q 535 1365 592 1365 q 447 1339 497 1365 l 424 1410 q 535 1436 472 1436 q 633 1408 594 1436 q 672 1329 672 1379 q 644 1253 672 1282 q 556 1211 617 1225 l 543 1267 z "},"Ễ":{"ha":769,"x_min":111,"x_max":717,"o":"m 111 972 l 704 972 l 704 853 l 243 853 l 243 568 l 610 568 l 610 449 l 243 449 l 243 119 l 717 119 l 717 0 l 111 0 l 111 972 m 599 1131 l 599 1046 l 422 1138 l 246 1046 l 246 1131 l 422 1256 l 599 1131 m 538 1313 q 490 1320 515 1313 q 431 1343 465 1328 q 343 1369 369 1369 q 308 1356 321 1369 q 296 1319 296 1343 l 206 1319 q 232 1422 206 1386 q 307 1458 258 1458 q 354 1451 329 1458 q 414 1428 379 1443 q 501 1401 475 1401 q 536 1415 524 1401 q 549 1451 549 1428 l 639 1451 q 613 1349 639 1385 q 538 1313 586 1313 z "},"Ȅ":{"ha":769,"x_min":111,"x_max":717,"o":"m 111 972 l 704 972 l 704 853 l 243 853 l 243 568 l 610 568 l 610 449 l 243 449 l 243 119 l 717 119 l 717 0 l 111 0 l 111 972 m 281 1094 l 149 1299 l 285 1299 l 372 1094 l 281 1094 m 475 1094 l 350 1299 l 486 1299 l 567 1094 l 475 1094 z "},"Ë":{"ha":769,"x_min":111,"x_max":717,"o":"m 111 972 l 704 972 l 704 853 l 243 853 l 243 568 l 610 568 l 610 449 l 243 449 l 243 119 l 717 119 l 717 0 l 111 0 l 111 972 m 229 1224 l 349 1224 l 349 1113 l 229 1113 l 229 1224 m 496 1224 l 615 1224 l 615 1113 l 496 1113 l 496 1224 z "},"Ė":{"ha":769,"x_min":111,"x_max":717,"o":"m 111 972 l 704 972 l 704 853 l 243 853 l 243 568 l 610 568 l 610 449 l 243 449 l 243 119 l 717 119 l 717 0 l 111 0 l 111 972 m 356 1224 l 489 1224 l 489 1099 l 356 1099 l 356 1224 z "},"Ẹ":{"ha":769,"x_min":111,"x_max":717,"o":"m 111 972 l 704 972 l 704 853 l 243 853 l 243 568 l 610 568 l 610 449 l 243 449 l 243 119 l 717 119 l 717 0 l 111 0 l 111 972 m 358 -112 l 492 -112 l 492 -237 l 358 -237 l 358 -112 z "},"È":{"ha":769,"x_min":111,"x_max":717,"o":"m 111 972 l 704 972 l 704 853 l 243 853 l 243 568 l 610 568 l 610 449 l 243 449 l 243 119 l 717 119 l 717 0 l 111 0 l 111 972 m 292 1142 l 292 1274 l 551 1142 l 551 1061 l 292 1142 z "},"Ẻ":{"ha":769,"x_min":111,"x_max":717,"o":"m 111 972 l 704 972 l 704 853 l 243 853 l 243 568 l 610 568 l 610 449 l 243 449 l 243 119 l 717 119 l 717 0 l 111 0 l 111 972 m 408 1111 q 457 1165 457 1128 q 400 1210 457 1210 q 313 1183 363 1210 l 289 1254 q 400 1281 338 1281 q 499 1252 460 1281 q 538 1174 538 1224 q 510 1098 538 1126 q 421 1056 482 1069 l 408 1111 z "},"Ȇ":{"ha":769,"x_min":111,"x_max":717,"o":"m 111 972 l 704 972 l 704 853 l 243 853 l 243 568 l 610 568 l 610 449 l 243 449 l 243 119 l 717 119 l 717 0 l 111 0 l 111 972 m 422 1249 q 573 1200 521 1249 q 625 1082 625 1151 l 514 1082 q 488 1142 514 1121 q 422 1163 463 1163 q 356 1142 382 1163 q 331 1082 331 1121 l 219 1082 q 272 1200 219 1151 q 422 1249 324 1249 z "},"Ē":{"ha":769,"x_min":111,"x_max":717,"o":"m 111 972 l 704 972 l 704 853 l 243 853 l 243 568 l 610 568 l 610 449 l 243 449 l 243 119 l 717 119 l 717 0 l 111 0 l 111 972 m 200 1196 l 644 1196 l 644 1101 l 200 1101 l 200 1196 z "},"Ḗ":{"ha":769,"x_min":111,"x_max":717,"o":"m 111 972 l 704 972 l 704 853 l 243 853 l 243 568 l 610 568 l 610 449 l 243 449 l 243 119 l 717 119 l 717 0 l 111 0 l 111 972 m 200 1196 l 644 1196 l 644 1101 l 200 1101 l 200 1196 m 293 1381 l 553 1513 l 553 1381 l 293 1300 l 293 1381 z "},"Ḕ":{"ha":769,"x_min":111,"x_max":717,"o":"m 111 972 l 704 972 l 704 853 l 243 853 l 243 568 l 610 568 l 610 449 l 243 449 l 243 119 l 717 119 l 717 0 l 111 0 l 111 972 m 200 1196 l 644 1196 l 644 1101 l 200 1101 l 200 1196 m 292 1381 l 292 1513 l 551 1381 l 551 1300 l 292 1381 z "},"Ę":{"ha":769,"x_min":111,"x_max":783,"o":"m 111 972 l 704 972 l 704 853 l 243 853 l 243 568 l 610 568 l 610 449 l 243 449 l 243 119 l 717 119 l 717 0 l 111 0 l 111 972 m 717 0 q 636 -76 664 -40 q 608 -147 608 -111 q 626 -200 608 -182 q 675 -218 644 -218 q 763 -194 719 -218 l 783 -262 q 668 -289 733 -289 q 567 -258 607 -289 q 528 -169 528 -226 q 562 -72 528 -118 q 643 0 596 -26 l 717 0 z "},"Ẽ":{"ha":769,"x_min":111,"x_max":717,"o":"m 111 972 l 704 972 l 704 853 l 243 853 l 243 568 l 610 568 l 610 449 l 243 449 l 243 119 l 717 119 l 717 0 l 111 0 l 111 972 m 533 1097 q 486 1106 510 1097 q 431 1132 463 1115 q 380 1155 399 1147 q 343 1163 361 1163 q 308 1148 321 1163 q 296 1108 296 1133 l 192 1108 q 225 1223 194 1183 q 311 1263 256 1263 q 358 1253 335 1263 q 414 1228 382 1244 q 465 1205 446 1213 q 501 1197 483 1197 q 536 1212 524 1197 q 549 1251 549 1226 l 653 1251 q 619 1137 650 1176 q 533 1097 589 1097 z "},"F":{"ha":726,"x_min":111,"x_max":704,"o":"m 111 972 l 704 972 l 704 853 l 243 853 l 243 568 l 599 568 l 599 449 l 243 449 l 243 0 l 111 0 l 111 972 z "},"G":{"ha":933,"x_min":54,"x_max":863,"o":"m 531 -19 q 288 43 396 -19 q 117 221 179 106 q 54 488 54 336 q 119 753 54 639 q 297 929 183 867 q 557 992 411 992 q 702 976 631 992 q 831 936 774 961 l 818 821 q 561 872 683 872 q 359 822 440 872 q 238 684 278 771 q 199 486 199 597 q 292 206 199 311 q 568 100 386 100 q 651 106 607 100 q 731 126 696 113 l 731 368 l 578 368 l 578 488 l 863 488 l 863 54 q 716 1 801 21 q 531 -19 631 -19 z "},"Ğ":{"ha":933,"x_min":54,"x_max":863,"o":"m 531 -19 q 288 43 396 -19 q 117 221 179 106 q 54 488 54 336 q 119 753 54 639 q 297 929 183 867 q 557 992 411 992 q 702 976 631 992 q 831 936 774 961 l 818 821 q 561 872 683 872 q 359 822 440 872 q 238 684 278 771 q 199 486 199 597 q 292 206 199 311 q 568 100 386 100 q 651 106 607 100 q 731 126 696 113 l 731 368 l 578 368 l 578 488 l 863 488 l 863 54 q 716 1 801 21 q 531 -19 631 -19 m 560 1061 q 409 1110 461 1061 q 357 1228 357 1158 l 468 1228 q 494 1168 468 1189 q 560 1147 519 1147 q 626 1168 600 1147 q 651 1228 651 1189 l 763 1228 q 710 1110 763 1158 q 560 1061 658 1061 z "},"Ǧ":{"ha":933,"x_min":54,"x_max":863,"o":"m 531 -19 q 288 43 396 -19 q 117 221 179 106 q 54 488 54 336 q 119 753 54 639 q 297 929 183 867 q 557 992 411 992 q 702 976 631 992 q 831 936 774 961 l 818 821 q 561 872 683 872 q 359 822 440 872 q 238 684 278 771 q 199 486 199 597 q 292 206 199 311 q 568 100 386 100 q 651 106 607 100 q 731 126 696 113 l 731 368 l 578 368 l 578 488 l 863 488 l 863 54 q 716 1 801 21 q 531 -19 631 -19 m 383 1207 l 383 1292 l 560 1200 l 736 1292 l 736 1207 l 560 1082 l 383 1207 z "},"Ĝ":{"ha":933,"x_min":54,"x_max":863,"o":"m 531 -19 q 288 43 396 -19 q 117 221 179 106 q 54 488 54 336 q 119 753 54 639 q 297 929 183 867 q 557 992 411 992 q 702 976 631 992 q 831 936 774 961 l 818 821 q 561 872 683 872 q 359 822 440 872 q 238 684 278 771 q 199 486 199 597 q 292 206 199 311 q 568 100 386 100 q 651 106 607 100 q 731 126 696 113 l 731 368 l 578 368 l 578 488 l 863 488 l 863 54 q 716 1 801 21 q 531 -19 631 -19 m 736 1131 l 736 1046 l 560 1138 l 383 1046 l 383 1131 l 560 1256 l 736 1131 z "},"Ģ":{"ha":933,"x_min":54,"x_max":863,"o":"m 531 -19 q 288 43 396 -19 q 117 221 179 106 q 54 488 54 336 q 119 753 54 639 q 297 929 183 867 q 557 992 411 992 q 702 976 631 992 q 831 936 774 961 l 818 821 q 561 872 683 872 q 359 822 440 872 q 238 684 278 771 q 199 486 199 597 q 292 206 199 311 q 568 100 386 100 q 651 106 607 100 q 731 126 696 113 l 731 368 l 578 368 l 578 488 l 863 488 l 863 54 q 716 1 801 21 q 531 -19 631 -19 m 475 -422 l 525 -274 l 476 -274 l 476 -126 l 626 -126 l 626 -260 l 554 -422 l 475 -422 z "},"Ġ":{"ha":933,"x_min":54,"x_max":863,"o":"m 531 -19 q 288 43 396 -19 q 117 221 179 106 q 54 488 54 336 q 119 753 54 639 q 297 929 183 867 q 557 992 411 992 q 702 976 631 992 q 831 936 774 961 l 818 821 q 561 872 683 872 q 359 822 440 872 q 238 684 278 771 q 199 486 199 597 q 292 206 199 311 q 568 100 386 100 q 651 106 607 100 q 731 126 696 113 l 731 368 l 578 368 l 578 488 l 863 488 l 863 54 q 716 1 801 21 q 531 -19 631 -19 m 493 1224 l 626 1224 l 626 1099 l 493 1099 l 493 1224 z "},"Ḡ":{"ha":933,"x_min":54,"x_max":863,"o":"m 531 -19 q 288 43 396 -19 q 117 221 179 106 q 54 488 54 336 q 119 753 54 639 q 297 929 183 867 q 557 992 411 992 q 702 976 631 992 q 831 936 774 961 l 818 821 q 561 872 683 872 q 359 822 440 872 q 238 684 278 771 q 199 486 199 597 q 292 206 199 311 q 568 100 386 100 q 651 106 607 100 q 731 126 696 113 l 731 368 l 578 368 l 578 488 l 863 488 l 863 54 q 716 1 801 21 q 531 -19 631 -19 m 338 1196 l 782 1196 l 782 1101 l 338 1101 l 338 1196 z "},"H":{"ha":981,"x_min":111,"x_max":869,"o":"m 111 972 l 243 972 l 243 571 l 738 571 l 738 972 l 869 972 l 869 0 l 738 0 l 738 446 l 243 446 l 243 0 l 111 0 l 111 972 z "},"Ħ":{"ha":1036,"x_min":14,"x_max":1022,"o":"m 1022 694 l 925 694 l 925 0 l 793 0 l 793 446 l 243 446 l 243 0 l 111 0 l 111 694 l 14 694 l 14 783 l 111 783 l 111 972 l 243 972 l 243 783 l 793 783 l 793 972 l 925 972 l 925 783 l 1022 783 l 1022 694 m 793 694 l 243 694 l 243 571 l 793 571 l 793 694 z "},"Ḫ":{"ha":981,"x_min":111,"x_max":869,"o":"m 111 972 l 243 972 l 243 571 l 738 571 l 738 972 l 869 972 l 869 0 l 738 0 l 738 446 l 243 446 l 243 0 l 111 0 l 111 972 m 490 -303 q 340 -251 392 -303 q 288 -126 288 -200 l 399 -126 q 424 -189 399 -167 q 490 -211 450 -211 q 556 -189 531 -211 q 582 -126 582 -167 l 693 -126 q 641 -251 693 -200 q 490 -303 589 -303 z "},"Ĥ":{"ha":981,"x_min":111,"x_max":869,"o":"m 111 972 l 243 972 l 243 571 l 738 571 l 738 972 l 869 972 l 869 0 l 738 0 l 738 446 l 243 446 l 243 0 l 111 0 l 111 972 m 667 1131 l 667 1046 l 490 1138 l 314 1046 l 314 1131 l 490 1256 l 667 1131 z "},"Ḥ":{"ha":981,"x_min":111,"x_max":869,"o":"m 111 972 l 243 972 l 243 571 l 738 571 l 738 972 l 869 972 l 869 0 l 738 0 l 738 446 l 243 446 l 243 0 l 111 0 l 111 972 m 424 -112 l 557 -112 l 557 -237 l 424 -237 l 424 -112 z "},"I":{"ha":354,"x_min":111,"x_max":243,"o":"m 111 972 l 243 972 l 243 0 l 111 0 l 111 972 z "},"Ĳ":{"ha":950,"x_min":100,"x_max":850,"o":"m 100 972 l 232 972 l 232 449 l 100 449 l 100 972 m 238 339 q 305 164 250 228 q 475 100 360 100 q 667 195 617 100 q 718 449 718 290 l 718 972 l 850 972 l 850 413 q 756 94 850 207 q 475 -19 661 -19 q 218 69 311 -19 q 106 321 125 158 l 238 339 z "},"Í":{"ha":354,"x_min":49,"x_max":308,"o":"m 111 972 l 243 972 l 243 0 l 111 0 l 111 972 m 49 1142 l 308 1274 l 308 1142 l 49 1061 l 49 1142 z "},"Ĭ":{"ha":354,"x_min":-25,"x_max":381,"o":"m 111 972 l 243 972 l 243 0 l 111 0 l 111 972 m 178 1092 q 27 1143 79 1092 q -25 1268 -25 1194 l 86 1268 q 112 1206 86 1228 q 178 1183 138 1183 q 244 1206 218 1183 q 269 1268 269 1228 l 381 1268 q 328 1143 381 1194 q 178 1092 276 1092 z "},"Î":{"ha":354,"x_min":1,"x_max":354,"o":"m 111 972 l 243 972 l 243 0 l 111 0 l 111 972 m 354 1131 l 354 1046 l 178 1138 l 1 1046 l 1 1131 l 178 1256 l 354 1131 z "},"Ȉ":{"ha":354,"x_min":-96,"x_max":322,"o":"m 111 972 l 243 972 l 243 0 l 111 0 l 111 972 m 36 1094 l -96 1299 l 40 1299 l 128 1094 l 36 1094 m 231 1094 l 106 1299 l 242 1299 l 322 1094 l 231 1094 z "},"Ï":{"ha":354,"x_min":-15,"x_max":371,"o":"m 111 972 l 243 972 l 243 0 l 111 0 l 111 972 m -15 1207 l 104 1207 l 104 1103 l -15 1103 l -15 1207 m 251 1207 l 371 1207 l 371 1103 l 251 1103 l 251 1207 z "},"Ḯ":{"ha":354,"x_min":-15,"x_max":371,"o":"m 111 972 l 243 972 l 243 0 l 111 0 l 111 972 m -15 1207 l 104 1207 l 104 1103 l -15 1103 l -15 1207 m 251 1207 l 371 1207 l 371 1103 l 251 1103 l 251 1207 m 49 1364 l 308 1496 l 308 1364 l 49 1283 l 49 1364 z "},"İ":{"ha":354,"x_min":111,"x_max":244,"o":"m 111 972 l 243 972 l 243 0 l 111 0 l 111 972 m 111 1224 l 244 1224 l 244 1099 l 111 1099 l 111 1224 z "},"Ị":{"ha":354,"x_min":111,"x_max":244,"o":"m 111 972 l 243 972 l 243 0 l 111 0 l 111 972 m 111 -112 l 244 -112 l 244 -237 l 111 -237 l 111 -112 z "},"Ì":{"ha":354,"x_min":47,"x_max":307,"o":"m 111 972 l 243 972 l 243 0 l 111 0 l 111 972 m 47 1142 l 47 1274 l 307 1142 l 307 1061 l 47 1142 z "},"Ỉ":{"ha":354,"x_min":44,"x_max":293,"o":"m 111 972 l 243 972 l 243 0 l 111 0 l 111 972 m 151 1067 q 201 1121 189 1104 q 213 1160 213 1138 q 197 1197 213 1185 q 156 1210 182 1210 q 68 1183 118 1210 l 44 1254 q 156 1281 93 1281 q 254 1249 215 1281 q 293 1164 293 1218 q 272 1091 293 1122 q 199 1021 250 1060 l 151 1067 z "},"Ȋ":{"ha":354,"x_min":-25,"x_max":381,"o":"m 111 972 l 243 972 l 243 0 l 111 0 l 111 972 m 178 1249 q 328 1200 276 1249 q 381 1082 381 1151 l 269 1082 q 244 1142 269 1121 q 178 1163 218 1163 q 112 1142 138 1163 q 86 1082 86 1121 l -25 1082 q 27 1200 -25 1151 q 178 1249 79 1249 z "},"Ī":{"ha":354,"x_min":-44,"x_max":400,"o":"m 111 972 l 243 972 l 243 0 l 111 0 l 111 972 m -44 1196 l 400 1196 l 400 1101 l -44 1101 l -44 1196 z "},"Į":{"ha":354,"x_min":54,"x_max":310,"o":"m 111 972 l 243 972 l 243 0 l 111 0 l 111 972 m 243 0 q 163 -76 190 -40 q 135 -147 135 -111 q 153 -200 135 -182 q 201 -218 171 -218 q 289 -194 246 -218 l 310 -262 q 194 -289 260 -289 q 94 -258 133 -289 q 54 -169 54 -226 q 88 -72 54 -118 q 169 0 122 -26 l 243 0 z "},"Ĩ":{"ha":354,"x_min":-39,"x_max":394,"o":"m 111 972 l 243 972 l 243 0 l 111 0 l 111 972 m 293 1094 q 246 1102 271 1094 q 186 1125 221 1110 q 99 1151 125 1151 q 64 1138 76 1151 q 51 1101 51 1125 l -39 1101 q -12 1204 -39 1168 q 63 1240 14 1240 q 110 1233 85 1240 q 169 1210 135 1225 q 257 1183 231 1183 q 292 1197 279 1183 q 304 1233 304 1210 l 394 1233 q 368 1131 394 1167 q 293 1094 342 1094 z "},"J":{"ha":354,"x_min":-28,"x_max":243,"o":"m -28 -125 q 79 -93 47 -125 q 111 11 111 -61 l 111 972 l 243 972 l 243 -19 q 190 -186 243 -133 q 26 -239 136 -239 l -10 -239 l -28 -125 z "},"Ĵ":{"ha":354,"x_min":-28,"x_max":354,"o":"m -28 -125 q 79 -93 47 -125 q 111 11 111 -61 l 111 972 l 243 972 l 243 -19 q 190 -186 243 -133 q 26 -239 136 -239 l -10 -239 l -28 -125 m 354 1131 l 354 1046 l 178 1138 l 1 1046 l 1 1131 l 178 1256 l 354 1131 z "},"K":{"ha":786,"x_min":111,"x_max":781,"o":"m 111 972 l 243 972 l 243 0 l 111 0 l 111 972 m 257 515 l 617 972 l 776 972 l 407 518 l 781 0 l 617 0 l 257 515 z "},"Ķ":{"ha":786,"x_min":111,"x_max":781,"o":"m 111 972 l 243 972 l 243 0 l 111 0 l 111 972 m 257 515 l 617 972 l 776 972 l 407 518 l 781 0 l 617 0 l 257 515 m 375 -422 l 425 -274 l 376 -274 l 376 -126 l 526 -126 l 526 -260 l 454 -422 l 375 -422 z "},"L":{"ha":696,"x_min":111,"x_max":689,"o":"m 111 972 l 243 972 l 243 119 l 689 119 l 689 0 l 111 0 l 111 972 z "},"Ǉ":{"ha":1050,"x_min":111,"x_max":939,"o":"m 111 972 l 243 972 l 243 119 l 689 119 l 689 0 l 111 0 l 111 972 m 668 -125 q 775 -93 743 -125 q 807 11 807 -61 l 807 972 l 939 972 l 939 -19 q 885 -186 939 -133 q 722 -239 832 -239 l 686 -239 l 668 -125 z "},"Ĺ":{"ha":696,"x_min":49,"x_max":689,"o":"m 111 972 l 243 972 l 243 119 l 689 119 l 689 0 l 111 0 l 111 972 m 49 1142 l 308 1274 l 308 1142 l 49 1061 l 49 1142 z "},"Ľ":{"ha":696,"x_min":111,"x_max":689,"o":"m 111 972 l 243 972 l 243 119 l 689 119 l 689 0 l 111 0 l 111 972 m 558 972 l 689 972 l 650 740 l 558 740 l 558 972 z "},"Ļ":{"ha":696,"x_min":111,"x_max":689,"o":"m 111 972 l 243 972 l 243 119 l 689 119 l 689 0 l 111 0 l 111 972 m 325 -422 l 375 -274 l 326 -274 l 326 -126 l 476 -126 l 476 -260 l 404 -422 l 325 -422 z "},"Ŀ":{"ha":696,"x_min":111,"x_max":689,"o":"m 111 972 l 243 972 l 243 119 l 689 119 l 689 0 l 111 0 l 111 972 m 454 604 l 596 604 l 596 463 l 454 463 l 454 604 z "},"Ḷ":{"ha":696,"x_min":111,"x_max":689,"o":"m 111 972 l 243 972 l 243 119 l 689 119 l 689 0 l 111 0 l 111 972 m 333 -112 l 467 -112 l 467 -237 l 333 -237 l 333 -112 z "},"ǈ":{"ha":990,"x_min":111,"x_max":906,"o":"m 111 972 l 243 972 l 243 119 l 689 119 l 689 0 l 111 0 l 111 972 m 781 972 l 906 972 l 906 833 l 781 833 l 781 972 m 679 -240 q 743 -224 722 -236 q 772 -185 764 -212 q 781 -101 781 -157 l 781 681 l 906 681 l 906 -149 q 855 -277 906 -236 q 735 -329 804 -318 l 693 -336 l 679 -240 z "},"Ḻ":{"ha":696,"x_min":111,"x_max":689,"o":"m 111 972 l 243 972 l 243 119 l 689 119 l 689 0 l 111 0 l 111 972 m 178 -126 l 622 -126 l 622 -225 l 178 -225 l 178 -126 z "},"Ł":{"ha":696,"x_min":14,"x_max":689,"o":"m 689 119 l 689 0 l 111 0 l 111 529 l 14 503 l 14 596 l 111 622 l 111 972 l 243 972 l 243 658 l 536 738 l 536 644 l 243 565 l 243 119 l 689 119 z "},"M":{"ha":1128,"x_min":67,"x_max":1061,"o":"m 197 972 l 310 972 l 565 490 l 818 972 l 932 972 l 1061 0 l 922 0 l 831 735 l 567 231 l 297 735 l 206 0 l 67 0 l 197 972 z "},"Ṃ":{"ha":1128,"x_min":67,"x_max":1061,"o":"m 197 972 l 310 972 l 565 490 l 818 972 l 932 972 l 1061 0 l 922 0 l 831 735 l 567 231 l 297 735 l 206 0 l 67 0 l 197 972 m 497 -112 l 631 -112 l 631 -237 l 497 -237 l 497 -112 z "},"N":{"ha":978,"x_min":111,"x_max":867,"o":"m 111 972 l 254 972 l 733 244 l 733 972 l 867 972 l 867 0 l 754 0 l 243 768 l 243 0 l 111 0 l 111 972 z "},"Ǌ":{"ha":1332,"x_min":111,"x_max":1221,"o":"m 111 972 l 254 972 l 733 244 l 733 972 l 867 972 l 867 0 l 754 0 l 243 768 l 243 0 l 111 0 l 111 972 m 950 -125 q 1057 -93 1025 -125 q 1089 11 1089 -61 l 1089 972 l 1221 972 l 1221 -19 q 1167 -186 1221 -133 q 1004 -239 1114 -239 l 968 -239 l 950 -125 z "},"Ń":{"ha":978,"x_min":111,"x_max":867,"o":"m 111 972 l 254 972 l 733 244 l 733 972 l 867 972 l 867 0 l 754 0 l 243 768 l 243 0 l 111 0 l 111 972 m 365 1142 l 625 1274 l 625 1142 l 365 1061 l 365 1142 z "},"Ň":{"ha":978,"x_min":111,"x_max":867,"o":"m 111 972 l 254 972 l 733 244 l 733 972 l 867 972 l 867 0 l 754 0 l 243 768 l 243 0 l 111 0 l 111 972 m 318 1207 l 318 1292 l 494 1200 l 671 1292 l 671 1207 l 494 1082 l 318 1207 z "},"Ņ":{"ha":978,"x_min":111,"x_max":867,"o":"m 111 972 l 254 972 l 733 244 l 733 972 l 867 972 l 867 0 l 754 0 l 243 768 l 243 0 l 111 0 l 111 972 m 424 -422 l 474 -274 l 425 -274 l 425 -126 l 575 -126 l 575 -260 l 503 -422 l 424 -422 z "},"Ṅ":{"ha":978,"x_min":111,"x_max":867,"o":"m 111 972 l 254 972 l 733 244 l 733 972 l 867 972 l 867 0 l 754 0 l 243 768 l 243 0 l 111 0 l 111 972 m 428 1224 l 561 1224 l 561 1099 l 428 1099 l 428 1224 z "},"Ṇ":{"ha":978,"x_min":111,"x_max":867,"o":"m 111 972 l 254 972 l 733 244 l 733 972 l 867 972 l 867 0 l 754 0 l 243 768 l 243 0 l 111 0 l 111 972 m 432 -112 l 565 -112 l 565 -237 l 432 -237 l 432 -112 z "},"Ŋ":{"ha":985,"x_min":111,"x_max":896,"o":"m 896 69 q 807 -174 896 -90 q 569 -257 718 -257 q 457 -242 511 -257 l 475 -125 q 578 -137 525 -137 q 713 -88 664 -137 q 763 56 763 -39 l 763 625 q 698 808 763 744 q 508 872 633 872 q 353 846 419 872 q 244 772 286 819 l 244 0 l 111 0 l 111 972 l 224 972 l 232 879 q 370 963 292 935 q 538 992 449 992 q 804 897 713 992 q 896 639 896 801 l 896 69 z "},"ǋ":{"ha":1260,"x_min":111,"x_max":1175,"o":"m 111 972 l 254 972 l 733 244 l 733 972 l 867 972 l 867 0 l 754 0 l 243 768 l 243 0 l 111 0 l 111 972 m 1050 972 l 1175 972 l 1175 833 l 1050 833 l 1050 972 m 949 -240 q 1013 -224 992 -236 q 1042 -185 1033 -212 q 1050 -101 1050 -157 l 1050 681 l 1175 681 l 1175 -149 q 1124 -277 1175 -236 q 1004 -329 1074 -318 l 963 -336 l 949 -240 z "},"Ṉ":{"ha":978,"x_min":111,"x_max":867,"o":"m 111 972 l 254 972 l 733 244 l 733 972 l 867 972 l 867 0 l 754 0 l 243 768 l 243 0 l 111 0 l 111 972 m 276 -126 l 721 -126 l 721 -225 l 276 -225 l 276 -126 z "},"Ñ":{"ha":978,"x_min":111,"x_max":867,"o":"m 111 972 l 254 972 l 733 244 l 733 972 l 867 972 l 867 0 l 754 0 l 243 768 l 243 0 l 111 0 l 111 972 m 610 1094 q 563 1102 588 1094 q 503 1125 538 1110 q 415 1151 442 1151 q 381 1138 393 1151 q 368 1101 368 1125 l 278 1101 q 304 1204 278 1168 q 379 1240 331 1240 q 426 1233 401 1240 q 486 1210 451 1225 q 574 1183 547 1183 q 608 1197 596 1183 q 621 1233 621 1210 l 711 1233 q 685 1131 711 1167 q 610 1094 658 1094 z "},"O":{"ha":1069,"x_min":56,"x_max":1014,"o":"m 535 -19 q 287 43 396 -19 q 117 220 178 106 q 56 486 56 335 q 117 752 56 638 q 287 929 178 867 q 535 992 396 992 q 783 929 674 992 q 953 752 892 867 q 1014 486 1014 638 q 953 220 1014 335 q 783 43 892 106 q 535 -19 674 -19 m 535 108 q 719 158 643 108 q 834 292 796 207 q 872 486 872 378 q 834 680 872 594 q 719 815 796 765 q 535 864 643 864 q 350 815 426 864 q 235 680 274 765 q 197 486 197 594 q 235 292 197 378 q 350 158 274 207 q 535 108 426 108 z "},"Ó":{"ha":1069,"x_min":56,"x_max":1014,"o":"m 535 -19 q 287 43 396 -19 q 117 220 178 106 q 56 486 56 335 q 117 752 56 638 q 287 929 178 867 q 535 992 396 992 q 783 929 674 992 q 953 752 892 867 q 1014 486 1014 638 q 953 220 1014 335 q 783 43 892 106 q 535 -19 674 -19 m 535 108 q 719 158 643 108 q 834 292 796 207 q 872 486 872 378 q 834 680 872 594 q 719 815 796 765 q 535 864 643 864 q 350 815 426 864 q 235 680 274 765 q 197 486 197 594 q 235 292 197 378 q 350 158 274 207 q 535 108 426 108 m 406 1142 l 665 1274 l 665 1142 l 406 1061 l 406 1142 z "},"Ŏ":{"ha":1069,"x_min":56,"x_max":1014,"o":"m 535 -19 q 287 43 396 -19 q 117 220 178 106 q 56 486 56 335 q 117 752 56 638 q 287 929 178 867 q 535 992 396 992 q 783 929 674 992 q 953 752 892 867 q 1014 486 1014 638 q 953 220 1014 335 q 783 43 892 106 q 535 -19 674 -19 m 535 108 q 719 158 643 108 q 834 292 796 207 q 872 486 872 378 q 834 680 872 594 q 719 815 796 765 q 535 864 643 864 q 350 815 426 864 q 235 680 274 765 q 197 486 197 594 q 235 292 197 378 q 350 158 274 207 q 535 108 426 108 m 535 1061 q 384 1110 436 1061 q 332 1228 332 1158 l 443 1228 q 469 1168 443 1189 q 535 1147 494 1147 q 601 1168 575 1147 q 626 1228 626 1189 l 738 1228 q 685 1110 738 1158 q 535 1061 633 1061 z "},"Ô":{"ha":1069,"x_min":56,"x_max":1014,"o":"m 535 -19 q 287 43 396 -19 q 117 220 178 106 q 56 486 56 335 q 117 752 56 638 q 287 929 178 867 q 535 992 396 992 q 783 929 674 992 q 953 752 892 867 q 1014 486 1014 638 q 953 220 1014 335 q 783 43 892 106 q 535 -19 674 -19 m 535 108 q 719 158 643 108 q 834 292 796 207 q 872 486 872 378 q 834 680 872 594 q 719 815 796 765 q 535 864 643 864 q 350 815 426 864 q 235 680 274 765 q 197 486 197 594 q 235 292 197 378 q 350 158 274 207 q 535 108 426 108 m 711 1131 l 711 1046 l 535 1138 l 358 1046 l 358 1131 l 535 1256 l 711 1131 z "},"Ố":{"ha":1069,"x_min":56,"x_max":1014,"o":"m 535 -19 q 287 43 396 -19 q 117 220 178 106 q 56 486 56 335 q 117 752 56 638 q 287 929 178 867 q 535 992 396 992 q 783 929 674 992 q 953 752 892 867 q 1014 486 1014 638 q 953 220 1014 335 q 783 43 892 106 q 535 -19 674 -19 m 535 108 q 719 158 643 108 q 834 292 796 207 q 872 486 872 378 q 834 680 872 594 q 719 815 796 765 q 535 864 643 864 q 350 815 426 864 q 235 680 274 765 q 197 486 197 594 q 235 292 197 378 q 350 158 274 207 q 535 108 426 108 m 731 1411 l 867 1411 l 731 1249 l 639 1249 l 731 1411 m 711 1131 l 711 1046 l 535 1138 l 358 1046 l 358 1131 l 535 1256 l 711 1131 z "},"Ộ":{"ha":1069,"x_min":56,"x_max":1014,"o":"m 535 -19 q 287 43 396 -19 q 117 220 178 106 q 56 486 56 335 q 117 752 56 638 q 287 929 178 867 q 535 992 396 992 q 783 929 674 992 q 953 752 892 867 q 1014 486 1014 638 q 953 220 1014 335 q 783 43 892 106 q 535 -19 674 -19 m 535 108 q 719 158 643 108 q 834 292 796 207 q 872 486 872 378 q 834 680 872 594 q 719 815 796 765 q 535 864 643 864 q 350 815 426 864 q 235 680 274 765 q 197 486 197 594 q 235 292 197 378 q 350 158 274 207 q 535 108 426 108 m 358 1160 l 535 1313 l 711 1160 l 711 1075 l 535 1186 l 358 1075 l 358 1160 m 468 -112 l 601 -112 l 601 -237 l 468 -237 l 468 -112 z "},"Ồ":{"ha":1069,"x_min":56,"x_max":1014,"o":"m 535 -19 q 287 43 396 -19 q 117 220 178 106 q 56 486 56 335 q 117 752 56 638 q 287 929 178 867 q 535 992 396 992 q 783 929 674 992 q 953 752 892 867 q 1014 486 1014 638 q 953 220 1014 335 q 783 43 892 106 q 535 -19 674 -19 m 535 108 q 719 158 643 108 q 834 292 796 207 q 872 486 872 378 q 834 680 872 594 q 719 815 796 765 q 535 864 643 864 q 350 815 426 864 q 235 680 274 765 q 197 486 197 594 q 235 292 197 378 q 350 158 274 207 q 535 108 426 108 m 658 1249 l 538 1411 l 669 1411 l 747 1249 l 658 1249 m 711 1131 l 711 1046 l 535 1138 l 358 1046 l 358 1131 l 535 1256 l 711 1131 z "},"Ổ":{"ha":1069,"x_min":56,"x_max":1014,"o":"m 535 -19 q 287 43 396 -19 q 117 220 178 106 q 56 486 56 335 q 117 752 56 638 q 287 929 178 867 q 535 992 396 992 q 783 929 674 992 q 953 752 892 867 q 1014 486 1014 638 q 953 220 1014 335 q 783 43 892 106 q 535 -19 674 -19 m 535 108 q 719 158 643 108 q 834 292 796 207 q 872 486 872 378 q 834 680 872 594 q 719 815 796 765 q 535 864 643 864 q 350 815 426 864 q 235 680 274 765 q 197 486 197 594 q 235 292 197 378 q 350 158 274 207 q 535 108 426 108 m 711 1131 l 711 1046 l 535 1138 l 358 1046 l 358 1131 l 535 1256 l 711 1131 m 656 1267 q 704 1321 704 1283 q 647 1365 704 1365 q 560 1339 610 1365 l 536 1410 q 647 1436 585 1436 q 746 1408 707 1436 q 785 1329 785 1379 q 757 1253 785 1282 q 668 1211 729 1225 l 656 1267 z "},"Ỗ":{"ha":1069,"x_min":56,"x_max":1014,"o":"m 535 -19 q 287 43 396 -19 q 117 220 178 106 q 56 486 56 335 q 117 752 56 638 q 287 929 178 867 q 535 992 396 992 q 783 929 674 992 q 953 752 892 867 q 1014 486 1014 638 q 953 220 1014 335 q 783 43 892 106 q 535 -19 674 -19 m 535 108 q 719 158 643 108 q 834 292 796 207 q 872 486 872 378 q 834 680 872 594 q 719 815 796 765 q 535 864 643 864 q 350 815 426 864 q 235 680 274 765 q 197 486 197 594 q 235 292 197 378 q 350 158 274 207 q 535 108 426 108 m 711 1131 l 711 1046 l 535 1138 l 358 1046 l 358 1131 l 535 1256 l 711 1131 m 650 1313 q 603 1320 628 1313 q 543 1343 578 1328 q 456 1369 482 1369 q 421 1356 433 1369 q 408 1319 408 1343 l 318 1319 q 344 1422 318 1386 q 419 1458 371 1458 q 467 1451 442 1458 q 526 1428 492 1443 q 614 1401 588 1401 q 649 1415 636 1401 q 661 1451 661 1428 l 751 1451 q 725 1349 751 1385 q 650 1313 699 1313 z "},"Ȍ":{"ha":1069,"x_min":56,"x_max":1014,"o":"m 535 -19 q 287 43 396 -19 q 117 220 178 106 q 56 486 56 335 q 117 752 56 638 q 287 929 178 867 q 535 992 396 992 q 783 929 674 992 q 953 752 892 867 q 1014 486 1014 638 q 953 220 1014 335 q 783 43 892 106 q 535 -19 674 -19 m 535 108 q 719 158 643 108 q 834 292 796 207 q 872 486 872 378 q 834 680 872 594 q 719 815 796 765 q 535 864 643 864 q 350 815 426 864 q 235 680 274 765 q 197 486 197 594 q 235 292 197 378 q 350 158 274 207 q 535 108 426 108 m 393 1094 l 261 1299 l 397 1299 l 485 1094 l 393 1094 m 588 1094 l 463 1299 l 599 1299 l 679 1094 l 588 1094 z "},"Ö":{"ha":1069,"x_min":56,"x_max":1014,"o":"m 535 -19 q 287 43 396 -19 q 117 220 178 106 q 56 486 56 335 q 117 752 56 638 q 287 929 178 867 q 535 992 396 992 q 783 929 674 992 q 953 752 892 867 q 1014 486 1014 638 q 953 220 1014 335 q 783 43 892 106 q 535 -19 674 -19 m 535 108 q 719 158 643 108 q 834 292 796 207 q 872 486 872 378 q 834 680 872 594 q 719 815 796 765 q 535 864 643 864 q 350 815 426 864 q 235 680 274 765 q 197 486 197 594 q 235 292 197 378 q 350 158 274 207 q 535 108 426 108 m 342 1207 l 461 1207 l 461 1103 l 342 1103 l 342 1207 m 608 1207 l 728 1207 l 728 1103 l 608 1103 l 608 1207 z "},"Ȫ":{"ha":1069,"x_min":56,"x_max":1014,"o":"m 535 -19 q 287 43 396 -19 q 117 220 178 106 q 56 486 56 335 q 117 752 56 638 q 287 929 178 867 q 535 992 396 992 q 783 929 674 992 q 953 752 892 867 q 1014 486 1014 638 q 953 220 1014 335 q 783 43 892 106 q 535 -19 674 -19 m 535 108 q 719 158 643 108 q 834 292 796 207 q 872 486 872 378 q 834 680 872 594 q 719 815 796 765 q 535 864 643 864 q 350 815 426 864 q 235 680 274 765 q 197 486 197 594 q 235 292 197 378 q 350 158 274 207 q 535 108 426 108 m 342 1207 l 461 1207 l 461 1103 l 342 1103 l 342 1207 m 608 1207 l 728 1207 l 728 1103 l 608 1103 l 608 1207 m 313 1418 l 757 1418 l 757 1324 l 313 1324 l 313 1418 z "},"Ȱ":{"ha":1069,"x_min":56,"x_max":1014,"o":"m 535 -19 q 287 43 396 -19 q 117 220 178 106 q 56 486 56 335 q 117 752 56 638 q 287 929 178 867 q 535 992 396 992 q 783 929 674 992 q 953 752 892 867 q 1014 486 1014 638 q 953 220 1014 335 q 783 43 892 106 q 535 -19 674 -19 m 535 108 q 719 158 643 108 q 834 292 796 207 q 872 486 872 378 q 834 680 872 594 q 719 815 796 765 q 535 864 643 864 q 350 815 426 864 q 235 680 274 765 q 197 486 197 594 q 235 292 197 378 q 350 158 274 207 q 535 108 426 108 m 468 1224 l 601 1224 l 601 1099 l 468 1099 l 468 1224 m 313 1426 l 757 1426 l 757 1332 l 313 1332 l 313 1426 z "},"Ọ":{"ha":1069,"x_min":56,"x_max":1014,"o":"m 535 -19 q 287 43 396 -19 q 117 220 178 106 q 56 486 56 335 q 117 752 56 638 q 287 929 178 867 q 535 992 396 992 q 783 929 674 992 q 953 752 892 867 q 1014 486 1014 638 q 953 220 1014 335 q 783 43 892 106 q 535 -19 674 -19 m 535 108 q 719 158 643 108 q 834 292 796 207 q 872 486 872 378 q 834 680 872 594 q 719 815 796 765 q 535 864 643 864 q 350 815 426 864 q 235 680 274 765 q 197 486 197 594 q 235 292 197 378 q 350 158 274 207 q 535 108 426 108 m 468 -112 l 601 -112 l 601 -237 l 468 -237 l 468 -112 z "},"Ò":{"ha":1069,"x_min":56,"x_max":1014,"o":"m 535 -19 q 287 43 396 -19 q 117 220 178 106 q 56 486 56 335 q 117 752 56 638 q 287 929 178 867 q 535 992 396 992 q 783 929 674 992 q 953 752 892 867 q 1014 486 1014 638 q 953 220 1014 335 q 783 43 892 106 q 535 -19 674 -19 m 535 108 q 719 158 643 108 q 834 292 796 207 q 872 486 872 378 q 834 680 872 594 q 719 815 796 765 q 535 864 643 864 q 350 815 426 864 q 235 680 274 765 q 197 486 197 594 q 235 292 197 378 q 350 158 274 207 q 535 108 426 108 m 404 1142 l 404 1274 l 664 1142 l 664 1061 l 404 1142 z "},"Ỏ":{"ha":1069,"x_min":56,"x_max":1014,"o":"m 535 -19 q 287 43 396 -19 q 117 220 178 106 q 56 486 56 335 q 117 752 56 638 q 287 929 178 867 q 535 992 396 992 q 783 929 674 992 q 953 752 892 867 q 1014 486 1014 638 q 953 220 1014 335 q 783 43 892 106 q 535 -19 674 -19 m 535 108 q 719 158 643 108 q 834 292 796 207 q 872 486 872 378 q 834 680 872 594 q 719 815 796 765 q 535 864 643 864 q 350 815 426 864 q 235 680 274 765 q 197 486 197 594 q 235 292 197 378 q 350 158 274 207 q 535 108 426 108 m 521 1111 q 569 1165 569 1128 q 513 1210 569 1210 q 425 1183 475 1210 l 401 1254 q 513 1281 450 1281 q 611 1252 572 1281 q 650 1174 650 1224 q 622 1098 650 1126 q 533 1056 594 1069 l 521 1111 z "},"Ơ":{"ha":1069,"x_min":56,"x_max":1014,"o":"m 803 917 q 958 741 903 851 q 1014 486 1014 631 q 953 220 1014 335 q 783 43 892 106 q 535 -19 674 -19 q 287 43 396 -19 q 117 220 178 106 q 56 486 56 335 q 117 752 56 638 q 287 929 178 867 q 535 992 396 992 q 678 972 608 992 q 751 1000 726 975 q 776 1075 776 1025 l 896 1075 q 871 986 896 1028 q 803 917 846 944 m 535 108 q 719 158 643 108 q 834 292 796 207 q 872 486 872 378 q 834 680 872 594 q 719 815 796 765 q 535 864 643 864 q 350 815 426 864 q 235 680 274 765 q 197 486 197 594 q 235 292 197 378 q 350 158 274 207 q 535 108 426 108 z "},"Ớ":{"ha":1069,"x_min":56,"x_max":1014,"o":"m 803 917 q 958 741 903 851 q 1014 486 1014 631 q 953 220 1014 335 q 783 43 892 106 q 535 -19 674 -19 q 287 43 396 -19 q 117 220 178 106 q 56 486 56 335 q 117 752 56 638 q 287 929 178 867 q 535 992 396 992 q 678 972 608 992 q 751 1000 726 975 q 776 1075 776 1025 l 896 1075 q 871 986 896 1028 q 803 917 846 944 m 535 108 q 719 158 643 108 q 834 292 796 207 q 872 486 872 378 q 834 680 872 594 q 719 815 796 765 q 535 864 643 864 q 350 815 426 864 q 235 680 274 765 q 197 486 197 594 q 235 292 197 378 q 350 158 274 207 q 535 108 426 108 m 406 1176 l 665 1329 l 665 1193 l 406 1092 l 406 1176 z "},"Ợ":{"ha":1069,"x_min":56,"x_max":1014,"o":"m 803 917 q 958 741 903 851 q 1014 486 1014 631 q 953 220 1014 335 q 783 43 892 106 q 535 -19 674 -19 q 287 43 396 -19 q 117 220 178 106 q 56 486 56 335 q 117 752 56 638 q 287 929 178 867 q 535 992 396 992 q 678 972 608 992 q 751 1000 726 975 q 776 1075 776 1025 l 896 1075 q 871 986 896 1028 q 803 917 846 944 m 535 108 q 719 158 643 108 q 834 292 796 207 q 872 486 872 378 q 834 680 872 594 q 719 815 796 765 q 535 864 643 864 q 350 815 426 864 q 235 680 274 765 q 197 486 197 594 q 235 292 197 378 q 350 158 274 207 q 535 108 426 108 m 468 -112 l 601 -112 l 601 -237 l 468 -237 l 468 -112 z "},"Ờ":{"ha":1069,"x_min":56,"x_max":1014,"o":"m 803 917 q 958 741 903 851 q 1014 486 1014 631 q 953 220 1014 335 q 783 43 892 106 q 535 -19 674 -19 q 287 43 396 -19 q 117 220 178 106 q 56 486 56 335 q 117 752 56 638 q 287 929 178 867 q 535 992 396 992 q 678 972 608 992 q 751 1000 726 975 q 776 1075 776 1025 l 896 1075 q 871 986 896 1028 q 803 917 846 944 m 535 108 q 719 158 643 108 q 834 292 796 207 q 872 486 872 378 q 834 680 872 594 q 719 815 796 765 q 535 864 643 864 q 350 815 426 864 q 235 680 274 765 q 197 486 197 594 q 235 292 197 378 q 350 158 274 207 q 535 108 426 108 m 404 1193 l 404 1329 l 664 1176 l 664 1092 l 404 1193 z "},"Ở":{"ha":1069,"x_min":56,"x_max":1014,"o":"m 803 917 q 958 741 903 851 q 1014 486 1014 631 q 953 220 1014 335 q 783 43 892 106 q 535 -19 674 -19 q 287 43 396 -19 q 117 220 178 106 q 56 486 56 335 q 117 752 56 638 q 287 929 178 867 q 535 992 396 992 q 678 972 608 992 q 751 1000 726 975 q 776 1075 776 1025 l 896 1075 q 871 986 896 1028 q 803 917 846 944 m 535 108 q 719 158 643 108 q 834 292 796 207 q 872 486 872 378 q 834 680 872 594 q 719 815 796 765 q 535 864 643 864 q 350 815 426 864 q 235 680 274 765 q 197 486 197 594 q 235 292 197 378 q 350 158 274 207 q 535 108 426 108 m 521 1111 q 569 1165 569 1128 q 513 1210 569 1210 q 425 1183 475 1210 l 401 1254 q 513 1281 450 1281 q 611 1252 572 1281 q 650 1174 650 1224 q 622 1098 650 1126 q 533 1056 594 1069 l 521 1111 z "},"Ỡ":{"ha":1069,"x_min":56,"x_max":1014,"o":"m 803 917 q 958 741 903 851 q 1014 486 1014 631 q 953 220 1014 335 q 783 43 892 106 q 535 -19 674 -19 q 287 43 396 -19 q 117 220 178 106 q 56 486 56 335 q 117 752 56 638 q 287 929 178 867 q 535 992 396 992 q 678 972 608 992 q 751 1000 726 975 q 776 1075 776 1025 l 896 1075 q 871 986 896 1028 q 803 917 846 944 m 535 108 q 719 158 643 108 q 834 292 796 207 q 872 486 872 378 q 834 680 872 594 q 719 815 796 765 q 535 864 643 864 q 350 815 426 864 q 235 680 274 765 q 197 486 197 594 q 235 292 197 378 q 350 158 274 207 q 535 108 426 108 m 646 1097 q 599 1106 622 1097 q 543 1132 575 1115 q 492 1155 511 1147 q 456 1163 474 1163 q 421 1148 433 1163 q 408 1108 408 1133 l 304 1108 q 338 1223 307 1183 q 424 1263 368 1263 q 471 1253 447 1263 q 526 1228 494 1244 q 577 1205 558 1213 q 614 1197 596 1197 q 649 1212 636 1197 q 661 1251 661 1226 l 765 1251 q 732 1137 763 1176 q 646 1097 701 1097 z "},"Ő":{"ha":1069,"x_min":56,"x_max":1014,"o":"m 535 -19 q 287 43 396 -19 q 117 220 178 106 q 56 486 56 335 q 117 752 56 638 q 287 929 178 867 q 535 992 396 992 q 783 929 674 992 q 953 752 892 867 q 1014 486 1014 638 q 953 220 1014 335 q 783 43 892 106 q 535 -19 674 -19 m 535 108 q 719 158 643 108 q 834 292 796 207 q 872 486 872 378 q 834 680 872 594 q 719 815 796 765 q 535 864 643 864 q 350 815 426 864 q 235 680 274 765 q 197 486 197 594 q 235 292 197 378 q 350 158 274 207 q 535 108 426 108 m 482 1299 l 618 1299 l 482 1094 l 390 1094 l 482 1299 m 683 1299 l 819 1299 l 676 1094 l 585 1094 l 683 1299 z "},"Ȏ":{"ha":1069,"x_min":56,"x_max":1014,"o":"m 535 -19 q 287 43 396 -19 q 117 220 178 106 q 56 486 56 335 q 117 752 56 638 q 287 929 178 867 q 535 992 396 992 q 783 929 674 992 q 953 752 892 867 q 1014 486 1014 638 q 953 220 1014 335 q 783 43 892 106 q 535 -19 674 -19 m 535 108 q 719 158 643 108 q 834 292 796 207 q 872 486 872 378 q 834 680 872 594 q 719 815 796 765 q 535 864 643 864 q 350 815 426 864 q 235 680 274 765 q 197 486 197 594 q 235 292 197 378 q 350 158 274 207 q 535 108 426 108 m 535 1249 q 685 1200 633 1249 q 738 1082 738 1151 l 626 1082 q 601 1142 626 1121 q 535 1163 575 1163 q 469 1142 494 1163 q 443 1082 443 1121 l 332 1082 q 384 1200 332 1151 q 535 1249 436 1249 z "},"Ō":{"ha":1069,"x_min":56,"x_max":1014,"o":"m 535 -19 q 287 43 396 -19 q 117 220 178 106 q 56 486 56 335 q 117 752 56 638 q 287 929 178 867 q 535 992 396 992 q 783 929 674 992 q 953 752 892 867 q 1014 486 1014 638 q 953 220 1014 335 q 783 43 892 106 q 535 -19 674 -19 m 535 108 q 719 158 643 108 q 834 292 796 207 q 872 486 872 378 q 834 680 872 594 q 719 815 796 765 q 535 864 643 864 q 350 815 426 864 q 235 680 274 765 q 197 486 197 594 q 235 292 197 378 q 350 158 274 207 q 535 108 426 108 m 313 1196 l 757 1196 l 757 1101 l 313 1101 l 313 1196 z "},"Ṓ":{"ha":1069,"x_min":56,"x_max":1014,"o":"m 535 -19 q 287 43 396 -19 q 117 220 178 106 q 56 486 56 335 q 117 752 56 638 q 287 929 178 867 q 535 992 396 992 q 783 929 674 992 q 953 752 892 867 q 1014 486 1014 638 q 953 220 1014 335 q 783 43 892 106 q 535 -19 674 -19 m 535 108 q 719 158 643 108 q 834 292 796 207 q 872 486 872 378 q 834 680 872 594 q 719 815 796 765 q 535 864 643 864 q 350 815 426 864 q 235 680 274 765 q 197 486 197 594 q 235 292 197 378 q 350 158 274 207 q 535 108 426 108 m 313 1196 l 757 1196 l 757 1101 l 313 1101 l 313 1196 m 406 1381 l 665 1513 l 665 1381 l 406 1300 l 406 1381 z "},"Ṑ":{"ha":1069,"x_min":56,"x_max":1014,"o":"m 535 -19 q 287 43 396 -19 q 117 220 178 106 q 56 486 56 335 q 117 752 56 638 q 287 929 178 867 q 535 992 396 992 q 783 929 674 992 q 953 752 892 867 q 1014 486 1014 638 q 953 220 1014 335 q 783 43 892 106 q 535 -19 674 -19 m 535 108 q 719 158 643 108 q 834 292 796 207 q 872 486 872 378 q 834 680 872 594 q 719 815 796 765 q 535 864 643 864 q 350 815 426 864 q 235 680 274 765 q 197 486 197 594 q 235 292 197 378 q 350 158 274 207 q 535 108 426 108 m 313 1196 l 757 1196 l 757 1101 l 313 1101 l 313 1196 m 404 1381 l 404 1513 l 664 1381 l 664 1300 l 404 1381 z "},"Ǫ":{"ha":1069,"x_min":56,"x_max":1014,"o":"m 632 -11 q 562 -81 586 -49 q 538 -147 538 -114 q 556 -200 538 -182 q 604 -218 574 -218 q 692 -194 649 -218 l 713 -262 q 597 -289 663 -289 q 497 -258 536 -289 q 457 -169 457 -226 q 481 -87 457 -126 q 543 -19 506 -47 l 535 -19 q 287 43 396 -19 q 117 220 178 106 q 56 486 56 335 q 117 752 56 638 q 287 929 178 867 q 535 992 396 992 q 783 929 674 992 q 953 752 892 867 q 1014 486 1014 638 q 966 247 1014 353 q 832 76 918 142 q 632 -11 746 10 m 197 486 q 235 292 197 378 q 350 158 274 207 q 535 108 426 108 q 719 158 643 108 q 834 292 796 207 q 872 486 872 378 q 834 680 872 594 q 719 815 796 765 q 535 864 643 864 q 350 815 426 864 q 235 680 274 765 q 197 486 197 594 z "},"Ø":{"ha":1069,"x_min":56,"x_max":1014,"o":"m 861 871 q 974 706 935 804 q 1014 486 1014 607 q 953 220 1014 335 q 783 43 892 106 q 535 -19 674 -19 q 293 40 400 -19 l 224 -61 l 97 -61 l 208 101 q 95 267 135 168 q 56 486 56 365 q 117 752 56 638 q 287 929 178 867 q 535 992 396 992 q 776 932 669 992 l 846 1033 l 972 1033 l 861 871 m 197 486 q 219 334 197 404 q 286 214 242 264 l 703 824 q 535 864 631 864 q 350 815 426 864 q 235 680 274 765 q 197 486 197 594 m 535 108 q 719 158 643 108 q 834 292 796 207 q 872 486 872 378 q 850 638 872 568 q 783 758 828 708 l 367 149 q 535 108 439 108 z "},"Ǿ":{"ha":1069,"x_min":56,"x_max":1014,"o":"m 861 871 q 974 706 935 804 q 1014 486 1014 607 q 953 220 1014 335 q 783 43 892 106 q 535 -19 674 -19 q 293 40 400 -19 l 224 -61 l 97 -61 l 208 101 q 95 267 135 168 q 56 486 56 365 q 117 752 56 638 q 287 929 178 867 q 535 992 396 992 q 776 932 669 992 l 846 1033 l 972 1033 l 861 871 m 197 486 q 219 334 197 404 q 286 214 242 264 l 703 824 q 535 864 631 864 q 350 815 426 864 q 235 680 274 765 q 197 486 197 594 m 535 108 q 719 158 643 108 q 834 292 796 207 q 872 486 872 378 q 850 638 872 568 q 783 758 828 708 l 367 149 q 535 108 439 108 m 404 1176 l 664 1329 l 664 1193 l 404 1092 l 404 1176 z "},"Õ":{"ha":1069,"x_min":56,"x_max":1014,"o":"m 535 -19 q 287 43 396 -19 q 117 220 178 106 q 56 486 56 335 q 117 752 56 638 q 287 929 178 867 q 535 992 396 992 q 783 929 674 992 q 953 752 892 867 q 1014 486 1014 638 q 953 220 1014 335 q 783 43 892 106 q 535 -19 674 -19 m 535 108 q 719 158 643 108 q 834 292 796 207 q 872 486 872 378 q 834 680 872 594 q 719 815 796 765 q 535 864 643 864 q 350 815 426 864 q 235 680 274 765 q 197 486 197 594 q 235 292 197 378 q 350 158 274 207 q 535 108 426 108 m 650 1094 q 603 1102 628 1094 q 543 1125 578 1110 q 456 1151 482 1151 q 421 1138 433 1151 q 408 1101 408 1125 l 318 1101 q 344 1204 318 1168 q 419 1240 371 1240 q 467 1233 442 1240 q 526 1210 492 1225 q 614 1183 588 1183 q 649 1197 636 1183 q 661 1233 661 1210 l 751 1233 q 725 1131 751 1167 q 650 1094 699 1094 z "},"Ṍ":{"ha":1069,"x_min":56,"x_max":1014,"o":"m 535 -19 q 287 43 396 -19 q 117 220 178 106 q 56 486 56 335 q 117 752 56 638 q 287 929 178 867 q 535 992 396 992 q 783 929 674 992 q 953 752 892 867 q 1014 486 1014 638 q 953 220 1014 335 q 783 43 892 106 q 535 -19 674 -19 m 535 108 q 719 158 643 108 q 834 292 796 207 q 872 486 872 378 q 834 680 872 594 q 719 815 796 765 q 535 864 643 864 q 350 815 426 864 q 235 680 274 765 q 197 486 197 594 q 235 292 197 378 q 350 158 274 207 q 535 108 426 108 m 650 1094 q 603 1102 628 1094 q 543 1125 578 1110 q 456 1151 482 1151 q 421 1138 433 1151 q 408 1101 408 1125 l 318 1101 q 344 1204 318 1168 q 419 1240 371 1240 q 467 1233 442 1240 q 526 1210 492 1225 q 614 1183 588 1183 q 649 1197 636 1183 q 661 1233 661 1210 l 751 1233 q 725 1131 751 1167 q 650 1094 699 1094 m 406 1386 l 665 1518 l 665 1386 l 406 1306 l 406 1386 z "},"Ṏ":{"ha":1069,"x_min":56,"x_max":1014,"o":"m 535 -19 q 287 43 396 -19 q 117 220 178 106 q 56 486 56 335 q 117 752 56 638 q 287 929 178 867 q 535 992 396 992 q 783 929 674 992 q 953 752 892 867 q 1014 486 1014 638 q 953 220 1014 335 q 783 43 892 106 q 535 -19 674 -19 m 535 108 q 719 158 643 108 q 834 292 796 207 q 872 486 872 378 q 834 680 872 594 q 719 815 796 765 q 535 864 643 864 q 350 815 426 864 q 235 680 274 765 q 197 486 197 594 q 235 292 197 378 q 350 158 274 207 q 535 108 426 108 m 650 1094 q 603 1102 628 1094 q 543 1125 578 1110 q 456 1151 482 1151 q 421 1138 433 1151 q 408 1101 408 1125 l 318 1101 q 344 1204 318 1168 q 419 1240 371 1240 q 467 1233 442 1240 q 526 1210 492 1225 q 614 1183 588 1183 q 649 1197 636 1183 q 661 1233 661 1210 l 751 1233 q 725 1131 751 1167 q 650 1094 699 1094 m 342 1451 l 461 1451 l 461 1347 l 342 1347 l 342 1451 m 608 1451 l 728 1451 l 728 1347 l 608 1347 l 608 1451 z "},"Ȭ":{"ha":1069,"x_min":56,"x_max":1014,"o":"m 535 -19 q 287 43 396 -19 q 117 220 178 106 q 56 486 56 335 q 117 752 56 638 q 287 929 178 867 q 535 992 396 992 q 783 929 674 992 q 953 752 892 867 q 1014 486 1014 638 q 953 220 1014 335 q 783 43 892 106 q 535 -19 674 -19 m 535 108 q 719 158 643 108 q 834 292 796 207 q 872 486 872 378 q 834 680 872 594 q 719 815 796 765 q 535 864 643 864 q 350 815 426 864 q 235 680 274 765 q 197 486 197 594 q 235 292 197 378 q 350 158 274 207 q 535 108 426 108 m 650 1094 q 603 1102 628 1094 q 543 1125 578 1110 q 456 1151 482 1151 q 421 1138 433 1151 q 408 1101 408 1125 l 318 1101 q 344 1204 318 1168 q 419 1240 371 1240 q 467 1233 442 1240 q 526 1210 492 1225 q 614 1183 588 1183 q 649 1197 636 1183 q 661 1233 661 1210 l 751 1233 q 725 1131 751 1167 q 650 1094 699 1094 m 313 1440 l 757 1440 l 757 1346 l 313 1346 l 313 1440 z "},"Œ":{"ha":1488,"x_min":56,"x_max":1436,"o":"m 1436 119 l 1436 0 l 867 0 l 867 151 q 712 25 803 69 q 517 -19 621 -19 q 278 43 383 -19 q 115 220 174 106 q 56 486 56 335 q 115 752 56 638 q 278 929 174 867 q 517 992 383 992 q 712 947 621 992 q 867 821 803 903 l 867 971 l 1424 971 l 1424 853 l 993 853 l 993 568 l 1324 568 l 1324 449 l 993 449 l 993 119 l 1436 119 m 525 100 q 706 150 632 100 q 817 288 781 200 q 854 486 854 375 q 817 685 854 597 q 706 822 781 772 q 525 872 632 872 q 279 765 364 872 q 194 486 194 657 q 279 208 194 315 q 525 100 364 100 z "},"P":{"ha":794,"x_min":111,"x_max":761,"o":"m 111 972 l 432 972 q 674 897 588 972 q 761 657 761 821 q 674 418 761 496 q 432 340 586 340 l 250 340 l 250 0 l 111 0 l 111 972 m 413 458 q 572 507 519 458 q 625 656 625 556 q 574 806 625 757 q 413 854 524 854 l 250 854 l 250 458 l 413 458 z "},"Þ":{"ha":797,"x_min":111,"x_max":764,"o":"m 111 972 l 250 972 l 250 757 l 479 757 q 694 692 624 757 q 764 511 764 626 q 693 331 764 396 q 479 265 622 265 l 250 265 l 250 0 l 111 0 l 111 972 m 469 383 q 588 416 547 383 q 628 511 628 449 q 588 606 628 574 q 469 639 547 639 l 250 639 l 250 383 l 469 383 z "},"Q":{"ha":1069,"x_min":56,"x_max":1014,"o":"m 1014 486 q 985 297 1014 383 q 903 146 957 210 l 993 57 l 918 -19 l 825 71 q 535 -19 704 -19 q 287 43 396 -19 q 117 220 178 106 q 56 486 56 335 q 117 752 56 638 q 287 929 178 867 q 535 992 396 992 q 783 929 674 992 q 953 752 892 867 q 1014 486 1014 638 m 535 108 q 731 165 650 108 l 613 281 l 688 357 l 806 242 q 872 486 872 340 q 834 680 872 594 q 719 815 796 765 q 535 864 643 864 q 350 815 426 864 q 235 680 274 765 q 197 486 197 594 q 235 292 197 378 q 350 158 274 207 q 535 108 426 108 z "},"R":{"ha":838,"x_min":111,"x_max":811,"o":"m 111 972 l 426 972 q 674 899 585 972 q 763 676 763 826 q 593 403 763 482 l 811 0 l 650 0 l 453 379 l 250 379 l 250 0 l 111 0 l 111 972 m 425 497 q 574 544 522 497 q 625 676 625 592 q 574 808 625 761 q 425 854 524 854 l 250 854 l 250 497 l 425 497 z "},"Ŕ":{"ha":838,"x_min":111,"x_max":811,"o":"m 111 972 l 426 972 q 674 899 585 972 q 763 676 763 826 q 593 403 763 482 l 811 0 l 650 0 l 453 379 l 250 379 l 250 0 l 111 0 l 111 972 m 425 497 q 574 544 522 497 q 625 676 625 592 q 574 808 625 761 q 425 854 524 854 l 250 854 l 250 497 l 425 497 m 297 1142 l 557 1274 l 557 1142 l 297 1061 l 297 1142 z "},"Ř":{"ha":838,"x_min":111,"x_max":811,"o":"m 111 972 l 426 972 q 674 899 585 972 q 763 676 763 826 q 593 403 763 482 l 811 0 l 650 0 l 453 379 l 250 379 l 250 0 l 111 0 l 111 972 m 425 497 q 574 544 522 497 q 625 676 625 592 q 574 808 625 761 q 425 854 524 854 l 250 854 l 250 497 l 425 497 m 250 1207 l 250 1292 l 426 1200 l 603 1292 l 603 1207 l 426 1082 l 250 1207 z "},"Ŗ":{"ha":838,"x_min":111,"x_max":811,"o":"m 111 972 l 426 972 q 674 899 585 972 q 763 676 763 826 q 593 403 763 482 l 811 0 l 650 0 l 453 379 l 250 379 l 250 0 l 111 0 l 111 972 m 425 497 q 574 544 522 497 q 625 676 625 592 q 574 808 625 761 q 425 854 524 854 l 250 854 l 250 497 l 425 497 m 385 -422 l 435 -274 l 386 -274 l 386 -126 l 536 -126 l 536 -260 l 464 -422 l 385 -422 z "},"Ȑ":{"ha":838,"x_min":111,"x_max":811,"o":"m 111 972 l 426 972 q 674 899 585 972 q 763 676 763 826 q 593 403 763 482 l 811 0 l 650 0 l 453 379 l 250 379 l 250 0 l 111 0 l 111 972 m 425 497 q 574 544 522 497 q 625 676 625 592 q 574 808 625 761 q 425 854 524 854 l 250 854 l 250 497 l 425 497 m 285 1094 l 153 1299 l 289 1299 l 376 1094 l 285 1094 m 479 1094 l 354 1299 l 490 1299 l 571 1094 l 479 1094 z "},"Ṛ":{"ha":838,"x_min":111,"x_max":811,"o":"m 111 972 l 426 972 q 674 899 585 972 q 763 676 763 826 q 593 403 763 482 l 811 0 l 650 0 l 453 379 l 250 379 l 250 0 l 111 0 l 111 972 m 425 497 q 574 544 522 497 q 625 676 625 592 q 574 808 625 761 q 425 854 524 854 l 250 854 l 250 497 l 425 497 m 393 -112 l 526 -112 l 526 -237 l 393 -237 l 393 -112 z "},"Ȓ":{"ha":838,"x_min":111,"x_max":811,"o":"m 111 972 l 426 972 q 674 899 585 972 q 763 676 763 826 q 593 403 763 482 l 811 0 l 650 0 l 453 379 l 250 379 l 250 0 l 111 0 l 111 972 m 425 497 q 574 544 522 497 q 625 676 625 592 q 574 808 625 761 q 425 854 524 854 l 250 854 l 250 497 l 425 497 m 426 1249 q 577 1200 525 1249 q 629 1082 629 1151 l 518 1082 q 492 1142 518 1121 q 426 1163 467 1163 q 360 1142 386 1163 q 335 1082 335 1121 l 224 1082 q 276 1200 224 1151 q 426 1249 328 1249 z "},"Ṟ":{"ha":838,"x_min":111,"x_max":811,"o":"m 111 972 l 426 972 q 674 899 585 972 q 763 676 763 826 q 593 403 763 482 l 811 0 l 650 0 l 453 379 l 250 379 l 250 0 l 111 0 l 111 972 m 425 497 q 574 544 522 497 q 625 676 625 592 q 574 808 625 761 q 425 854 524 854 l 250 854 l 250 497 l 425 497 m 238 -126 l 682 -126 l 682 -225 l 238 -225 l 238 -126 z "},"S":{"ha":811,"x_min":71,"x_max":768,"o":"m 389 -19 q 214 -1 303 -19 q 71 43 125 18 l 89 183 q 246 125 158 150 q 419 100 333 100 q 570 135 517 100 q 624 242 624 171 q 597 330 624 294 q 517 390 569 365 q 372 442 465 414 q 215 501 278 469 q 115 589 153 533 q 76 729 76 644 q 167 919 76 847 q 424 992 258 992 q 592 972 513 992 q 732 925 672 953 l 718 785 q 568 851 640 831 q 418 872 496 872 q 274 839 328 872 q 221 736 221 806 q 245 658 221 689 q 315 606 269 628 q 443 560 361 585 q 688 441 607 510 q 768 251 768 372 q 672 52 768 124 q 389 -19 576 -19 z "},"Ś":{"ha":811,"x_min":71,"x_max":768,"o":"m 389 -19 q 214 -1 303 -19 q 71 43 125 18 l 89 183 q 246 125 158 150 q 419 100 333 100 q 570 135 517 100 q 624 242 624 171 q 597 330 624 294 q 517 390 569 365 q 372 442 465 414 q 215 501 278 469 q 115 589 153 533 q 76 729 76 644 q 167 919 76 847 q 424 992 258 992 q 592 972 513 992 q 732 925 672 953 l 718 785 q 568 851 640 831 q 418 872 496 872 q 274 839 328 872 q 221 736 221 806 q 245 658 221 689 q 315 606 269 628 q 443 560 361 585 q 688 441 607 510 q 768 251 768 372 q 672 52 768 124 q 389 -19 576 -19 m 310 1142 l 569 1274 l 569 1142 l 310 1061 l 310 1142 z "},"Ṥ":{"ha":811,"x_min":71,"x_max":768,"o":"m 389 -19 q 214 -1 303 -19 q 71 43 125 18 l 89 183 q 246 125 158 150 q 419 100 333 100 q 570 135 517 100 q 624 242 624 171 q 597 330 624 294 q 517 390 569 365 q 372 442 465 414 q 215 501 278 469 q 115 589 153 533 q 76 729 76 644 q 167 919 76 847 q 424 992 258 992 q 592 972 513 992 q 732 925 672 953 l 718 785 q 568 851 640 831 q 418 872 496 872 q 274 839 328 872 q 221 736 221 806 q 245 658 221 689 q 315 606 269 628 q 443 560 361 585 q 688 441 607 510 q 768 251 768 372 q 672 52 768 124 q 389 -19 576 -19 m 310 1142 l 569 1274 l 569 1142 l 310 1061 l 310 1142 m 372 1463 l 506 1463 l 506 1338 l 372 1338 l 372 1463 z "},"Š":{"ha":811,"x_min":71,"x_max":768,"o":"m 389 -19 q 214 -1 303 -19 q 71 43 125 18 l 89 183 q 246 125 158 150 q 419 100 333 100 q 570 135 517 100 q 624 242 624 171 q 597 330 624 294 q 517 390 569 365 q 372 442 465 414 q 215 501 278 469 q 115 589 153 533 q 76 729 76 644 q 167 919 76 847 q 424 992 258 992 q 592 972 513 992 q 732 925 672 953 l 718 785 q 568 851 640 831 q 418 872 496 872 q 274 839 328 872 q 221 736 221 806 q 245 658 221 689 q 315 606 269 628 q 443 560 361 585 q 688 441 607 510 q 768 251 768 372 q 672 52 768 124 q 389 -19 576 -19 m 263 1207 l 263 1292 l 439 1200 l 615 1292 l 615 1207 l 439 1082 l 263 1207 z "},"Ṧ":{"ha":811,"x_min":71,"x_max":768,"o":"m 389 -19 q 214 -1 303 -19 q 71 43 125 18 l 89 183 q 246 125 158 150 q 419 100 333 100 q 570 135 517 100 q 624 242 624 171 q 597 330 624 294 q 517 390 569 365 q 372 442 465 414 q 215 501 278 469 q 115 589 153 533 q 76 729 76 644 q 167 919 76 847 q 424 992 258 992 q 592 972 513 992 q 732 925 672 953 l 718 785 q 568 851 640 831 q 418 872 496 872 q 274 839 328 872 q 221 736 221 806 q 245 658 221 689 q 315 606 269 628 q 443 560 361 585 q 688 441 607 510 q 768 251 768 372 q 672 52 768 124 q 389 -19 576 -19 m 263 1207 l 263 1292 l 439 1200 l 615 1292 l 615 1207 l 439 1082 l 263 1207 m 372 1481 l 506 1481 l 506 1356 l 372 1356 l 372 1481 z "},"Ş":{"ha":811,"x_min":71,"x_max":768,"o":"m 768 251 q 685 63 768 133 q 440 -18 603 -8 l 422 -75 l 433 -75 q 522 -105 489 -75 q 554 -187 554 -135 q 513 -281 554 -247 q 407 -314 471 -314 q 299 -287 346 -314 l 319 -219 q 407 -243 363 -243 q 456 -229 438 -243 q 474 -190 474 -215 q 456 -149 474 -164 q 404 -135 439 -135 q 340 -146 372 -135 l 372 -19 q 206 0 289 -18 q 71 43 124 18 l 89 183 q 246 125 158 150 q 419 100 333 100 q 570 135 517 100 q 624 242 624 171 q 597 330 624 294 q 517 390 569 365 q 372 442 465 414 q 215 501 278 469 q 115 589 153 533 q 76 729 76 644 q 167 919 76 847 q 424 992 258 992 q 592 972 513 992 q 732 925 672 953 l 718 785 q 568 851 640 831 q 418 872 496 872 q 274 839 328 872 q 221 736 221 806 q 245 658 221 689 q 315 606 269 628 q 443 560 361 585 q 688 441 607 510 q 768 251 768 372 z "},"Ŝ":{"ha":811,"x_min":71,"x_max":768,"o":"m 389 -19 q 214 -1 303 -19 q 71 43 125 18 l 89 183 q 246 125 158 150 q 419 100 333 100 q 570 135 517 100 q 624 242 624 171 q 597 330 624 294 q 517 390 569 365 q 372 442 465 414 q 215 501 278 469 q 115 589 153 533 q 76 729 76 644 q 167 919 76 847 q 424 992 258 992 q 592 972 513 992 q 732 925 672 953 l 718 785 q 568 851 640 831 q 418 872 496 872 q 274 839 328 872 q 221 736 221 806 q 245 658 221 689 q 315 606 269 628 q 443 560 361 585 q 688 441 607 510 q 768 251 768 372 q 672 52 768 124 q 389 -19 576 -19 m 615 1131 l 615 1046 l 439 1138 l 263 1046 l 263 1131 l 439 1256 l 615 1131 z "},"Ș":{"ha":811,"x_min":71,"x_max":768,"o":"m 389 -19 q 214 -1 303 -19 q 71 43 125 18 l 89 183 q 246 125 158 150 q 419 100 333 100 q 570 135 517 100 q 624 242 624 171 q 597 330 624 294 q 517 390 569 365 q 372 442 465 414 q 215 501 278 469 q 115 589 153 533 q 76 729 76 644 q 167 919 76 847 q 424 992 258 992 q 592 972 513 992 q 732 925 672 953 l 718 785 q 568 851 640 831 q 418 872 496 872 q 274 839 328 872 q 221 736 221 806 q 245 658 221 689 q 315 606 269 628 q 443 560 361 585 q 688 441 607 510 q 768 251 768 372 q 672 52 768 124 q 389 -19 576 -19 m 332 -422 l 382 -274 l 333 -274 l 333 -126 l 483 -126 l 483 -260 l 411 -422 l 332 -422 z "},"Ṡ":{"ha":811,"x_min":71,"x_max":768,"o":"m 389 -19 q 214 -1 303 -19 q 71 43 125 18 l 89 183 q 246 125 158 150 q 419 100 333 100 q 570 135 517 100 q 624 242 624 171 q 597 330 624 294 q 517 390 569 365 q 372 442 465 414 q 215 501 278 469 q 115 589 153 533 q 76 729 76 644 q 167 919 76 847 q 424 992 258 992 q 592 972 513 992 q 732 925 672 953 l 718 785 q 568 851 640 831 q 418 872 496 872 q 274 839 328 872 q 221 736 221 806 q 245 658 221 689 q 315 606 269 628 q 443 560 361 585 q 688 441 607 510 q 768 251 768 372 q 672 52 768 124 q 389 -19 576 -19 m 372 1224 l 506 1224 l 506 1099 l 372 1099 l 372 1224 z "},"Ṣ":{"ha":811,"x_min":71,"x_max":768,"o":"m 389 -19 q 214 -1 303 -19 q 71 43 125 18 l 89 183 q 246 125 158 150 q 419 100 333 100 q 570 135 517 100 q 624 242 624 171 q 597 330 624 294 q 517 390 569 365 q 372 442 465 414 q 215 501 278 469 q 115 589 153 533 q 76 729 76 644 q 167 919 76 847 q 424 992 258 992 q 592 972 513 992 q 732 925 672 953 l 718 785 q 568 851 640 831 q 418 872 496 872 q 274 839 328 872 q 221 736 221 806 q 245 658 221 689 q 315 606 269 628 q 443 560 361 585 q 688 441 607 510 q 768 251 768 372 q 672 52 768 124 q 389 -19 576 -19 m 340 -112 l 474 -112 l 474 -237 l 340 -237 l 340 -112 z "},"Ṩ":{"ha":811,"x_min":71,"x_max":768,"o":"m 389 -19 q 214 -1 303 -19 q 71 43 125 18 l 89 183 q 246 125 158 150 q 419 100 333 100 q 570 135 517 100 q 624 242 624 171 q 597 330 624 294 q 517 390 569 365 q 372 442 465 414 q 215 501 278 469 q 115 589 153 533 q 76 729 76 644 q 167 919 76 847 q 424 992 258 992 q 592 972 513 992 q 732 925 672 953 l 718 785 q 568 851 640 831 q 418 872 496 872 q 274 839 328 872 q 221 736 221 806 q 245 658 221 689 q 315 606 269 628 q 443 560 361 585 q 688 441 607 510 q 768 251 768 372 q 672 52 768 124 q 389 -19 576 -19 m 372 1224 l 506 1224 l 506 1099 l 372 1099 l 372 1224 m 340 -112 l 474 -112 l 474 -237 l 340 -237 l 340 -112 z "},"ẞ":{"ha":854,"x_min":111,"x_max":800,"o":"m 549 560 q 731 472 661 543 q 800 275 800 401 q 758 113 800 179 q 647 13 715 46 q 496 -19 578 -19 q 357 0 428 -19 l 357 114 q 486 100 417 100 q 614 147 567 100 q 661 274 661 193 q 606 416 661 367 q 443 465 550 465 l 410 465 l 410 571 l 639 850 q 465 881 560 881 q 303 828 364 881 q 243 685 243 776 l 243 0 l 111 0 l 111 682 q 207 913 111 833 q 465 992 303 992 q 624 969 551 992 q 751 910 697 947 l 751 804 l 549 560 z "},"Ə":{"ha":971,"x_min":42,"x_max":915,"o":"m 443 992 q 694 928 588 992 q 858 749 800 865 q 915 472 915 632 q 861 224 915 336 q 703 47 807 113 q 461 -19 600 -19 q 244 29 339 -19 q 95 171 149 78 q 42 392 42 264 q 50 488 42 446 l 771 488 q 679 771 768 669 q 428 872 590 872 q 110 799 281 872 l 85 910 q 443 992 256 992 m 465 100 q 661 172 583 100 q 763 371 739 243 l 186 371 q 256 172 186 243 q 465 100 325 100 z "},"T":{"ha":740,"x_min":21,"x_max":719,"o":"m 304 853 l 21 853 l 21 972 l 719 972 l 719 853 l 436 853 l 436 0 l 304 0 l 304 853 z "},"Ŧ":{"ha":740,"x_min":21,"x_max":719,"o":"m 436 853 l 436 542 l 617 542 l 617 454 l 436 454 l 436 0 l 304 0 l 304 454 l 124 454 l 124 542 l 304 542 l 304 853 l 21 853 l 21 972 l 719 972 l 719 853 l 436 853 z "},"Ť":{"ha":740,"x_min":21,"x_max":719,"o":"m 304 853 l 21 853 l 21 972 l 719 972 l 719 853 l 436 853 l 436 0 l 304 0 l 304 853 m 194 1219 l 194 1304 l 371 1193 l 547 1304 l 547 1219 l 371 1067 l 194 1219 z "},"Ţ":{"ha":740,"x_min":21,"x_max":719,"o":"m 304 853 l 21 853 l 21 972 l 719 972 l 719 853 l 436 853 l 436 0 l 304 0 l 304 853 m 397 -75 q 485 -105 453 -75 q 518 -187 518 -135 q 476 -281 518 -247 q 371 -314 435 -314 q 263 -287 310 -314 l 283 -219 q 371 -243 326 -243 q 419 -229 401 -243 q 438 -190 438 -215 q 420 -149 438 -164 q 368 -135 403 -135 q 304 -146 336 -135 l 340 0 l 410 0 l 386 -75 l 397 -75 z "},"Ț":{"ha":740,"x_min":21,"x_max":719,"o":"m 304 853 l 21 853 l 21 972 l 719 972 l 719 853 l 436 853 l 436 0 l 304 0 l 304 853 m 296 -422 l 346 -274 l 297 -274 l 297 -126 l 447 -126 l 447 -260 l 375 -422 l 296 -422 z "},"Ṭ":{"ha":740,"x_min":21,"x_max":719,"o":"m 304 853 l 21 853 l 21 972 l 719 972 l 719 853 l 436 853 l 436 0 l 304 0 l 304 853 m 304 -112 l 438 -112 l 438 -237 l 304 -237 l 304 -112 z "},"Ṯ":{"ha":740,"x_min":21,"x_max":719,"o":"m 304 853 l 21 853 l 21 972 l 719 972 l 719 853 l 436 853 l 436 0 l 304 0 l 304 853 m 149 -126 l 593 -126 l 593 -225 l 149 -225 l 149 -126 z "},"U":{"ha":1006,"x_min":100,"x_max":906,"o":"m 503 -19 q 201 94 301 -19 q 100 413 100 207 l 100 972 l 232 972 l 232 449 q 289 194 232 289 q 503 100 346 100 q 717 195 660 100 q 774 449 774 290 l 774 972 l 906 972 l 906 413 q 805 94 906 207 q 503 -19 704 -19 z "},"Ú":{"ha":1006,"x_min":100,"x_max":906,"o":"m 503 -19 q 201 94 301 -19 q 100 413 100 207 l 100 972 l 232 972 l 232 449 q 289 194 232 289 q 503 100 346 100 q 717 195 660 100 q 774 449 774 290 l 774 972 l 906 972 l 906 413 q 805 94 906 207 q 503 -19 704 -19 m 374 1142 l 633 1274 l 633 1142 l 374 1061 l 374 1142 z "},"Ŭ":{"ha":1006,"x_min":100,"x_max":906,"o":"m 503 -19 q 201 94 301 -19 q 100 413 100 207 l 100 972 l 232 972 l 232 449 q 289 194 232 289 q 503 100 346 100 q 717 195 660 100 q 774 449 774 290 l 774 972 l 906 972 l 906 413 q 805 94 906 207 q 503 -19 704 -19 m 503 1061 q 352 1110 404 1061 q 300 1228 300 1158 l 411 1228 q 437 1168 411 1189 q 503 1147 463 1147 q 569 1168 543 1147 q 594 1228 594 1189 l 706 1228 q 653 1110 706 1158 q 503 1061 601 1061 z "},"Û":{"ha":1006,"x_min":100,"x_max":906,"o":"m 503 -19 q 201 94 301 -19 q 100 413 100 207 l 100 972 l 232 972 l 232 449 q 289 194 232 289 q 503 100 346 100 q 717 195 660 100 q 774 449 774 290 l 774 972 l 906 972 l 906 413 q 805 94 906 207 q 503 -19 704 -19 m 679 1131 l 679 1046 l 503 1138 l 326 1046 l 326 1131 l 503 1256 l 679 1131 z "},"Ȕ":{"ha":1006,"x_min":100,"x_max":906,"o":"m 503 -19 q 201 94 301 -19 q 100 413 100 207 l 100 972 l 232 972 l 232 449 q 289 194 232 289 q 503 100 346 100 q 717 195 660 100 q 774 449 774 290 l 774 972 l 906 972 l 906 413 q 805 94 906 207 q 503 -19 704 -19 m 361 1094 l 218 1326 l 354 1326 l 453 1094 l 361 1094 m 556 1094 l 419 1326 l 556 1326 l 647 1094 l 556 1094 z "},"Ü":{"ha":1006,"x_min":100,"x_max":906,"o":"m 503 -19 q 201 94 301 -19 q 100 413 100 207 l 100 972 l 232 972 l 232 449 q 289 194 232 289 q 503 100 346 100 q 717 195 660 100 q 774 449 774 290 l 774 972 l 906 972 l 906 413 q 805 94 906 207 q 503 -19 704 -19 m 310 1207 l 429 1207 l 429 1103 l 310 1103 l 310 1207 m 576 1207 l 696 1207 l 696 1103 l 576 1103 l 576 1207 z "},"Ụ":{"ha":1006,"x_min":100,"x_max":906,"o":"m 503 -19 q 201 94 301 -19 q 100 413 100 207 l 100 972 l 232 972 l 232 449 q 289 194 232 289 q 503 100 346 100 q 717 195 660 100 q 774 449 774 290 l 774 972 l 906 972 l 906 413 q 805 94 906 207 q 503 -19 704 -19 m 436 -112 l 569 -112 l 569 -237 l 436 -237 l 436 -112 z "},"Ù":{"ha":1006,"x_min":100,"x_max":906,"o":"m 503 -19 q 201 94 301 -19 q 100 413 100 207 l 100 972 l 232 972 l 232 449 q 289 194 232 289 q 503 100 346 100 q 717 195 660 100 q 774 449 774 290 l 774 972 l 906 972 l 906 413 q 805 94 906 207 q 503 -19 704 -19 m 372 1142 l 372 1274 l 632 1142 l 632 1061 l 372 1142 z "},"Ủ":{"ha":1006,"x_min":100,"x_max":906,"o":"m 503 -19 q 201 94 301 -19 q 100 413 100 207 l 100 972 l 232 972 l 232 449 q 289 194 232 289 q 503 100 346 100 q 717 195 660 100 q 774 449 774 290 l 774 972 l 906 972 l 906 413 q 805 94 906 207 q 503 -19 704 -19 m 489 1111 q 538 1165 538 1128 q 481 1210 538 1210 q 393 1183 443 1210 l 369 1254 q 481 1281 418 1281 q 579 1252 540 1281 q 618 1174 618 1224 q 590 1098 618 1126 q 501 1056 563 1069 l 489 1111 z "},"Ư":{"ha":1006,"x_min":100,"x_max":1071,"o":"m 1071 1075 q 1025 957 1071 1010 q 906 885 979 904 l 906 413 q 805 94 906 207 q 503 -19 704 -19 q 201 94 301 -19 q 100 413 100 207 l 100 972 l 232 972 l 232 449 q 289 194 232 289 q 503 100 346 100 q 717 195 660 100 q 774 449 774 290 l 774 972 l 840 972 q 951 1075 951 972 l 1071 1075 z "},"Ứ":{"ha":1006,"x_min":100,"x_max":1071,"o":"m 1071 1075 q 1025 957 1071 1010 q 906 885 979 904 l 906 413 q 805 94 906 207 q 503 -19 704 -19 q 201 94 301 -19 q 100 413 100 207 l 100 972 l 232 972 l 232 449 q 289 194 232 289 q 503 100 346 100 q 717 195 660 100 q 774 449 774 290 l 774 972 l 840 972 q 951 1075 951 972 l 1071 1075 m 374 1176 l 633 1329 l 633 1193 l 374 1092 l 374 1176 z "},"Ự":{"ha":1006,"x_min":100,"x_max":1071,"o":"m 1071 1075 q 1025 957 1071 1010 q 906 885 979 904 l 906 413 q 805 94 906 207 q 503 -19 704 -19 q 201 94 301 -19 q 100 413 100 207 l 100 972 l 232 972 l 232 449 q 289 194 232 289 q 503 100 346 100 q 717 195 660 100 q 774 449 774 290 l 774 972 l 840 972 q 951 1075 951 972 l 1071 1075 m 436 -112 l 569 -112 l 569 -237 l 436 -237 l 436 -112 z "},"Ừ":{"ha":1006,"x_min":100,"x_max":1071,"o":"m 1071 1075 q 1025 957 1071 1010 q 906 885 979 904 l 906 413 q 805 94 906 207 q 503 -19 704 -19 q 201 94 301 -19 q 100 413 100 207 l 100 972 l 232 972 l 232 449 q 289 194 232 289 q 503 100 346 100 q 717 195 660 100 q 774 449 774 290 l 774 972 l 840 972 q 951 1075 951 972 l 1071 1075 m 372 1193 l 372 1329 l 632 1176 l 632 1092 l 372 1193 z "},"Ử":{"ha":1006,"x_min":100,"x_max":1071,"o":"m 1071 1075 q 1025 957 1071 1010 q 906 885 979 904 l 906 413 q 805 94 906 207 q 503 -19 704 -19 q 201 94 301 -19 q 100 413 100 207 l 100 972 l 232 972 l 232 449 q 289 194 232 289 q 503 100 346 100 q 717 195 660 100 q 774 449 774 290 l 774 972 l 840 972 q 951 1075 951 972 l 1071 1075 m 489 1111 q 538 1165 538 1128 q 481 1210 538 1210 q 393 1183 443 1210 l 369 1254 q 481 1281 418 1281 q 579 1252 540 1281 q 618 1174 618 1224 q 590 1098 618 1126 q 501 1056 563 1069 l 489 1111 z "},"Ữ":{"ha":1006,"x_min":100,"x_max":1071,"o":"m 1071 1075 q 1025 957 1071 1010 q 906 885 979 904 l 906 413 q 805 94 906 207 q 503 -19 704 -19 q 201 94 301 -19 q 100 413 100 207 l 100 972 l 232 972 l 232 449 q 289 194 232 289 q 503 100 346 100 q 717 195 660 100 q 774 449 774 290 l 774 972 l 840 972 q 951 1075 951 972 l 1071 1075 m 614 1097 q 567 1106 590 1097 q 511 1132 543 1115 q 460 1155 479 1147 q 424 1163 442 1163 q 389 1148 401 1163 q 376 1108 376 1133 l 272 1108 q 306 1223 275 1183 q 392 1263 336 1263 q 439 1253 415 1263 q 494 1228 463 1244 q 545 1205 526 1213 q 582 1197 564 1197 q 617 1212 604 1197 q 629 1251 629 1226 l 733 1251 q 700 1137 731 1176 q 614 1097 669 1097 z "},"Ű":{"ha":1006,"x_min":100,"x_max":906,"o":"m 503 -19 q 201 94 301 -19 q 100 413 100 207 l 100 972 l 232 972 l 232 449 q 289 194 232 289 q 503 100 346 100 q 717 195 660 100 q 774 449 774 290 l 774 972 l 906 972 l 906 413 q 805 94 906 207 q 503 -19 704 -19 m 450 1299 l 586 1299 l 450 1094 l 358 1094 l 450 1299 m 651 1299 l 788 1299 l 644 1094 l 553 1094 l 651 1299 z "},"Ȗ":{"ha":1006,"x_min":100,"x_max":906,"o":"m 503 -19 q 201 94 301 -19 q 100 413 100 207 l 100 972 l 232 972 l 232 449 q 289 194 232 289 q 503 100 346 100 q 717 195 660 100 q 774 449 774 290 l 774 972 l 906 972 l 906 413 q 805 94 906 207 q 503 -19 704 -19 m 503 1249 q 653 1200 601 1249 q 706 1082 706 1151 l 594 1082 q 569 1142 594 1121 q 503 1163 543 1163 q 437 1142 463 1163 q 411 1082 411 1121 l 300 1082 q 352 1200 300 1151 q 503 1249 404 1249 z "},"Ū":{"ha":1006,"x_min":100,"x_max":906,"o":"m 503 -19 q 201 94 301 -19 q 100 413 100 207 l 100 972 l 232 972 l 232 449 q 289 194 232 289 q 503 100 346 100 q 717 195 660 100 q 774 449 774 290 l 774 972 l 906 972 l 906 413 q 805 94 906 207 q 503 -19 704 -19 m 281 1196 l 725 1196 l 725 1101 l 281 1101 l 281 1196 z "},"Ṻ":{"ha":1006,"x_min":100,"x_max":906,"o":"m 503 -19 q 201 94 301 -19 q 100 413 100 207 l 100 972 l 232 972 l 232 449 q 289 194 232 289 q 503 100 346 100 q 717 195 660 100 q 774 449 774 290 l 774 972 l 906 972 l 906 413 q 805 94 906 207 q 503 -19 704 -19 m 281 1196 l 725 1196 l 725 1101 l 281 1101 l 281 1196 m 310 1446 l 429 1446 l 429 1342 l 310 1342 l 310 1446 m 576 1446 l 696 1446 l 696 1342 l 576 1342 l 576 1446 z "},"Ų":{"ha":1006,"x_min":100,"x_max":906,"o":"m 906 972 l 906 413 q 838 138 906 246 q 638 -4 771 31 q 560 -78 586 -44 q 533 -147 533 -112 q 551 -200 533 -182 q 600 -218 569 -218 q 688 -194 644 -218 l 708 -262 q 593 -289 658 -289 q 492 -258 532 -289 q 453 -169 453 -226 q 478 -87 453 -126 q 540 -18 503 -47 q 503 -19 528 -19 q 201 94 301 -19 q 100 413 100 207 l 100 972 l 232 972 l 232 449 q 289 194 232 289 q 503 100 346 100 q 717 195 660 100 q 774 449 774 290 l 774 972 l 906 972 z "},"Ů":{"ha":1006,"x_min":100,"x_max":906,"o":"m 503 -19 q 201 94 301 -19 q 100 413 100 207 l 100 972 l 232 972 l 232 449 q 289 194 232 289 q 503 100 346 100 q 717 195 660 100 q 774 449 774 290 l 774 972 l 906 972 l 906 413 q 805 94 906 207 q 503 -19 704 -19 m 503 1050 q 397 1090 435 1050 q 358 1186 358 1129 q 397 1282 358 1242 q 503 1322 436 1322 q 609 1282 571 1322 q 647 1186 647 1242 q 610 1090 647 1129 q 503 1050 572 1050 m 503 1111 q 556 1132 533 1111 q 578 1186 578 1153 q 556 1240 578 1218 q 503 1261 533 1261 q 450 1240 472 1261 q 428 1186 428 1218 q 450 1132 428 1153 q 503 1111 472 1111 z "},"Ũ":{"ha":1006,"x_min":100,"x_max":906,"o":"m 503 -19 q 201 94 301 -19 q 100 413 100 207 l 100 972 l 232 972 l 232 449 q 289 194 232 289 q 503 100 346 100 q 717 195 660 100 q 774 449 774 290 l 774 972 l 906 972 l 906 413 q 805 94 906 207 q 503 -19 704 -19 m 618 1094 q 571 1102 596 1094 q 511 1125 546 1110 q 424 1151 450 1151 q 389 1138 401 1151 q 376 1101 376 1125 l 286 1101 q 313 1204 286 1168 q 388 1240 339 1240 q 435 1233 410 1240 q 494 1210 460 1225 q 582 1183 556 1183 q 617 1197 604 1183 q 629 1233 629 1210 l 719 1233 q 693 1131 719 1167 q 618 1094 667 1094 z "},"Ṹ":{"ha":1006,"x_min":100,"x_max":906,"o":"m 503 -19 q 201 94 301 -19 q 100 413 100 207 l 100 972 l 232 972 l 232 449 q 289 194 232 289 q 503 100 346 100 q 717 195 660 100 q 774 449 774 290 l 774 972 l 906 972 l 906 413 q 805 94 906 207 q 503 -19 704 -19 m 618 1094 q 571 1102 596 1094 q 511 1125 546 1110 q 424 1151 450 1151 q 389 1138 401 1151 q 376 1101 376 1125 l 286 1101 q 313 1204 286 1168 q 388 1240 339 1240 q 435 1233 410 1240 q 494 1210 460 1225 q 582 1183 556 1183 q 617 1197 604 1183 q 629 1233 629 1210 l 719 1233 q 693 1131 719 1167 q 618 1094 667 1094 m 374 1386 l 633 1518 l 633 1386 l 374 1306 l 374 1386 z "},"V":{"ha":847,"x_min":6,"x_max":842,"o":"m 842 972 l 493 0 l 354 0 l 6 972 l 144 972 l 424 185 l 703 972 l 842 972 z "},"W":{"ha":1314,"x_min":6,"x_max":1308,"o":"m 6 972 l 144 972 l 350 171 l 588 953 l 726 953 l 964 171 l 1169 972 l 1308 972 l 1033 0 l 893 0 l 657 782 l 421 0 l 281 0 l 6 972 z "},"Ẃ":{"ha":1314,"x_min":6,"x_max":1308,"o":"m 6 972 l 144 972 l 350 171 l 588 953 l 726 953 l 964 171 l 1169 972 l 1308 972 l 1033 0 l 893 0 l 657 782 l 421 0 l 281 0 l 6 972 m 532 1142 l 792 1274 l 792 1142 l 532 1061 l 532 1142 z "},"Ŵ":{"ha":1314,"x_min":6,"x_max":1308,"o":"m 6 972 l 144 972 l 350 171 l 588 953 l 726 953 l 964 171 l 1169 972 l 1308 972 l 1033 0 l 893 0 l 657 782 l 421 0 l 281 0 l 6 972 m 838 1131 l 838 1046 l 661 1138 l 485 1046 l 485 1131 l 661 1256 l 838 1131 z "},"Ẅ":{"ha":1314,"x_min":6,"x_max":1308,"o":"m 6 972 l 144 972 l 350 171 l 588 953 l 726 953 l 964 171 l 1169 972 l 1308 972 l 1033 0 l 893 0 l 657 782 l 421 0 l 281 0 l 6 972 m 468 1207 l 588 1207 l 588 1103 l 468 1103 l 468 1207 m 735 1207 l 854 1207 l 854 1103 l 735 1103 l 735 1207 z "},"Ẁ":{"ha":1314,"x_min":6,"x_max":1308,"o":"m 6 972 l 144 972 l 350 171 l 588 953 l 726 953 l 964 171 l 1169 972 l 1308 972 l 1033 0 l 893 0 l 657 782 l 421 0 l 281 0 l 6 972 m 531 1142 l 531 1274 l 790 1142 l 790 1061 l 531 1142 z "},"X":{"ha":824,"x_min":6,"x_max":818,"o":"m 336 490 l 11 972 l 164 972 l 413 604 l 660 972 l 813 972 l 489 490 l 818 0 l 665 0 l 413 376 l 158 0 l 6 0 l 336 490 z "},"Y":{"ha":788,"x_min":-15,"x_max":801,"o":"m 801 972 l 460 421 l 460 0 l 328 0 l 328 421 l -15 972 l 135 972 l 393 550 l 651 972 l 801 972 z "},"Ý":{"ha":788,"x_min":-15,"x_max":801,"o":"m 801 972 l 460 421 l 460 0 l 328 0 l 328 421 l -15 972 l 135 972 l 393 550 l 651 972 l 801 972 m 264 1142 l 524 1274 l 524 1142 l 264 1061 l 264 1142 z "},"Ŷ":{"ha":788,"x_min":-15,"x_max":801,"o":"m 801 972 l 460 421 l 460 0 l 328 0 l 328 421 l -15 972 l 135 972 l 393 550 l 651 972 l 801 972 m 569 1131 l 569 1046 l 393 1138 l 217 1046 l 217 1131 l 393 1256 l 569 1131 z "},"Ÿ":{"ha":788,"x_min":-15,"x_max":801,"o":"m 801 972 l 460 421 l 460 0 l 328 0 l 328 421 l -15 972 l 135 972 l 393 550 l 651 972 l 801 972 m 200 1207 l 319 1207 l 319 1103 l 200 1103 l 200 1207 m 467 1207 l 586 1207 l 586 1103 l 467 1103 l 467 1207 z "},"Ẏ":{"ha":788,"x_min":-15,"x_max":801,"o":"m 801 972 l 460 421 l 460 0 l 328 0 l 328 421 l -15 972 l 135 972 l 393 550 l 651 972 l 801 972 m 326 1224 l 460 1224 l 460 1099 l 326 1099 l 326 1224 z "},"Ỵ":{"ha":788,"x_min":-15,"x_max":801,"o":"m 801 972 l 460 421 l 460 0 l 328 0 l 328 421 l -15 972 l 135 972 l 393 550 l 651 972 l 801 972 m 328 -112 l 461 -112 l 461 -237 l 328 -237 l 328 -112 z "},"Ỳ":{"ha":788,"x_min":-15,"x_max":801,"o":"m 801 972 l 460 421 l 460 0 l 328 0 l 328 421 l -15 972 l 135 972 l 393 550 l 651 972 l 801 972 m 263 1142 l 263 1274 l 522 1142 l 522 1061 l 263 1142 z "},"Ỷ":{"ha":788,"x_min":-15,"x_max":801,"o":"m 801 972 l 460 421 l 460 0 l 328 0 l 328 421 l -15 972 l 135 972 l 393 550 l 651 972 l 801 972 m 379 1111 q 428 1165 428 1128 q 371 1210 428 1210 q 283 1183 333 1210 l 260 1254 q 371 1281 308 1281 q 469 1252 431 1281 q 508 1174 508 1224 q 481 1098 508 1126 q 392 1056 453 1069 l 379 1111 z "},"Ȳ":{"ha":788,"x_min":-15,"x_max":801,"o":"m 801 972 l 460 421 l 460 0 l 328 0 l 328 421 l -15 972 l 135 972 l 393 550 l 651 972 l 801 972 m 171 1196 l 615 1196 l 615 1101 l 171 1101 l 171 1196 z "},"Ỹ":{"ha":788,"x_min":-15,"x_max":801,"o":"m 801 972 l 460 421 l 460 0 l 328 0 l 328 421 l -15 972 l 135 972 l 393 550 l 651 972 l 801 972 m 508 1094 q 461 1102 486 1094 q 401 1125 436 1110 q 314 1151 340 1151 q 279 1138 292 1151 q 267 1101 267 1125 l 176 1101 q 203 1204 176 1168 q 278 1240 229 1240 q 325 1233 300 1240 q 385 1210 350 1225 q 472 1183 446 1183 q 507 1197 494 1183 q 519 1233 519 1210 l 610 1233 q 583 1131 610 1167 q 508 1094 557 1094 z "},"Z":{"ha":763,"x_min":13,"x_max":753,"o":"m 224 119 l 746 119 l 746 0 l 13 0 l 539 853 l 75 853 l 75 972 l 753 972 l 224 119 z "},"Ź":{"ha":763,"x_min":13,"x_max":753,"o":"m 224 119 l 746 119 l 746 0 l 13 0 l 539 853 l 75 853 l 75 972 l 753 972 l 224 119 m 285 1142 l 544 1274 l 544 1142 l 285 1061 l 285 1142 z "},"Ž":{"ha":763,"x_min":13,"x_max":753,"o":"m 224 119 l 746 119 l 746 0 l 13 0 l 539 853 l 75 853 l 75 972 l 753 972 l 224 119 m 238 1207 l 238 1292 l 414 1200 l 590 1292 l 590 1207 l 414 1082 l 238 1207 z "},"Ż":{"ha":763,"x_min":13,"x_max":753,"o":"m 224 119 l 746 119 l 746 0 l 13 0 l 539 853 l 75 853 l 75 972 l 753 972 l 224 119 m 347 1224 l 481 1224 l 481 1099 l 347 1099 l 347 1224 z "},"Ẓ":{"ha":763,"x_min":13,"x_max":753,"o":"m 224 119 l 746 119 l 746 0 l 13 0 l 539 853 l 75 853 l 75 972 l 753 972 l 224 119 m 285 -112 l 418 -112 l 418 -237 l 285 -237 l 285 -112 z "},"a":{"ha":667,"x_min":33,"x_max":656,"o":"m 243 -14 q 91 42 149 -14 q 33 183 33 97 q 156 368 33 313 q 440 426 278 424 q 405 551 440 518 q 292 583 369 583 q 206 570 249 583 q 113 522 163 557 l 94 624 q 197 675 136 656 q 325 694 258 694 q 465 664 413 694 q 541 563 517 633 q 565 368 565 492 l 565 229 q 570 145 565 174 q 592 101 575 117 q 643 86 608 86 l 656 86 l 636 -14 l 626 -14 q 535 -3 568 -14 q 484 29 501 8 q 451 86 467 50 q 243 -14 365 -14 m 267 86 q 363 111 317 86 q 440 178 410 136 l 440 340 q 226 301 290 335 q 161 190 161 267 q 190 112 161 138 q 267 86 218 86 z "},"á":{"ha":667,"x_min":33,"x_max":656,"o":"m 243 -14 q 91 42 149 -14 q 33 183 33 97 q 156 368 33 313 q 440 426 278 424 q 405 551 440 518 q 292 583 369 583 q 206 570 249 583 q 113 522 163 557 l 94 624 q 197 675 136 656 q 325 694 258 694 q 465 664 413 694 q 541 563 517 633 q 565 368 565 492 l 565 229 q 570 145 565 174 q 592 101 575 117 q 643 86 608 86 l 656 86 l 636 -14 l 626 -14 q 535 -3 568 -14 q 484 29 501 8 q 451 86 467 50 q 243 -14 365 -14 m 267 86 q 363 111 317 86 q 440 178 410 136 l 440 340 q 226 301 290 335 q 161 190 161 267 q 190 112 161 138 q 267 86 218 86 m 196 885 l 456 1038 l 456 901 l 196 800 l 196 885 z "},"ă":{"ha":667,"x_min":33,"x_max":656,"o":"m 243 -14 q 91 42 149 -14 q 33 183 33 97 q 156 368 33 313 q 440 426 278 424 q 405 551 440 518 q 292 583 369 583 q 206 570 249 583 q 113 522 163 557 l 94 624 q 197 675 136 656 q 325 694 258 694 q 465 664 413 694 q 541 563 517 633 q 565 368 565 492 l 565 229 q 570 145 565 174 q 592 101 575 117 q 643 86 608 86 l 656 86 l 636 -14 l 626 -14 q 535 -3 568 -14 q 484 29 501 8 q 451 86 467 50 q 243 -14 365 -14 m 267 86 q 363 111 317 86 q 440 178 410 136 l 440 340 q 226 301 290 335 q 161 190 161 267 q 190 112 161 138 q 267 86 218 86 m 325 800 q 174 851 226 800 q 122 976 122 903 l 233 976 q 259 914 233 936 q 325 892 285 892 q 391 914 365 892 q 417 976 417 936 l 528 976 q 476 851 528 903 q 325 800 424 800 z "},"ắ":{"ha":667,"x_min":33,"x_max":656,"o":"m 243 -14 q 91 42 149 -14 q 33 183 33 97 q 156 368 33 313 q 440 426 278 424 q 405 551 440 518 q 292 583 369 583 q 206 570 249 583 q 113 522 163 557 l 94 624 q 197 675 136 656 q 325 694 258 694 q 465 664 413 694 q 541 563 517 633 q 565 368 565 492 l 565 229 q 570 145 565 174 q 592 101 575 117 q 643 86 608 86 l 656 86 l 636 -14 l 626 -14 q 535 -3 568 -14 q 484 29 501 8 q 451 86 467 50 q 243 -14 365 -14 m 267 86 q 363 111 317 86 q 440 178 410 136 l 440 340 q 226 301 290 335 q 161 190 161 267 q 190 112 161 138 q 267 86 218 86 m 325 769 q 174 818 226 769 q 122 936 122 867 l 233 936 q 259 876 233 897 q 325 856 285 856 q 391 876 365 856 q 417 936 417 897 l 528 936 q 476 818 528 867 q 325 769 424 769 m 196 1078 l 456 1210 l 456 1078 l 196 997 l 196 1078 z "},"ặ":{"ha":667,"x_min":33,"x_max":656,"o":"m 243 -14 q 91 42 149 -14 q 33 183 33 97 q 156 368 33 313 q 440 426 278 424 q 405 551 440 518 q 292 583 369 583 q 206 570 249 583 q 113 522 163 557 l 94 624 q 197 675 136 656 q 325 694 258 694 q 465 664 413 694 q 541 563 517 633 q 565 368 565 492 l 565 229 q 570 145 565 174 q 592 101 575 117 q 643 86 608 86 l 656 86 l 636 -14 l 626 -14 q 535 -3 568 -14 q 484 29 501 8 q 451 86 467 50 q 243 -14 365 -14 m 267 86 q 363 111 317 86 q 440 178 410 136 l 440 340 q 226 301 290 335 q 161 190 161 267 q 190 112 161 138 q 267 86 218 86 m 325 800 q 174 851 226 800 q 122 976 122 903 l 233 976 q 259 914 233 936 q 325 892 285 892 q 391 914 365 892 q 417 976 417 936 l 528 976 q 476 851 528 903 q 325 800 424 800 m 267 -112 l 400 -112 l 400 -237 l 267 -237 l 267 -112 z "},"ằ":{"ha":667,"x_min":33,"x_max":656,"o":"m 243 -14 q 91 42 149 -14 q 33 183 33 97 q 156 368 33 313 q 440 426 278 424 q 405 551 440 518 q 292 583 369 583 q 206 570 249 583 q 113 522 163 557 l 94 624 q 197 675 136 656 q 325 694 258 694 q 465 664 413 694 q 541 563 517 633 q 565 368 565 492 l 565 229 q 570 145 565 174 q 592 101 575 117 q 643 86 608 86 l 656 86 l 636 -14 l 626 -14 q 535 -3 568 -14 q 484 29 501 8 q 451 86 467 50 q 243 -14 365 -14 m 267 86 q 363 111 317 86 q 440 178 410 136 l 440 340 q 226 301 290 335 q 161 190 161 267 q 190 112 161 138 q 267 86 218 86 m 325 768 q 174 817 226 768 q 122 935 122 865 l 233 935 q 259 875 233 896 q 325 854 285 854 q 391 875 365 854 q 417 935 417 896 l 528 935 q 476 817 528 865 q 325 768 424 768 m 194 1076 l 194 1208 l 454 1076 l 454 996 l 194 1076 z "},"ẳ":{"ha":667,"x_min":33,"x_max":656,"o":"m 243 -14 q 91 42 149 -14 q 33 183 33 97 q 156 368 33 313 q 440 426 278 424 q 405 551 440 518 q 292 583 369 583 q 206 570 249 583 q 113 522 163 557 l 94 624 q 197 675 136 656 q 325 694 258 694 q 465 664 413 694 q 541 563 517 633 q 565 368 565 492 l 565 229 q 570 145 565 174 q 592 101 575 117 q 643 86 608 86 l 656 86 l 636 -14 l 626 -14 q 535 -3 568 -14 q 484 29 501 8 q 451 86 467 50 q 243 -14 365 -14 m 267 86 q 363 111 317 86 q 440 178 410 136 l 440 340 q 226 301 290 335 q 161 190 161 267 q 190 112 161 138 q 267 86 218 86 m 325 769 q 174 818 226 769 q 122 936 122 867 l 233 936 q 259 876 233 897 q 325 856 285 856 q 391 876 365 856 q 417 936 417 897 l 528 936 q 476 818 528 867 q 325 769 424 769 m 325 1014 q 374 1068 374 1031 q 317 1113 374 1113 q 229 1086 279 1113 l 206 1157 q 317 1183 254 1183 q 415 1155 376 1183 q 454 1076 454 1126 q 426 1001 454 1029 q 338 958 399 972 l 325 1014 z "},"ẵ":{"ha":667,"x_min":33,"x_max":656,"o":"m 243 -14 q 91 42 149 -14 q 33 183 33 97 q 156 368 33 313 q 440 426 278 424 q 405 551 440 518 q 292 583 369 583 q 206 570 249 583 q 113 522 163 557 l 94 624 q 197 675 136 656 q 325 694 258 694 q 465 664 413 694 q 541 563 517 633 q 565 368 565 492 l 565 229 q 570 145 565 174 q 592 101 575 117 q 643 86 608 86 l 656 86 l 636 -14 l 626 -14 q 535 -3 568 -14 q 484 29 501 8 q 451 86 467 50 q 243 -14 365 -14 m 267 86 q 363 111 317 86 q 440 178 410 136 l 440 340 q 226 301 290 335 q 161 190 161 267 q 190 112 161 138 q 267 86 218 86 m 325 769 q 174 818 226 769 q 122 936 122 867 l 233 936 q 259 876 233 897 q 325 856 285 856 q 391 876 365 856 q 417 936 417 897 l 528 936 q 476 818 528 867 q 325 769 424 769 m 440 1001 q 393 1009 418 1001 q 333 1032 368 1017 q 246 1058 272 1058 q 211 1045 224 1058 q 199 1008 199 1032 l 108 1008 q 135 1111 108 1075 q 210 1147 161 1147 q 257 1140 232 1147 q 317 1117 282 1132 q 404 1090 378 1090 q 439 1103 426 1090 q 451 1140 451 1117 l 542 1140 q 515 1038 542 1074 q 440 1001 489 1001 z "},"â":{"ha":667,"x_min":33,"x_max":656,"o":"m 243 -14 q 91 42 149 -14 q 33 183 33 97 q 156 368 33 313 q 440 426 278 424 q 405 551 440 518 q 292 583 369 583 q 206 570 249 583 q 113 522 163 557 l 94 624 q 197 675 136 656 q 325 694 258 694 q 465 664 413 694 q 541 563 517 633 q 565 368 565 492 l 565 229 q 570 145 565 174 q 592 101 575 117 q 643 86 608 86 l 656 86 l 636 -14 l 626 -14 q 535 -3 568 -14 q 484 29 501 8 q 451 86 467 50 q 243 -14 365 -14 m 267 86 q 363 111 317 86 q 440 178 410 136 l 440 340 q 226 301 290 335 q 161 190 161 267 q 190 112 161 138 q 267 86 218 86 m 149 868 l 325 1021 l 501 868 l 501 783 l 325 894 l 149 783 l 149 868 z "},"ấ":{"ha":667,"x_min":33,"x_max":657,"o":"m 243 -14 q 91 42 149 -14 q 33 183 33 97 q 156 368 33 313 q 440 426 278 424 q 405 551 440 518 q 292 583 369 583 q 206 570 249 583 q 113 522 163 557 l 94 624 q 197 675 136 656 q 325 694 258 694 q 465 664 413 694 q 541 563 517 633 q 565 368 565 492 l 565 229 q 570 145 565 174 q 592 101 575 117 q 643 86 608 86 l 656 86 l 636 -14 l 626 -14 q 535 -3 568 -14 q 484 29 501 8 q 451 86 467 50 q 243 -14 365 -14 m 267 86 q 363 111 317 86 q 440 178 410 136 l 440 340 q 226 301 290 335 q 161 190 161 267 q 190 112 161 138 q 267 86 218 86 m 521 1119 l 657 1119 l 521 957 l 429 957 l 521 1119 m 501 839 l 501 754 l 325 846 l 149 754 l 149 839 l 325 964 l 501 839 z "},"ậ":{"ha":667,"x_min":33,"x_max":656,"o":"m 243 -14 q 91 42 149 -14 q 33 183 33 97 q 156 368 33 313 q 440 426 278 424 q 405 551 440 518 q 292 583 369 583 q 206 570 249 583 q 113 522 163 557 l 94 624 q 197 675 136 656 q 325 694 258 694 q 465 664 413 694 q 541 563 517 633 q 565 368 565 492 l 565 229 q 570 145 565 174 q 592 101 575 117 q 643 86 608 86 l 656 86 l 636 -14 l 626 -14 q 535 -3 568 -14 q 484 29 501 8 q 451 86 467 50 q 243 -14 365 -14 m 267 86 q 363 111 317 86 q 440 178 410 136 l 440 340 q 226 301 290 335 q 161 190 161 267 q 190 112 161 138 q 267 86 218 86 m 149 868 l 325 1021 l 501 868 l 501 783 l 325 894 l 149 783 l 149 868 m 267 -112 l 400 -112 l 400 -237 l 267 -237 l 267 -112 z "},"ầ":{"ha":667,"x_min":33,"x_max":656,"o":"m 243 -14 q 91 42 149 -14 q 33 183 33 97 q 156 368 33 313 q 440 426 278 424 q 405 551 440 518 q 292 583 369 583 q 206 570 249 583 q 113 522 163 557 l 94 624 q 197 675 136 656 q 325 694 258 694 q 465 664 413 694 q 541 563 517 633 q 565 368 565 492 l 565 229 q 570 145 565 174 q 592 101 575 117 q 643 86 608 86 l 656 86 l 636 -14 l 626 -14 q 535 -3 568 -14 q 484 29 501 8 q 451 86 467 50 q 243 -14 365 -14 m 267 86 q 363 111 317 86 q 440 178 410 136 l 440 340 q 226 301 290 335 q 161 190 161 267 q 190 112 161 138 q 267 86 218 86 m 449 957 l 328 1119 l 460 1119 l 538 957 l 449 957 m 501 839 l 501 754 l 325 846 l 149 754 l 149 839 l 325 964 l 501 839 z "},"ẩ":{"ha":667,"x_min":33,"x_max":656,"o":"m 243 -14 q 91 42 149 -14 q 33 183 33 97 q 156 368 33 313 q 440 426 278 424 q 405 551 440 518 q 292 583 369 583 q 206 570 249 583 q 113 522 163 557 l 94 624 q 197 675 136 656 q 325 694 258 694 q 465 664 413 694 q 541 563 517 633 q 565 368 565 492 l 565 229 q 570 145 565 174 q 592 101 575 117 q 643 86 608 86 l 656 86 l 636 -14 l 626 -14 q 535 -3 568 -14 q 484 29 501 8 q 451 86 467 50 q 243 -14 365 -14 m 267 86 q 363 111 317 86 q 440 178 410 136 l 440 340 q 226 301 290 335 q 161 190 161 267 q 190 112 161 138 q 267 86 218 86 m 501 839 l 501 754 l 325 846 l 149 754 l 149 839 l 325 964 l 501 839 m 446 975 q 494 1029 494 992 q 438 1074 494 1074 q 350 1047 400 1074 l 326 1118 q 438 1144 375 1144 q 536 1116 497 1144 q 575 1038 575 1088 q 547 962 575 990 q 458 919 519 933 l 446 975 z "},"ẫ":{"ha":667,"x_min":33,"x_max":656,"o":"m 243 -14 q 91 42 149 -14 q 33 183 33 97 q 156 368 33 313 q 440 426 278 424 q 405 551 440 518 q 292 583 369 583 q 206 570 249 583 q 113 522 163 557 l 94 624 q 197 675 136 656 q 325 694 258 694 q 465 664 413 694 q 541 563 517 633 q 565 368 565 492 l 565 229 q 570 145 565 174 q 592 101 575 117 q 643 86 608 86 l 656 86 l 636 -14 l 626 -14 q 535 -3 568 -14 q 484 29 501 8 q 451 86 467 50 q 243 -14 365 -14 m 267 86 q 363 111 317 86 q 440 178 410 136 l 440 340 q 226 301 290 335 q 161 190 161 267 q 190 112 161 138 q 267 86 218 86 m 501 839 l 501 754 l 325 846 l 149 754 l 149 839 l 325 964 l 501 839 m 440 1021 q 393 1028 418 1021 q 333 1051 368 1036 q 246 1078 272 1078 q 211 1065 224 1078 q 199 1028 199 1051 l 108 1028 q 135 1131 108 1094 q 210 1167 161 1167 q 257 1159 232 1167 q 317 1136 282 1151 q 404 1110 378 1110 q 439 1123 426 1110 q 451 1160 451 1136 l 542 1160 q 515 1057 542 1093 q 440 1021 489 1021 z "},"ȁ":{"ha":667,"x_min":33,"x_max":656,"o":"m 243 -14 q 91 42 149 -14 q 33 183 33 97 q 156 368 33 313 q 440 426 278 424 q 405 551 440 518 q 292 583 369 583 q 206 570 249 583 q 113 522 163 557 l 94 624 q 197 675 136 656 q 325 694 258 694 q 465 664 413 694 q 541 563 517 633 q 565 368 565 492 l 565 229 q 570 145 565 174 q 592 101 575 117 q 643 86 608 86 l 656 86 l 636 -14 l 626 -14 q 535 -3 568 -14 q 484 29 501 8 q 451 86 467 50 q 243 -14 365 -14 m 267 86 q 363 111 317 86 q 440 178 410 136 l 440 340 q 226 301 290 335 q 161 190 161 267 q 190 112 161 138 q 267 86 218 86 m 183 803 l 40 1035 l 176 1035 l 275 803 l 183 803 m 378 803 l 242 1035 l 378 1035 l 469 803 l 378 803 z "},"ä":{"ha":667,"x_min":33,"x_max":656,"o":"m 243 -14 q 91 42 149 -14 q 33 183 33 97 q 156 368 33 313 q 440 426 278 424 q 405 551 440 518 q 292 583 369 583 q 206 570 249 583 q 113 522 163 557 l 94 624 q 197 675 136 656 q 325 694 258 694 q 465 664 413 694 q 541 563 517 633 q 565 368 565 492 l 565 229 q 570 145 565 174 q 592 101 575 117 q 643 86 608 86 l 656 86 l 636 -14 l 626 -14 q 535 -3 568 -14 q 484 29 501 8 q 451 86 467 50 q 243 -14 365 -14 m 267 86 q 363 111 317 86 q 440 178 410 136 l 440 340 q 226 301 290 335 q 161 190 161 267 q 190 112 161 138 q 267 86 218 86 m 132 932 l 251 932 l 251 821 l 132 821 l 132 932 m 399 932 l 518 932 l 518 821 l 399 821 l 399 932 z "},"ạ":{"ha":667,"x_min":33,"x_max":656,"o":"m 243 -14 q 91 42 149 -14 q 33 183 33 97 q 156 368 33 313 q 440 426 278 424 q 405 551 440 518 q 292 583 369 583 q 206 570 249 583 q 113 522 163 557 l 94 624 q 197 675 136 656 q 325 694 258 694 q 465 664 413 694 q 541 563 517 633 q 565 368 565 492 l 565 229 q 570 145 565 174 q 592 101 575 117 q 643 86 608 86 l 656 86 l 636 -14 l 626 -14 q 535 -3 568 -14 q 484 29 501 8 q 451 86 467 50 q 243 -14 365 -14 m 267 86 q 363 111 317 86 q 440 178 410 136 l 440 340 q 226 301 290 335 q 161 190 161 267 q 190 112 161 138 q 267 86 218 86 m 267 -112 l 400 -112 l 400 -237 l 267 -237 l 267 -112 z "},"à":{"ha":667,"x_min":33,"x_max":656,"o":"m 243 -14 q 91 42 149 -14 q 33 183 33 97 q 156 368 33 313 q 440 426 278 424 q 405 551 440 518 q 292 583 369 583 q 206 570 249 583 q 113 522 163 557 l 94 624 q 197 675 136 656 q 325 694 258 694 q 465 664 413 694 q 541 563 517 633 q 565 368 565 492 l 565 229 q 570 145 565 174 q 592 101 575 117 q 643 86 608 86 l 656 86 l 636 -14 l 626 -14 q 535 -3 568 -14 q 484 29 501 8 q 451 86 467 50 q 243 -14 365 -14 m 267 86 q 363 111 317 86 q 440 178 410 136 l 440 340 q 226 301 290 335 q 161 190 161 267 q 190 112 161 138 q 267 86 218 86 m 194 901 l 194 1038 l 454 885 l 454 800 l 194 901 z "},"ả":{"ha":667,"x_min":33,"x_max":656,"o":"m 243 -14 q 91 42 149 -14 q 33 183 33 97 q 156 368 33 313 q 440 426 278 424 q 405 551 440 518 q 292 583 369 583 q 206 570 249 583 q 113 522 163 557 l 94 624 q 197 675 136 656 q 325 694 258 694 q 465 664 413 694 q 541 563 517 633 q 565 368 565 492 l 565 229 q 570 145 565 174 q 592 101 575 117 q 643 86 608 86 l 656 86 l 636 -14 l 626 -14 q 535 -3 568 -14 q 484 29 501 8 q 451 86 467 50 q 243 -14 365 -14 m 267 86 q 363 111 317 86 q 440 178 410 136 l 440 340 q 226 301 290 335 q 161 190 161 267 q 190 112 161 138 q 267 86 218 86 m 299 775 q 348 829 336 813 q 360 868 360 846 q 344 906 360 893 q 303 918 329 918 q 215 892 265 918 l 192 963 q 303 989 240 989 q 401 958 363 989 q 440 872 440 926 q 419 799 440 831 q 346 729 397 768 l 299 775 z "},"ȃ":{"ha":667,"x_min":33,"x_max":656,"o":"m 243 -14 q 91 42 149 -14 q 33 183 33 97 q 156 368 33 313 q 440 426 278 424 q 405 551 440 518 q 292 583 369 583 q 206 570 249 583 q 113 522 163 557 l 94 624 q 197 675 136 656 q 325 694 258 694 q 465 664 413 694 q 541 563 517 633 q 565 368 565 492 l 565 229 q 570 145 565 174 q 592 101 575 117 q 643 86 608 86 l 656 86 l 636 -14 l 626 -14 q 535 -3 568 -14 q 484 29 501 8 q 451 86 467 50 q 243 -14 365 -14 m 267 86 q 363 111 317 86 q 440 178 410 136 l 440 340 q 226 301 290 335 q 161 190 161 267 q 190 112 161 138 q 267 86 218 86 m 325 976 q 476 925 424 976 q 528 800 528 874 l 417 800 q 391 863 417 840 q 325 885 365 885 q 259 863 285 885 q 233 800 233 840 l 122 800 q 174 925 122 874 q 325 976 226 976 z "},"ā":{"ha":667,"x_min":33,"x_max":656,"o":"m 243 -14 q 91 42 149 -14 q 33 183 33 97 q 156 368 33 313 q 440 426 278 424 q 405 551 440 518 q 292 583 369 583 q 206 570 249 583 q 113 522 163 557 l 94 624 q 197 675 136 656 q 325 694 258 694 q 465 664 413 694 q 541 563 517 633 q 565 368 565 492 l 565 229 q 570 145 565 174 q 592 101 575 117 q 643 86 608 86 l 656 86 l 636 -14 l 626 -14 q 535 -3 568 -14 q 484 29 501 8 q 451 86 467 50 q 243 -14 365 -14 m 267 86 q 363 111 317 86 q 440 178 410 136 l 440 340 q 226 301 290 335 q 161 190 161 267 q 190 112 161 138 q 267 86 218 86 m 103 919 l 547 919 l 547 821 l 103 821 l 103 919 z "},"ą":{"ha":667,"x_min":33,"x_max":690,"o":"m 690 -262 q 575 -289 640 -289 q 474 -258 514 -289 q 435 -169 435 -226 q 466 -76 435 -121 q 542 -4 497 -32 q 487 26 506 6 q 451 86 468 47 q 243 -14 365 -14 q 91 42 149 -14 q 33 183 33 97 q 156 368 33 313 q 440 426 278 424 q 405 551 440 518 q 292 583 369 583 q 206 570 249 583 q 113 522 163 557 l 94 624 q 197 675 136 656 q 325 694 258 694 q 465 664 413 694 q 541 563 517 633 q 565 368 565 492 l 565 229 q 570 145 565 174 q 592 101 575 117 q 643 86 608 86 l 656 86 l 636 -14 l 626 -14 l 607 -14 q 539 -82 563 -50 q 515 -147 515 -114 q 533 -200 515 -182 q 582 -218 551 -218 q 669 -194 626 -218 l 690 -262 m 440 340 q 226 301 290 335 q 161 190 161 267 q 190 112 161 138 q 267 86 218 86 q 363 111 317 86 q 440 178 410 136 l 440 340 z "},"å":{"ha":667,"x_min":33,"x_max":656,"o":"m 243 -14 q 91 42 149 -14 q 33 183 33 97 q 156 368 33 313 q 440 426 278 424 q 405 551 440 518 q 292 583 369 583 q 206 570 249 583 q 113 522 163 557 l 94 624 q 197 675 136 656 q 325 694 258 694 q 465 664 413 694 q 541 563 517 633 q 565 368 565 492 l 565 229 q 570 145 565 174 q 592 101 575 117 q 643 86 608 86 l 656 86 l 636 -14 l 626 -14 q 535 -3 568 -14 q 484 29 501 8 q 451 86 467 50 q 243 -14 365 -14 m 267 86 q 363 111 317 86 q 440 178 410 136 l 440 340 q 226 301 290 335 q 161 190 161 267 q 190 112 161 138 q 267 86 218 86 m 325 789 q 219 829 257 789 q 181 928 181 869 q 219 1026 181 985 q 325 1067 258 1067 q 431 1026 393 1067 q 469 928 469 985 q 432 829 469 869 q 325 789 394 789 m 325 850 q 380 872 357 850 q 403 928 403 893 q 380 983 403 961 q 325 1006 357 1006 q 270 983 293 1006 q 247 928 247 961 q 270 872 247 893 q 325 850 293 850 z "},"ǻ":{"ha":667,"x_min":33,"x_max":656,"o":"m 243 -14 q 91 42 149 -14 q 33 183 33 97 q 156 368 33 313 q 440 426 278 424 q 405 551 440 518 q 292 583 369 583 q 206 570 249 583 q 113 522 163 557 l 94 624 q 197 675 136 656 q 325 694 258 694 q 465 664 413 694 q 541 563 517 633 q 565 368 565 492 l 565 229 q 570 145 565 174 q 592 101 575 117 q 643 86 608 86 l 656 86 l 636 -14 l 626 -14 q 535 -3 568 -14 q 484 29 501 8 q 451 86 467 50 q 243 -14 365 -14 m 267 86 q 363 111 317 86 q 440 178 410 136 l 440 340 q 226 301 290 335 q 161 190 161 267 q 190 112 161 138 q 267 86 218 86 m 325 789 q 219 829 257 789 q 181 928 181 869 q 219 1026 181 985 q 325 1067 258 1067 q 431 1026 393 1067 q 469 928 469 985 q 432 829 469 869 q 325 789 394 789 m 325 850 q 380 872 357 850 q 403 928 403 893 q 380 983 403 961 q 325 1006 357 1006 q 270 983 293 1006 q 247 928 247 961 q 270 872 247 893 q 325 850 293 850 m 196 1201 l 456 1333 l 456 1201 l 196 1121 l 196 1201 z "},"ã":{"ha":667,"x_min":33,"x_max":656,"o":"m 243 -14 q 91 42 149 -14 q 33 183 33 97 q 156 368 33 313 q 440 426 278 424 q 405 551 440 518 q 292 583 369 583 q 206 570 249 583 q 113 522 163 557 l 94 624 q 197 675 136 656 q 325 694 258 694 q 465 664 413 694 q 541 563 517 633 q 565 368 565 492 l 565 229 q 570 145 565 174 q 592 101 575 117 q 643 86 608 86 l 656 86 l 636 -14 l 626 -14 q 535 -3 568 -14 q 484 29 501 8 q 451 86 467 50 q 243 -14 365 -14 m 267 86 q 363 111 317 86 q 440 178 410 136 l 440 340 q 226 301 290 335 q 161 190 161 267 q 190 112 161 138 q 267 86 218 86 m 436 806 q 389 815 413 806 q 333 840 365 824 q 283 863 301 856 q 246 871 264 871 q 211 856 224 871 q 199 817 199 842 l 94 817 q 128 931 97 892 q 214 971 158 971 q 261 962 238 971 q 317 936 285 953 q 367 913 349 921 q 404 906 386 906 q 439 920 426 906 q 451 960 451 935 l 556 960 q 522 845 553 885 q 436 806 492 806 z "},"æ":{"ha":1083,"x_min":33,"x_max":1042,"o":"m 1042 407 q 1036 340 1042 372 l 575 340 q 645 155 579 213 q 813 97 711 97 q 994 138 894 97 l 1011 39 q 797 -14 915 -14 q 628 22 701 -14 q 510 121 556 57 q 399 24 467 61 q 257 -14 331 -14 q 95 42 157 -14 q 33 183 33 97 q 153 367 33 314 q 443 426 272 421 q 406 545 440 507 q 292 583 371 583 q 206 570 249 583 q 113 522 163 557 l 94 624 q 197 675 136 656 q 325 694 258 694 q 456 668 406 694 q 533 582 507 642 q 637 665 576 635 q 772 694 697 694 q 969 614 897 694 q 1042 407 1042 533 m 913 426 q 874 540 913 496 q 761 583 835 583 q 643 543 690 583 q 581 426 596 503 l 913 426 m 281 86 q 388 113 339 86 q 474 189 436 139 q 443 340 443 261 q 228 303 294 339 q 161 190 161 267 q 193 112 161 138 q 281 86 225 86 z "},"ǽ":{"ha":1083,"x_min":33,"x_max":1042,"o":"m 1042 407 q 1036 340 1042 372 l 575 340 q 645 155 579 213 q 813 97 711 97 q 994 138 894 97 l 1011 39 q 797 -14 915 -14 q 628 22 701 -14 q 510 121 556 57 q 399 24 467 61 q 257 -14 331 -14 q 95 42 157 -14 q 33 183 33 97 q 153 367 33 314 q 443 426 272 421 q 406 545 440 507 q 292 583 371 583 q 206 570 249 583 q 113 522 163 557 l 94 624 q 197 675 136 656 q 325 694 258 694 q 456 668 406 694 q 533 582 507 642 q 637 665 576 635 q 772 694 697 694 q 969 614 897 694 q 1042 407 1042 533 m 913 426 q 874 540 913 496 q 761 583 835 583 q 643 543 690 583 q 581 426 596 503 l 913 426 m 281 86 q 388 113 339 86 q 474 189 436 139 q 443 340 443 261 q 228 303 294 339 q 161 190 161 267 q 193 112 161 138 q 281 86 225 86 m 433 885 l 693 1038 l 693 901 l 433 800 l 433 885 z "},"b":{"ha":771,"x_min":83,"x_max":726,"o":"m 419 694 q 581 646 511 694 q 689 516 651 597 q 726 340 726 435 q 685 162 726 243 q 574 33 644 81 q 419 -14 504 -14 q 299 12 357 -14 q 208 83 240 38 l 194 0 l 83 0 l 83 1042 l 208 1042 l 208 601 q 302 669 246 644 q 419 694 358 694 m 404 97 q 545 167 492 97 q 599 340 599 238 q 545 515 599 446 q 404 583 492 583 q 260 520 318 583 q 201 340 201 457 q 259 158 201 219 q 404 97 317 97 z "},"c":{"ha":631,"x_min":46,"x_max":593,"o":"m 397 -14 q 206 32 286 -14 q 86 158 126 78 q 46 336 46 238 q 137 596 46 497 q 407 694 228 694 q 593 654 513 694 l 574 544 q 404 583 489 583 q 233 520 293 583 q 174 342 174 457 q 231 161 174 226 q 401 96 289 96 q 575 138 492 96 l 592 38 q 508 1 561 17 q 397 -14 454 -14 z "},"ć":{"ha":631,"x_min":46,"x_max":593,"o":"m 397 -14 q 206 32 286 -14 q 86 158 126 78 q 46 336 46 238 q 137 596 46 497 q 407 694 228 694 q 593 654 513 694 l 574 544 q 404 583 489 583 q 233 520 293 583 q 174 342 174 457 q 231 161 174 226 q 401 96 289 96 q 575 138 492 96 l 592 38 q 508 1 561 17 q 397 -14 454 -14 m 249 885 l 508 1038 l 508 901 l 249 800 l 249 885 z "},"č":{"ha":631,"x_min":46,"x_max":593,"o":"m 397 -14 q 206 32 286 -14 q 86 158 126 78 q 46 336 46 238 q 137 596 46 497 q 407 694 228 694 q 593 654 513 694 l 574 544 q 404 583 489 583 q 233 520 293 583 q 174 342 174 457 q 231 161 174 226 q 401 96 289 96 q 575 138 492 96 l 592 38 q 508 1 561 17 q 397 -14 454 -14 m 201 928 l 201 1013 l 378 901 l 554 1013 l 554 928 l 378 775 l 201 928 z "},"ç":{"ha":631,"x_min":46,"x_max":593,"o":"m 592 38 q 511 2 564 17 q 403 -14 458 -12 l 383 -75 l 394 -75 q 483 -105 450 -75 q 515 -187 515 -135 q 474 -281 515 -247 q 368 -314 432 -314 q 260 -287 307 -314 l 281 -219 q 368 -243 324 -243 q 417 -229 399 -243 q 435 -190 435 -215 q 417 -149 435 -164 q 365 -135 400 -135 q 301 -146 333 -135 l 335 -10 q 121 103 196 8 q 46 336 46 199 q 137 596 46 497 q 407 694 228 694 q 593 654 513 694 l 574 544 q 404 583 489 583 q 233 520 293 583 q 174 342 174 457 q 231 161 174 226 q 401 96 289 96 q 575 138 492 96 l 592 38 z "},"ḉ":{"ha":631,"x_min":46,"x_max":593,"o":"m 508 901 l 249 800 l 249 885 l 508 1038 l 508 901 m 592 38 q 511 2 564 17 q 403 -14 458 -12 l 383 -75 l 394 -75 q 483 -105 450 -75 q 515 -187 515 -135 q 474 -281 515 -247 q 368 -314 432 -314 q 260 -287 307 -314 l 281 -219 q 368 -243 324 -243 q 417 -229 399 -243 q 435 -190 435 -215 q 417 -149 435 -164 q 365 -135 400 -135 q 301 -146 333 -135 l 335 -10 q 121 103 196 8 q 46 336 46 199 q 137 596 46 497 q 407 694 228 694 q 593 654 513 694 l 574 544 q 404 583 489 583 q 233 520 293 583 q 174 342 174 457 q 231 161 174 226 q 401 96 289 96 q 575 138 492 96 l 592 38 z "},"ĉ":{"ha":631,"x_min":46,"x_max":593,"o":"m 397 -14 q 206 32 286 -14 q 86 158 126 78 q 46 336 46 238 q 137 596 46 497 q 407 694 228 694 q 593 654 513 694 l 574 544 q 404 583 489 583 q 233 520 293 583 q 174 342 174 457 q 231 161 174 226 q 401 96 289 96 q 575 138 492 96 l 592 38 q 508 1 561 17 q 397 -14 454 -14 m 201 868 l 378 1021 l 554 868 l 554 783 l 378 894 l 201 783 l 201 868 z "},"ċ":{"ha":631,"x_min":46,"x_max":593,"o":"m 397 -14 q 206 32 286 -14 q 86 158 126 78 q 46 336 46 238 q 137 596 46 497 q 407 694 228 694 q 593 654 513 694 l 574 544 q 404 583 489 583 q 233 520 293 583 q 174 342 174 457 q 231 161 174 226 q 401 96 289 96 q 575 138 492 96 l 592 38 q 508 1 561 17 q 397 -14 454 -14 m 311 946 l 444 946 l 444 821 l 311 821 l 311 946 z "},"d":{"ha":771,"x_min":44,"x_max":688,"o":"m 688 1042 l 688 0 l 576 0 l 563 83 q 472 11 528 36 q 354 -14 417 -14 q 197 33 268 -14 q 85 161 126 81 q 44 339 44 242 q 83 515 44 433 q 192 646 121 597 q 354 694 263 694 q 469 672 415 694 q 563 604 524 650 l 563 1042 l 688 1042 m 376 97 q 472 123 426 97 q 547 203 518 149 q 576 339 576 257 q 547 471 576 415 q 472 555 518 526 q 376 583 425 583 q 227 515 282 583 q 172 339 172 446 q 228 167 172 236 q 376 97 283 97 z "},"ð":{"ha":718,"x_min":39,"x_max":672,"o":"m 488 836 q 623 617 574 746 q 672 357 672 489 q 630 158 672 243 q 513 28 588 74 q 346 -17 439 -17 q 183 24 253 -17 q 76 135 113 65 q 39 285 39 204 q 77 438 39 367 q 184 550 115 508 q 338 592 253 592 q 447 569 400 592 q 519 515 493 546 q 478 662 508 592 q 401 786 449 732 l 242 693 l 196 768 l 332 847 q 196 908 272 890 l 217 974 q 417 896 325 964 l 549 972 l 593 897 l 488 836 m 351 99 q 472 152 426 99 q 518 289 518 206 q 473 424 518 372 q 353 476 428 476 q 226 422 274 476 q 178 292 178 367 q 226 154 178 210 q 351 99 274 99 z "},"ď":{"ha":863,"x_min":44,"x_max":888,"o":"m 688 1042 l 688 0 l 576 0 l 563 83 q 472 11 528 36 q 354 -14 417 -14 q 197 33 268 -14 q 85 161 126 81 q 44 339 44 242 q 83 515 44 433 q 192 646 121 597 q 354 694 263 694 q 469 672 415 694 q 563 604 524 650 l 563 1042 l 688 1042 m 376 97 q 472 123 426 97 q 547 203 518 149 q 576 339 576 257 q 547 471 576 415 q 472 555 518 526 q 376 583 425 583 q 227 515 282 583 q 172 339 172 446 q 228 167 172 236 q 376 97 283 97 m 757 1042 l 888 1042 l 849 810 l 757 810 l 757 1042 z "},"đ":{"ha":771,"x_min":44,"x_max":793,"o":"m 793 815 l 688 815 l 688 0 l 576 0 l 563 83 q 472 11 528 36 q 354 -14 417 -14 q 197 33 268 -14 q 85 161 126 81 q 44 339 44 242 q 83 515 44 433 q 192 646 121 597 q 354 694 263 694 q 469 672 415 694 q 563 604 524 650 l 563 815 l 354 815 l 354 913 l 563 913 l 563 1042 l 688 1042 l 688 913 l 793 913 l 793 815 m 376 97 q 472 123 426 97 q 547 203 518 149 q 576 339 576 257 q 547 471 576 415 q 472 555 518 526 q 376 583 425 583 q 227 515 282 583 q 172 339 172 446 q 228 167 172 236 q 376 97 283 97 z "},"ḍ":{"ha":771,"x_min":44,"x_max":688,"o":"m 688 1042 l 688 0 l 576 0 l 563 83 q 472 11 528 36 q 354 -14 417 -14 q 197 33 268 -14 q 85 161 126 81 q 44 339 44 242 q 83 515 44 433 q 192 646 121 597 q 354 694 263 694 q 469 672 415 694 q 563 604 524 650 l 563 1042 l 688 1042 m 376 97 q 472 123 426 97 q 547 203 518 149 q 576 339 576 257 q 547 471 576 415 q 472 555 518 526 q 376 583 425 583 q 227 515 282 583 q 172 339 172 446 q 228 167 172 236 q 376 97 283 97 m 319 -112 l 453 -112 l 453 -237 l 319 -237 l 319 -112 z "},"ḏ":{"ha":771,"x_min":44,"x_max":688,"o":"m 688 1042 l 688 0 l 576 0 l 563 83 q 472 11 528 36 q 354 -14 417 -14 q 197 33 268 -14 q 85 161 126 81 q 44 339 44 242 q 83 515 44 433 q 192 646 121 597 q 354 694 263 694 q 469 672 415 694 q 563 604 524 650 l 563 1042 l 688 1042 m 376 97 q 472 123 426 97 q 547 203 518 149 q 576 339 576 257 q 547 471 576 415 q 472 555 518 526 q 376 583 425 583 q 227 515 282 583 q 172 339 172 446 q 228 167 172 236 q 376 97 283 97 m 164 -126 l 608 -126 l 608 -225 l 164 -225 l 164 -126 z "},"ǆ":{"ha":1425,"x_min":44,"x_max":1390,"o":"m 688 1042 l 688 0 l 576 0 l 563 83 q 472 11 528 36 q 354 -14 417 -14 q 197 33 268 -14 q 85 161 126 81 q 44 339 44 242 q 83 515 44 433 q 192 646 121 597 q 354 694 263 694 q 469 672 415 694 q 563 604 524 650 l 563 1042 l 688 1042 m 376 97 q 472 123 426 97 q 547 203 518 149 q 576 339 576 257 q 547 471 576 415 q 472 555 518 526 q 376 583 425 583 q 227 515 282 583 q 172 339 172 446 q 228 167 172 236 q 376 97 283 97 m 1011 110 l 1383 110 l 1383 0 l 801 0 l 1181 571 l 824 571 l 824 681 l 1390 681 l 1011 110 m 929 942 l 929 1026 l 1106 915 l 1282 1026 l 1282 942 l 1106 789 l 929 942 z "},"e":{"ha":711,"x_min":43,"x_max":669,"o":"m 411 -14 q 212 34 294 -14 q 86 164 129 82 q 43 346 43 246 q 83 522 43 442 q 198 648 122 601 q 376 694 274 694 q 588 618 507 694 q 669 407 669 542 q 664 340 669 372 l 171 340 q 251 153 183 208 q 426 97 319 97 q 622 138 533 97 l 639 39 q 411 -14 521 -14 m 540 426 q 499 542 540 500 q 374 583 457 583 q 247 544 293 583 q 182 426 201 504 l 540 426 z "},"é":{"ha":711,"x_min":43,"x_max":669,"o":"m 411 -14 q 212 34 294 -14 q 86 164 129 82 q 43 346 43 246 q 83 522 43 442 q 198 648 122 601 q 376 694 274 694 q 588 618 507 694 q 669 407 669 542 q 664 340 669 372 l 171 340 q 251 153 183 208 q 426 97 319 97 q 622 138 533 97 l 639 39 q 411 -14 521 -14 m 540 426 q 499 542 540 500 q 374 583 457 583 q 247 544 293 583 q 182 426 201 504 l 540 426 m 257 885 l 517 1038 l 517 901 l 257 800 l 257 885 z "},"ĕ":{"ha":711,"x_min":43,"x_max":669,"o":"m 411 -14 q 212 34 294 -14 q 86 164 129 82 q 43 346 43 246 q 83 522 43 442 q 198 648 122 601 q 376 694 274 694 q 588 618 507 694 q 669 407 669 542 q 664 340 669 372 l 171 340 q 251 153 183 208 q 426 97 319 97 q 622 138 533 97 l 639 39 q 411 -14 521 -14 m 540 426 q 499 542 540 500 q 374 583 457 583 q 247 544 293 583 q 182 426 201 504 l 540 426 m 386 800 q 235 851 288 800 q 183 976 183 903 l 294 976 q 320 914 294 936 q 386 892 346 892 q 452 914 426 892 q 478 976 478 936 l 589 976 q 537 851 589 903 q 386 800 485 800 z "},"ě":{"ha":711,"x_min":43,"x_max":669,"o":"m 411 -14 q 212 34 294 -14 q 86 164 129 82 q 43 346 43 246 q 83 522 43 442 q 198 648 122 601 q 376 694 274 694 q 588 618 507 694 q 669 407 669 542 q 664 340 669 372 l 171 340 q 251 153 183 208 q 426 97 319 97 q 622 138 533 97 l 639 39 q 411 -14 521 -14 m 540 426 q 499 542 540 500 q 374 583 457 583 q 247 544 293 583 q 182 426 201 504 l 540 426 m 210 928 l 210 1013 l 386 901 l 563 1013 l 563 928 l 386 775 l 210 928 z "},"ḝ":{"ha":711,"x_min":43,"x_max":669,"o":"m 386 800 q 235 851 288 800 q 183 976 183 903 l 294 976 q 320 914 294 936 q 386 892 346 892 q 452 914 426 892 q 478 976 478 936 l 589 976 q 537 851 589 903 q 386 800 485 800 m 669 407 q 664 340 669 372 l 171 340 q 251 153 183 208 q 426 97 319 97 q 622 138 533 97 l 639 39 q 411 -14 521 -14 l 390 -14 l 371 -75 l 382 -75 q 470 -105 438 -75 q 503 -187 503 -135 q 461 -281 503 -247 q 356 -314 419 -314 q 247 -287 294 -314 l 268 -219 q 356 -243 311 -243 q 404 -229 386 -243 q 422 -190 422 -215 q 405 -149 422 -164 q 353 -135 388 -135 q 289 -146 321 -135 l 324 -6 q 117 117 190 19 q 43 346 43 214 q 83 522 43 442 q 198 648 122 601 q 376 694 274 694 q 588 618 507 694 q 669 407 669 542 m 540 426 q 499 542 540 500 q 374 583 457 583 q 247 544 293 583 q 182 426 201 504 l 540 426 z "},"ê":{"ha":711,"x_min":43,"x_max":669,"o":"m 411 -14 q 212 34 294 -14 q 86 164 129 82 q 43 346 43 246 q 83 522 43 442 q 198 648 122 601 q 376 694 274 694 q 588 618 507 694 q 669 407 669 542 q 664 340 669 372 l 171 340 q 251 153 183 208 q 426 97 319 97 q 622 138 533 97 l 639 39 q 411 -14 521 -14 m 540 426 q 499 542 540 500 q 374 583 457 583 q 247 544 293 583 q 182 426 201 504 l 540 426 m 210 868 l 386 1021 l 563 868 l 563 783 l 386 894 l 210 783 l 210 868 z "},"ế":{"ha":711,"x_min":43,"x_max":718,"o":"m 411 -14 q 212 34 294 -14 q 86 164 129 82 q 43 346 43 246 q 83 522 43 442 q 198 648 122 601 q 376 694 274 694 q 588 618 507 694 q 669 407 669 542 q 664 340 669 372 l 171 340 q 251 153 183 208 q 426 97 319 97 q 622 138 533 97 l 639 39 q 411 -14 521 -14 m 540 426 q 499 542 540 500 q 374 583 457 583 q 247 544 293 583 q 182 426 201 504 l 540 426 m 582 1119 l 718 1119 l 582 957 l 490 957 l 582 1119 m 563 839 l 563 754 l 386 846 l 210 754 l 210 839 l 386 964 l 563 839 z "},"ệ":{"ha":711,"x_min":43,"x_max":669,"o":"m 411 -14 q 212 34 294 -14 q 86 164 129 82 q 43 346 43 246 q 83 522 43 442 q 198 648 122 601 q 376 694 274 694 q 588 618 507 694 q 669 407 669 542 q 664 340 669 372 l 171 340 q 251 153 183 208 q 426 97 319 97 q 622 138 533 97 l 639 39 q 411 -14 521 -14 m 540 426 q 499 542 540 500 q 374 583 457 583 q 247 544 293 583 q 182 426 201 504 l 540 426 m 210 868 l 386 1021 l 563 868 l 563 783 l 386 894 l 210 783 l 210 868 m 289 -112 l 422 -112 l 422 -237 l 289 -237 l 289 -112 z "},"ề":{"ha":711,"x_min":43,"x_max":669,"o":"m 411 -14 q 212 34 294 -14 q 86 164 129 82 q 43 346 43 246 q 83 522 43 442 q 198 648 122 601 q 376 694 274 694 q 588 618 507 694 q 669 407 669 542 q 664 340 669 372 l 171 340 q 251 153 183 208 q 426 97 319 97 q 622 138 533 97 l 639 39 q 411 -14 521 -14 m 540 426 q 499 542 540 500 q 374 583 457 583 q 247 544 293 583 q 182 426 201 504 l 540 426 m 510 957 l 389 1119 l 521 1119 l 599 957 l 510 957 m 563 839 l 563 754 l 386 846 l 210 754 l 210 839 l 386 964 l 563 839 z "},"ể":{"ha":711,"x_min":43,"x_max":669,"o":"m 411 -14 q 212 34 294 -14 q 86 164 129 82 q 43 346 43 246 q 83 522 43 442 q 198 648 122 601 q 376 694 274 694 q 588 618 507 694 q 669 407 669 542 q 664 340 669 372 l 171 340 q 251 153 183 208 q 426 97 319 97 q 622 138 533 97 l 639 39 q 411 -14 521 -14 m 540 426 q 499 542 540 500 q 374 583 457 583 q 247 544 293 583 q 182 426 201 504 l 540 426 m 563 839 l 563 754 l 386 846 l 210 754 l 210 839 l 386 964 l 563 839 m 507 975 q 556 1029 556 992 q 499 1074 556 1074 q 411 1047 461 1074 l 388 1118 q 499 1144 436 1144 q 597 1116 558 1144 q 636 1038 636 1088 q 608 962 636 990 q 519 919 581 933 l 507 975 z "},"ễ":{"ha":711,"x_min":43,"x_max":669,"o":"m 411 -14 q 212 34 294 -14 q 86 164 129 82 q 43 346 43 246 q 83 522 43 442 q 198 648 122 601 q 376 694 274 694 q 588 618 507 694 q 669 407 669 542 q 664 340 669 372 l 171 340 q 251 153 183 208 q 426 97 319 97 q 622 138 533 97 l 639 39 q 411 -14 521 -14 m 540 426 q 499 542 540 500 q 374 583 457 583 q 247 544 293 583 q 182 426 201 504 l 540 426 m 563 839 l 563 754 l 386 846 l 210 754 l 210 839 l 386 964 l 563 839 m 501 1021 q 454 1028 479 1021 q 394 1051 429 1036 q 307 1078 333 1078 q 272 1065 285 1078 q 260 1028 260 1051 l 169 1028 q 196 1131 169 1094 q 271 1167 222 1167 q 318 1159 293 1167 q 378 1136 343 1151 q 465 1110 439 1110 q 500 1123 488 1110 q 513 1160 513 1136 l 603 1160 q 576 1057 603 1093 q 501 1021 550 1021 z "},"ȅ":{"ha":711,"x_min":43,"x_max":669,"o":"m 411 -14 q 212 34 294 -14 q 86 164 129 82 q 43 346 43 246 q 83 522 43 442 q 198 648 122 601 q 376 694 274 694 q 588 618 507 694 q 669 407 669 542 q 664 340 669 372 l 171 340 q 251 153 183 208 q 426 97 319 97 q 622 138 533 97 l 639 39 q 411 -14 521 -14 m 540 426 q 499 542 540 500 q 374 583 457 583 q 247 544 293 583 q 182 426 201 504 l 540 426 m 244 803 l 101 1035 l 238 1035 l 336 803 l 244 803 m 439 803 l 303 1035 l 439 1035 l 531 803 l 439 803 z "},"ë":{"ha":711,"x_min":43,"x_max":669,"o":"m 411 -14 q 212 34 294 -14 q 86 164 129 82 q 43 346 43 246 q 83 522 43 442 q 198 648 122 601 q 376 694 274 694 q 588 618 507 694 q 669 407 669 542 q 664 340 669 372 l 171 340 q 251 153 183 208 q 426 97 319 97 q 622 138 533 97 l 639 39 q 411 -14 521 -14 m 540 426 q 499 542 540 500 q 374 583 457 583 q 247 544 293 583 q 182 426 201 504 l 540 426 m 193 932 l 313 932 l 313 821 l 193 821 l 193 932 m 460 932 l 579 932 l 579 821 l 460 821 l 460 932 z "},"ė":{"ha":711,"x_min":43,"x_max":669,"o":"m 411 -14 q 212 34 294 -14 q 86 164 129 82 q 43 346 43 246 q 83 522 43 442 q 198 648 122 601 q 376 694 274 694 q 588 618 507 694 q 669 407 669 542 q 664 340 669 372 l 171 340 q 251 153 183 208 q 426 97 319 97 q 622 138 533 97 l 639 39 q 411 -14 521 -14 m 540 426 q 499 542 540 500 q 374 583 457 583 q 247 544 293 583 q 182 426 201 504 l 540 426 m 319 946 l 453 946 l 453 821 l 319 821 l 319 946 z "},"ẹ":{"ha":711,"x_min":43,"x_max":669,"o":"m 411 -14 q 212 34 294 -14 q 86 164 129 82 q 43 346 43 246 q 83 522 43 442 q 198 648 122 601 q 376 694 274 694 q 588 618 507 694 q 669 407 669 542 q 664 340 669 372 l 171 340 q 251 153 183 208 q 426 97 319 97 q 622 138 533 97 l 639 39 q 411 -14 521 -14 m 540 426 q 499 542 540 500 q 374 583 457 583 q 247 544 293 583 q 182 426 201 504 l 540 426 m 289 -112 l 422 -112 l 422 -237 l 289 -237 l 289 -112 z "},"è":{"ha":711,"x_min":43,"x_max":669,"o":"m 411 -14 q 212 34 294 -14 q 86 164 129 82 q 43 346 43 246 q 83 522 43 442 q 198 648 122 601 q 376 694 274 694 q 588 618 507 694 q 669 407 669 542 q 664 340 669 372 l 171 340 q 251 153 183 208 q 426 97 319 97 q 622 138 533 97 l 639 39 q 411 -14 521 -14 m 540 426 q 499 542 540 500 q 374 583 457 583 q 247 544 293 583 q 182 426 201 504 l 540 426 m 256 901 l 256 1038 l 515 885 l 515 800 l 256 901 z "},"ẻ":{"ha":711,"x_min":43,"x_max":669,"o":"m 411 -14 q 212 34 294 -14 q 86 164 129 82 q 43 346 43 246 q 83 522 43 442 q 198 648 122 601 q 376 694 274 694 q 588 618 507 694 q 669 407 669 542 q 664 340 669 372 l 171 340 q 251 153 183 208 q 426 97 319 97 q 622 138 533 97 l 639 39 q 411 -14 521 -14 m 540 426 q 499 542 540 500 q 374 583 457 583 q 247 544 293 583 q 182 426 201 504 l 540 426 m 360 775 q 409 829 397 813 q 421 868 421 846 q 406 906 421 893 q 364 918 390 918 q 276 892 326 918 l 253 963 q 364 989 301 989 q 463 958 424 989 q 501 872 501 926 q 480 799 501 831 q 407 729 458 768 l 360 775 z "},"ȇ":{"ha":711,"x_min":43,"x_max":669,"o":"m 411 -14 q 212 34 294 -14 q 86 164 129 82 q 43 346 43 246 q 83 522 43 442 q 198 648 122 601 q 376 694 274 694 q 588 618 507 694 q 669 407 669 542 q 664 340 669 372 l 171 340 q 251 153 183 208 q 426 97 319 97 q 622 138 533 97 l 639 39 q 411 -14 521 -14 m 540 426 q 499 542 540 500 q 374 583 457 583 q 247 544 293 583 q 182 426 201 504 l 540 426 m 386 976 q 537 925 485 976 q 589 800 589 874 l 478 800 q 452 863 478 840 q 386 885 426 885 q 320 863 346 885 q 294 800 294 840 l 183 800 q 235 925 183 874 q 386 976 288 976 z "},"ē":{"ha":711,"x_min":43,"x_max":669,"o":"m 411 -14 q 212 34 294 -14 q 86 164 129 82 q 43 346 43 246 q 83 522 43 442 q 198 648 122 601 q 376 694 274 694 q 588 618 507 694 q 669 407 669 542 q 664 340 669 372 l 171 340 q 251 153 183 208 q 426 97 319 97 q 622 138 533 97 l 639 39 q 411 -14 521 -14 m 540 426 q 499 542 540 500 q 374 583 457 583 q 247 544 293 583 q 182 426 201 504 l 540 426 m 164 919 l 608 919 l 608 821 l 164 821 l 164 919 z "},"ḗ":{"ha":711,"x_min":43,"x_max":669,"o":"m 411 -14 q 212 34 294 -14 q 86 164 129 82 q 43 346 43 246 q 83 522 43 442 q 198 648 122 601 q 376 694 274 694 q 588 618 507 694 q 669 407 669 542 q 664 340 669 372 l 171 340 q 251 153 183 208 q 426 97 319 97 q 622 138 533 97 l 639 39 q 411 -14 521 -14 m 540 426 q 499 542 540 500 q 374 583 457 583 q 247 544 293 583 q 182 426 201 504 l 540 426 m 164 904 l 608 904 l 608 810 l 164 810 l 164 904 m 257 1089 l 517 1221 l 517 1089 l 257 1008 l 257 1089 z "},"ḕ":{"ha":711,"x_min":43,"x_max":669,"o":"m 411 -14 q 212 34 294 -14 q 86 164 129 82 q 43 346 43 246 q 83 522 43 442 q 198 648 122 601 q 376 694 274 694 q 588 618 507 694 q 669 407 669 542 q 664 340 669 372 l 171 340 q 251 153 183 208 q 426 97 319 97 q 622 138 533 97 l 639 39 q 411 -14 521 -14 m 540 426 q 499 542 540 500 q 374 583 457 583 q 247 544 293 583 q 182 426 201 504 l 540 426 m 164 904 l 608 904 l 608 810 l 164 810 l 164 904 m 256 1089 l 256 1221 l 515 1089 l 515 1008 l 256 1089 z "},"ę":{"ha":711,"x_min":43,"x_max":706,"o":"m 706 -224 q 590 -250 656 -250 q 490 -219 529 -250 q 450 -131 450 -187 q 510 -4 450 -64 q 411 -14 456 -14 q 212 34 294 -14 q 86 164 129 82 q 43 346 43 246 q 83 522 43 442 q 198 648 122 601 q 376 694 274 694 q 588 618 507 694 q 669 407 669 542 q 664 340 669 372 l 171 340 q 251 153 183 208 q 426 97 319 97 q 622 138 533 97 l 639 39 q 558 -37 586 -1 q 531 -108 531 -72 q 549 -161 531 -143 q 597 -179 567 -179 q 685 -156 642 -179 l 706 -224 m 374 583 q 247 544 293 583 q 182 426 201 504 l 540 426 q 499 542 540 500 q 374 583 457 583 z "},"ẽ":{"ha":711,"x_min":43,"x_max":669,"o":"m 411 -14 q 212 34 294 -14 q 86 164 129 82 q 43 346 43 246 q 83 522 43 442 q 198 648 122 601 q 376 694 274 694 q 588 618 507 694 q 669 407 669 542 q 664 340 669 372 l 171 340 q 251 153 183 208 q 426 97 319 97 q 622 138 533 97 l 639 39 q 411 -14 521 -14 m 540 426 q 499 542 540 500 q 374 583 457 583 q 247 544 293 583 q 182 426 201 504 l 540 426 m 497 806 q 450 815 474 806 q 394 840 426 824 q 344 863 363 856 q 307 871 325 871 q 272 856 285 871 q 260 817 260 842 l 156 817 q 189 931 158 892 q 275 971 219 971 q 322 962 299 971 q 378 936 346 953 q 428 913 410 921 q 465 906 447 906 q 500 920 488 906 q 513 960 513 935 l 617 960 q 583 845 614 885 q 497 806 553 806 z "},"ə":{"ha":711,"x_min":42,"x_max":668,"o":"m 300 694 q 499 647 417 694 q 625 517 582 599 q 668 335 668 435 q 628 159 668 239 q 513 33 589 79 q 335 -14 438 -14 q 123 63 204 -14 q 42 274 42 139 q 47 340 42 308 l 540 340 q 460 528 528 472 q 285 583 392 583 q 89 543 178 583 l 72 642 q 300 694 190 694 m 171 254 q 213 139 171 181 q 338 97 254 97 q 464 137 418 97 q 529 254 510 176 l 171 254 z "},"f":{"ha":460,"x_min":14,"x_max":440,"o":"m 132 583 l 14 583 l 31 681 l 132 681 l 132 842 q 181 988 132 935 q 324 1042 231 1042 q 432 1024 385 1042 l 413 918 q 343 931 379 931 q 257 833 257 931 l 257 681 l 440 681 l 440 583 l 257 583 l 257 0 l 132 0 l 132 583 z "},"g":{"ha":692,"x_min":36,"x_max":696,"o":"m 360 -347 q 126 -294 215 -347 q 36 -144 36 -242 q 154 15 36 -37 q 88 101 88 49 q 168 200 88 168 q 81 294 111 235 q 50 429 50 354 q 84 565 50 504 q 181 660 118 625 q 331 694 244 694 q 497 642 422 694 q 667 683 571 683 l 678 683 l 663 600 l 631 600 q 594 597 618 600 q 553 590 571 594 q 597 515 582 557 q 613 429 613 474 q 578 290 613 351 q 481 192 544 228 q 331 157 417 157 q 239 169 281 157 q 207 133 207 158 q 283 89 207 100 l 465 60 q 638 -6 579 42 q 696 -136 696 -53 q 606 -294 696 -240 q 360 -347 517 -347 m 331 257 q 451 303 408 257 q 493 428 493 350 q 451 549 493 503 q 331 594 408 594 q 211 549 253 594 q 169 428 169 503 q 211 303 169 350 q 331 257 253 257 m 371 -236 q 518 -211 467 -236 q 569 -139 569 -186 q 538 -81 569 -103 q 444 -47 507 -60 l 250 -14 q 182 -62 208 -33 q 156 -125 156 -90 q 213 -209 156 -182 q 371 -236 269 -236 z "},"ğ":{"ha":692,"x_min":36,"x_max":696,"o":"m 360 -347 q 126 -294 215 -347 q 36 -144 36 -242 q 154 15 36 -37 q 88 101 88 49 q 168 200 88 168 q 81 294 111 235 q 50 429 50 354 q 84 565 50 504 q 181 660 118 625 q 331 694 244 694 q 497 642 422 694 q 667 683 571 683 l 678 683 l 663 600 l 631 600 q 594 597 618 600 q 553 590 571 594 q 597 515 582 557 q 613 429 613 474 q 578 290 613 351 q 481 192 544 228 q 331 157 417 157 q 239 169 281 157 q 207 133 207 158 q 283 89 207 100 l 465 60 q 638 -6 579 42 q 696 -136 696 -53 q 606 -294 696 -240 q 360 -347 517 -347 m 331 257 q 451 303 408 257 q 493 428 493 350 q 451 549 493 503 q 331 594 408 594 q 211 549 253 594 q 169 428 169 503 q 211 303 169 350 q 331 257 253 257 m 371 -236 q 518 -211 467 -236 q 569 -139 569 -186 q 538 -81 569 -103 q 444 -47 507 -60 l 250 -14 q 182 -62 208 -33 q 156 -125 156 -90 q 213 -209 156 -182 q 371 -236 269 -236 m 351 800 q 201 851 253 800 q 149 976 149 903 l 260 976 q 285 914 260 936 q 351 892 311 892 q 417 914 392 892 q 443 976 443 936 l 554 976 q 502 851 554 903 q 351 800 450 800 z "},"ǧ":{"ha":692,"x_min":36,"x_max":696,"o":"m 360 -347 q 126 -294 215 -347 q 36 -144 36 -242 q 154 15 36 -37 q 88 101 88 49 q 168 200 88 168 q 81 294 111 235 q 50 429 50 354 q 84 565 50 504 q 181 660 118 625 q 331 694 244 694 q 497 642 422 694 q 667 683 571 683 l 678 683 l 663 600 l 631 600 q 594 597 618 600 q 553 590 571 594 q 597 515 582 557 q 613 429 613 474 q 578 290 613 351 q 481 192 544 228 q 331 157 417 157 q 239 169 281 157 q 207 133 207 158 q 283 89 207 100 l 465 60 q 638 -6 579 42 q 696 -136 696 -53 q 606 -294 696 -240 q 360 -347 517 -347 m 331 257 q 451 303 408 257 q 493 428 493 350 q 451 549 493 503 q 331 594 408 594 q 211 549 253 594 q 169 428 169 503 q 211 303 169 350 q 331 257 253 257 m 371 -236 q 518 -211 467 -236 q 569 -139 569 -186 q 538 -81 569 -103 q 444 -47 507 -60 l 250 -14 q 182 -62 208 -33 q 156 -125 156 -90 q 213 -209 156 -182 q 371 -236 269 -236 m 175 928 l 175 1013 l 351 901 l 528 1013 l 528 928 l 351 775 l 175 928 z "},"ĝ":{"ha":692,"x_min":36,"x_max":696,"o":"m 360 -347 q 126 -294 215 -347 q 36 -144 36 -242 q 154 15 36 -37 q 88 101 88 49 q 168 200 88 168 q 81 294 111 235 q 50 429 50 354 q 84 565 50 504 q 181 660 118 625 q 331 694 244 694 q 497 642 422 694 q 667 683 571 683 l 678 683 l 663 600 l 631 600 q 594 597 618 600 q 553 590 571 594 q 597 515 582 557 q 613 429 613 474 q 578 290 613 351 q 481 192 544 228 q 331 157 417 157 q 239 169 281 157 q 207 133 207 158 q 283 89 207 100 l 465 60 q 638 -6 579 42 q 696 -136 696 -53 q 606 -294 696 -240 q 360 -347 517 -347 m 331 257 q 451 303 408 257 q 493 428 493 350 q 451 549 493 503 q 331 594 408 594 q 211 549 253 594 q 169 428 169 503 q 211 303 169 350 q 331 257 253 257 m 371 -236 q 518 -211 467 -236 q 569 -139 569 -186 q 538 -81 569 -103 q 444 -47 507 -60 l 250 -14 q 182 -62 208 -33 q 156 -125 156 -90 q 213 -209 156 -182 q 371 -236 269 -236 m 175 868 l 351 1021 l 528 868 l 528 783 l 351 894 l 175 783 l 175 868 z "},"ģ":{"ha":692,"x_min":36,"x_max":696,"o":"m 360 -347 q 126 -294 215 -347 q 36 -144 36 -242 q 154 15 36 -37 q 88 101 88 49 q 168 200 88 168 q 81 294 111 235 q 50 429 50 354 q 84 565 50 504 q 181 660 118 625 q 331 694 244 694 q 497 642 422 694 q 667 683 571 683 l 678 683 l 663 600 l 631 600 q 594 597 618 600 q 553 590 571 594 q 597 515 582 557 q 613 429 613 474 q 578 290 613 351 q 481 192 544 228 q 331 157 417 157 q 239 169 281 157 q 207 133 207 158 q 283 89 207 100 l 465 60 q 638 -6 579 42 q 696 -136 696 -53 q 606 -294 696 -240 q 360 -347 517 -347 m 331 257 q 451 303 408 257 q 493 428 493 350 q 451 549 493 503 q 331 594 408 594 q 211 549 253 594 q 169 428 169 503 q 211 303 169 350 q 331 257 253 257 m 371 -236 q 518 -211 467 -236 q 569 -139 569 -186 q 538 -81 569 -103 q 444 -47 507 -60 l 250 -14 q 182 -62 208 -33 q 156 -125 156 -90 q 213 -209 156 -182 q 371 -236 269 -236 m 428 1096 l 378 947 l 426 947 l 426 800 l 276 800 l 276 933 l 349 1096 l 428 1096 z "},"ġ":{"ha":692,"x_min":36,"x_max":696,"o":"m 360 -347 q 126 -294 215 -347 q 36 -144 36 -242 q 154 15 36 -37 q 88 101 88 49 q 168 200 88 168 q 81 294 111 235 q 50 429 50 354 q 84 565 50 504 q 181 660 118 625 q 331 694 244 694 q 497 642 422 694 q 667 683 571 683 l 678 683 l 663 600 l 631 600 q 594 597 618 600 q 553 590 571 594 q 597 515 582 557 q 613 429 613 474 q 578 290 613 351 q 481 192 544 228 q 331 157 417 157 q 239 169 281 157 q 207 133 207 158 q 283 89 207 100 l 465 60 q 638 -6 579 42 q 696 -136 696 -53 q 606 -294 696 -240 q 360 -347 517 -347 m 331 257 q 451 303 408 257 q 493 428 493 350 q 451 549 493 503 q 331 594 408 594 q 211 549 253 594 q 169 428 169 503 q 211 303 169 350 q 331 257 253 257 m 371 -236 q 518 -211 467 -236 q 569 -139 569 -186 q 538 -81 569 -103 q 444 -47 507 -60 l 250 -14 q 182 -62 208 -33 q 156 -125 156 -90 q 213 -209 156 -182 q 371 -236 269 -236 m 285 946 l 418 946 l 418 821 l 285 821 l 285 946 z "},"ḡ":{"ha":692,"x_min":36,"x_max":696,"o":"m 360 -347 q 126 -294 215 -347 q 36 -144 36 -242 q 154 15 36 -37 q 88 101 88 49 q 168 200 88 168 q 81 294 111 235 q 50 429 50 354 q 84 565 50 504 q 181 660 118 625 q 331 694 244 694 q 497 642 422 694 q 667 683 571 683 l 678 683 l 663 600 l 631 600 q 594 597 618 600 q 553 590 571 594 q 597 515 582 557 q 613 429 613 474 q 578 290 613 351 q 481 192 544 228 q 331 157 417 157 q 239 169 281 157 q 207 133 207 158 q 283 89 207 100 l 465 60 q 638 -6 579 42 q 696 -136 696 -53 q 606 -294 696 -240 q 360 -347 517 -347 m 331 257 q 451 303 408 257 q 493 428 493 350 q 451 549 493 503 q 331 594 408 594 q 211 549 253 594 q 169 428 169 503 q 211 303 169 350 q 331 257 253 257 m 371 -236 q 518 -211 467 -236 q 569 -139 569 -186 q 538 -81 569 -103 q 444 -47 507 -60 l 250 -14 q 182 -62 208 -33 q 156 -125 156 -90 q 213 -209 156 -182 q 371 -236 269 -236 m 129 919 l 574 919 l 574 821 l 129 821 l 129 919 z "},"h":{"ha":753,"x_min":83,"x_max":675,"o":"m 410 694 q 607 610 539 694 q 675 379 675 525 l 675 0 l 550 0 l 550 364 q 509 530 550 476 q 382 583 468 583 q 285 559 329 583 q 210 490 240 535 l 210 0 l 83 0 l 83 1042 l 210 1042 l 210 615 q 298 674 250 654 q 410 694 346 694 z "},"ħ":{"ha":753,"x_min":-22,"x_max":675,"o":"m 419 694 q 614 607 553 694 q 675 364 675 519 l 675 0 l 550 0 l 550 364 q 514 534 550 485 q 388 583 478 583 q 282 562 325 583 q 210 494 239 540 l 210 0 l 83 0 l 83 815 l -22 815 l -22 913 l 83 913 l 83 1042 l 210 1042 l 210 913 l 418 913 l 418 815 l 210 815 l 210 607 q 298 673 247 651 q 419 694 349 694 z "},"ḫ":{"ha":753,"x_min":83,"x_max":675,"o":"m 410 694 q 607 610 539 694 q 675 379 675 525 l 675 0 l 550 0 l 550 364 q 509 530 550 476 q 382 583 468 583 q 285 559 329 583 q 210 490 240 535 l 210 0 l 83 0 l 83 1042 l 210 1042 l 210 615 q 298 674 250 654 q 410 694 346 694 m 381 -303 q 230 -251 282 -303 q 178 -126 178 -200 l 289 -126 q 315 -189 289 -167 q 381 -211 340 -211 q 447 -189 421 -211 q 472 -126 472 -167 l 583 -126 q 531 -251 583 -200 q 381 -303 479 -303 z "},"ĥ":{"ha":753,"x_min":-29,"x_max":675,"o":"m 410 694 q 607 610 539 694 q 675 379 675 525 l 675 0 l 550 0 l 550 364 q 509 530 550 476 q 382 583 468 583 q 285 559 329 583 q 210 490 240 535 l 210 0 l 83 0 l 83 1042 l 210 1042 l 210 615 q 298 674 250 654 q 410 694 346 694 m 324 1172 l 324 1088 l 147 1179 l -29 1088 l -29 1172 l 147 1297 l 324 1172 z "},"ḥ":{"ha":753,"x_min":83,"x_max":675,"o":"m 410 694 q 607 610 539 694 q 675 379 675 525 l 675 0 l 550 0 l 550 364 q 509 530 550 476 q 382 583 468 583 q 285 559 329 583 q 210 490 240 535 l 210 0 l 83 0 l 83 1042 l 210 1042 l 210 615 q 298 674 250 654 q 410 694 346 694 m 314 -112 l 447 -112 l 447 -237 l 314 -237 l 314 -112 z "},"i":{"ha":294,"x_min":85,"x_max":210,"o":"m 85 972 l 210 972 l 210 833 l 85 833 l 85 972 m 85 681 l 210 681 l 210 0 l 85 0 l 85 681 z "},"ı":{"ha":294,"x_min":85,"x_max":210,"o":"m 85 681 l 210 681 l 210 0 l 85 0 l 85 681 z "},"í":{"ha":294,"x_min":18,"x_max":278,"o":"m 85 681 l 210 681 l 210 0 l 85 0 l 85 681 m 18 885 l 278 1038 l 278 901 l 18 800 l 18 885 z "},"ĭ":{"ha":294,"x_min":-56,"x_max":350,"o":"m 85 681 l 210 681 l 210 0 l 85 0 l 85 681 m 147 800 q -3 851 49 800 q -56 976 -56 903 l 56 976 q 81 914 56 936 q 147 892 107 892 q 213 914 188 892 q 239 976 239 936 l 350 976 q 298 851 350 903 q 147 800 246 800 z "},"î":{"ha":294,"x_min":-29,"x_max":324,"o":"m 85 681 l 210 681 l 210 0 l 85 0 l 85 681 m -29 868 l 147 1021 l 324 868 l 324 783 l 147 894 l -29 783 l -29 868 z "},"ȉ":{"ha":294,"x_min":-137,"x_max":292,"o":"m 85 681 l 210 681 l 210 0 l 85 0 l 85 681 m 6 803 l -137 1035 l -1 1035 l 97 803 l 6 803 m 200 803 l 64 1035 l 200 1035 l 292 803 l 200 803 z "},"ï":{"ha":294,"x_min":-46,"x_max":340,"o":"m 85 681 l 210 681 l 210 0 l 85 0 l 85 681 m -46 932 l 74 932 l 74 821 l -46 821 l -46 932 m 221 932 l 340 932 l 340 821 l 221 821 l 221 932 z "},"ḯ":{"ha":294,"x_min":-46,"x_max":340,"o":"m 85 681 l 210 681 l 210 0 l 85 0 l 85 681 m -46 915 l 74 915 l 74 811 l -46 811 l -46 915 m 221 915 l 340 915 l 340 811 l 221 811 l 221 915 m 18 1072 l 278 1204 l 278 1072 l 18 992 l 18 1072 z "},"ị":{"ha":294,"x_min":81,"x_max":214,"o":"m 85 972 l 210 972 l 210 833 l 85 833 l 85 972 m 85 681 l 210 681 l 210 0 l 85 0 l 85 681 m 81 -112 l 214 -112 l 214 -237 l 81 -237 l 81 -112 z "},"ì":{"ha":294,"x_min":17,"x_max":276,"o":"m 85 681 l 210 681 l 210 0 l 85 0 l 85 681 m 17 901 l 17 1038 l 276 885 l 276 800 l 17 901 z "},"ỉ":{"ha":294,"x_min":14,"x_max":263,"o":"m 85 681 l 210 681 l 210 0 l 85 0 l 85 681 m 121 775 q 170 829 158 813 q 182 868 182 846 q 167 906 182 893 q 125 918 151 918 q 38 892 88 918 l 14 963 q 125 989 63 989 q 224 958 185 989 q 263 872 263 926 q 241 799 263 831 q 168 729 219 768 l 121 775 z "},"ȋ":{"ha":294,"x_min":-56,"x_max":350,"o":"m 85 681 l 210 681 l 210 0 l 85 0 l 85 681 m 147 976 q 298 925 246 976 q 350 800 350 874 l 239 800 q 213 863 239 840 q 147 885 188 885 q 81 863 107 885 q 56 800 56 840 l -56 800 q -3 925 -56 874 q 147 976 49 976 z "},"ĳ":{"ha":589,"x_min":85,"x_max":504,"o":"m 85 972 l 210 972 l 210 833 l 85 833 l 85 972 m 85 681 l 210 681 l 210 0 l 85 0 l 85 681 m 379 972 l 504 972 l 504 833 l 379 833 l 379 972 m 278 -240 q 342 -224 321 -236 q 371 -185 363 -212 q 379 -101 379 -157 l 379 681 l 504 681 l 504 -149 q 453 -277 504 -236 q 333 -329 403 -318 l 292 -336 l 278 -240 z "},"ī":{"ha":294,"x_min":-75,"x_max":369,"o":"m 85 681 l 210 681 l 210 0 l 85 0 l 85 681 m -75 919 l 369 919 l 369 821 l -75 821 l -75 919 z "},"į":{"ha":294,"x_min":21,"x_max":276,"o":"m 85 972 l 210 972 l 210 833 l 85 833 l 85 972 m 85 681 l 210 681 l 210 0 l 85 0 l 85 681 m 210 0 q 129 -76 157 -40 q 101 -147 101 -111 q 119 -200 101 -182 q 168 -218 138 -218 q 256 -194 213 -218 l 276 -262 q 161 -289 226 -289 q 60 -258 100 -289 q 21 -169 21 -226 q 55 -72 21 -118 q 136 0 89 -26 l 210 0 z "},"ĩ":{"ha":294,"x_min":-83,"x_max":378,"o":"m 85 681 l 210 681 l 210 0 l 85 0 l 85 681 m 258 806 q 211 815 235 806 q 156 840 188 824 q 105 863 124 856 q 68 871 86 871 q 33 856 46 871 q 21 817 21 842 l -83 817 q -50 931 -81 892 q 36 971 -19 971 q 83 962 60 971 q 139 936 107 953 q 190 913 171 921 q 226 906 208 906 q 261 920 249 906 q 274 960 274 935 l 378 960 q 344 845 375 885 q 258 806 314 806 z "},"j":{"ha":294,"x_min":-17,"x_max":210,"o":"m 85 972 l 210 972 l 210 833 l 85 833 l 85 972 m -17 -240 q 47 -224 26 -236 q 76 -185 68 -212 q 85 -101 85 -157 l 85 681 l 210 681 l 210 -149 q 159 -277 210 -236 q 39 -329 108 -318 l -3 -336 l -17 -240 z "},"ȷ":{"ha":294,"x_min":-17,"x_max":210,"o":"m -17 -240 q 47 -224 26 -236 q 76 -185 68 -212 q 85 -101 85 -157 l 85 681 l 210 681 l 210 -149 q 159 -277 210 -236 q 39 -329 108 -318 l -3 -336 l -17 -240 z "},"ĵ":{"ha":294,"x_min":-29,"x_max":324,"o":"m -17 -240 q 47 -224 26 -236 q 76 -185 68 -212 q 85 -101 85 -157 l 85 681 l 210 681 l 210 -149 q 159 -277 210 -236 q 39 -329 108 -318 l -3 -336 l -17 -240 m -29 868 l 147 1021 l 324 868 l 324 783 l 147 894 l -29 783 l -29 868 z "},"k":{"ha":622,"x_min":83,"x_max":618,"o":"m 83 1042 l 208 1042 l 208 374 l 458 681 l 611 681 l 340 364 l 618 0 l 465 0 l 208 346 l 208 0 l 83 0 l 83 1042 z "},"ķ":{"ha":622,"x_min":83,"x_max":618,"o":"m 83 1042 l 208 1042 l 208 374 l 458 681 l 611 681 l 340 364 l 618 0 l 465 0 l 208 346 l 208 0 l 83 0 l 83 1042 m 263 -422 l 313 -274 l 264 -274 l 264 -126 l 414 -126 l 414 -260 l 342 -422 l 263 -422 z "},"ĸ":{"ha":697,"x_min":85,"x_max":689,"o":"m 85 681 l 210 681 l 210 364 l 529 681 l 682 681 l 332 353 l 689 0 l 536 0 l 210 336 l 210 0 l 85 0 l 85 681 z "},"l":{"ha":328,"x_min":83,"x_max":318,"o":"m 260 -14 q 126 33 168 -14 q 83 150 83 81 l 83 1042 l 208 1042 l 208 222 q 216 133 208 161 q 246 96 224 106 q 318 86 268 86 l 300 -14 l 260 -14 z "},"ĺ":{"ha":328,"x_min":17,"x_max":318,"o":"m 260 -14 q 126 33 168 -14 q 83 150 83 81 l 83 1042 l 208 1042 l 208 222 q 216 133 208 161 q 246 96 224 106 q 318 86 268 86 l 300 -14 l 260 -14 m 17 1211 l 276 1343 l 276 1211 l 17 1131 l 17 1211 z "},"ľ":{"ha":386,"x_min":83,"x_max":408,"o":"m 260 -14 q 126 33 168 -14 q 83 150 83 81 l 83 1042 l 208 1042 l 208 222 q 216 133 208 161 q 246 96 224 106 q 318 86 268 86 l 300 -14 l 260 -14 m 278 1042 l 408 1042 l 369 810 l 278 810 l 278 1042 z "},"ļ":{"ha":328,"x_min":83,"x_max":318,"o":"m 260 -14 q 126 33 168 -14 q 83 150 83 81 l 83 1042 l 208 1042 l 208 222 q 216 133 208 161 q 246 96 224 106 q 318 86 268 86 l 300 -14 l 260 -14 m 133 -422 l 183 -274 l 135 -274 l 135 -126 l 285 -126 l 285 -260 l 213 -422 l 133 -422 z "},"ŀ":{"ha":390,"x_min":83,"x_max":404,"o":"m 260 -14 q 126 33 168 -14 q 83 150 83 81 l 83 1042 l 208 1042 l 208 222 q 216 133 208 161 q 246 96 224 106 q 318 86 268 86 l 300 -14 l 260 -14 m 279 639 l 404 639 l 404 514 l 279 514 l 279 639 z "},"ḷ":{"ha":328,"x_min":83,"x_max":318,"o":"m 260 -14 q 126 33 168 -14 q 83 150 83 81 l 83 1042 l 208 1042 l 208 222 q 216 133 208 161 q 246 96 224 106 q 318 86 268 86 l 300 -14 l 260 -14 m 142 -112 l 275 -112 l 275 -237 l 142 -237 l 142 -112 z "},"ǉ":{"ha":622,"x_min":83,"x_max":538,"o":"m 260 -14 q 126 33 168 -14 q 83 150 83 81 l 83 1042 l 208 1042 l 208 222 q 216 133 208 161 q 246 96 224 106 q 318 86 268 86 l 300 -14 l 260 -14 m 413 972 l 538 972 l 538 833 l 413 833 l 413 972 m 311 -240 q 375 -224 354 -236 q 404 -185 396 -212 q 413 -101 413 -157 l 413 681 l 538 681 l 538 -149 q 487 -277 538 -236 q 367 -329 436 -318 l 325 -336 l 311 -240 z "},"ḻ":{"ha":328,"x_min":-14,"x_max":431,"o":"m 260 -14 q 126 33 168 -14 q 83 150 83 81 l 83 1042 l 208 1042 l 208 222 q 216 133 208 161 q 246 96 224 106 q 318 86 268 86 l 300 -14 l 260 -14 m -14 -126 l 431 -126 l 431 -225 l -14 -225 l -14 -126 z "},"ł":{"ha":328,"x_min":-14,"x_max":319,"o":"m 208 610 l 208 222 q 216 133 208 161 q 246 96 224 106 q 318 86 268 86 l 300 -14 l 260 -14 q 126 33 168 -14 q 83 150 83 81 l 83 576 l -14 550 l -14 644 l 83 671 l 83 1042 l 208 1042 l 208 704 l 319 733 l 319 639 l 208 610 z "},"m":{"ha":1218,"x_min":85,"x_max":1140,"o":"m 879 694 q 1140 401 1140 694 l 1140 0 l 1015 0 l 1015 400 q 978 540 1015 496 q 856 583 940 583 q 675 394 675 583 l 675 0 l 550 0 l 550 375 q 509 538 550 492 q 390 583 468 583 q 282 561 329 583 q 210 494 235 539 l 210 0 l 85 0 l 85 681 l 182 681 l 196 608 q 299 674 247 654 q 411 694 351 694 q 631 558 567 694 q 879 694 701 694 z "},"ṃ":{"ha":1218,"x_min":85,"x_max":1140,"o":"m 879 694 q 1140 401 1140 694 l 1140 0 l 1015 0 l 1015 400 q 978 540 1015 496 q 856 583 940 583 q 675 394 675 583 l 675 0 l 550 0 l 550 375 q 509 538 550 492 q 390 583 468 583 q 282 561 329 583 q 210 494 235 539 l 210 0 l 85 0 l 85 681 l 182 681 l 196 608 q 299 674 247 654 q 411 694 351 694 q 631 558 567 694 q 879 694 701 694 m 546 -112 l 679 -112 l 679 -237 l 546 -237 l 546 -112 z "},"n":{"ha":776,"x_min":85,"x_max":699,"o":"m 85 681 l 182 681 l 196 608 q 305 676 250 657 q 421 694 360 694 q 699 375 699 694 l 699 0 l 574 0 l 574 375 q 533 534 574 485 q 396 583 492 583 q 285 561 335 583 q 210 494 235 539 l 210 0 l 85 0 l 85 681 z "},"ń":{"ha":776,"x_min":85,"x_max":699,"o":"m 85 681 l 182 681 l 196 608 q 305 676 250 657 q 421 694 360 694 q 699 375 699 694 l 699 0 l 574 0 l 574 375 q 533 534 574 485 q 396 583 492 583 q 285 561 335 583 q 210 494 235 539 l 210 0 l 85 0 l 85 681 m 279 885 l 539 1038 l 539 901 l 279 800 l 279 885 z "},"ŉ":{"ha":965,"x_min":75,"x_max":888,"o":"m 75 676 l 125 825 l 76 825 l 76 972 l 226 972 l 226 839 l 154 676 l 75 676 m 274 681 l 371 681 l 385 608 q 494 676 439 657 q 610 694 549 694 q 888 375 888 694 l 888 0 l 763 0 l 763 375 q 722 534 763 485 q 585 583 681 583 q 474 561 524 583 q 399 494 424 539 l 399 0 l 274 0 l 274 681 z "},"ň":{"ha":776,"x_min":85,"x_max":699,"o":"m 85 681 l 182 681 l 196 608 q 305 676 250 657 q 421 694 360 694 q 699 375 699 694 l 699 0 l 574 0 l 574 375 q 533 534 574 485 q 396 583 492 583 q 285 561 335 583 q 210 494 235 539 l 210 0 l 85 0 l 85 681 m 232 928 l 232 1013 l 408 901 l 585 1013 l 585 928 l 408 775 l 232 928 z "},"ņ":{"ha":776,"x_min":85,"x_max":699,"o":"m 85 681 l 182 681 l 196 608 q 305 676 250 657 q 421 694 360 694 q 699 375 699 694 l 699 0 l 574 0 l 574 375 q 533 534 574 485 q 396 583 492 583 q 285 561 335 583 q 210 494 235 539 l 210 0 l 85 0 l 85 681 m 317 -422 l 367 -274 l 318 -274 l 318 -126 l 468 -126 l 468 -260 l 396 -422 l 317 -422 z "},"ṅ":{"ha":776,"x_min":85,"x_max":699,"o":"m 85 681 l 182 681 l 196 608 q 305 676 250 657 q 421 694 360 694 q 699 375 699 694 l 699 0 l 574 0 l 574 375 q 533 534 574 485 q 396 583 492 583 q 285 561 335 583 q 210 494 235 539 l 210 0 l 85 0 l 85 681 m 342 946 l 475 946 l 475 821 l 342 821 l 342 946 z "},"ṇ":{"ha":776,"x_min":85,"x_max":699,"o":"m 85 681 l 182 681 l 196 608 q 305 676 250 657 q 421 694 360 694 q 699 375 699 694 l 699 0 l 574 0 l 574 375 q 533 534 574 485 q 396 583 492 583 q 285 561 335 583 q 210 494 235 539 l 210 0 l 85 0 l 85 681 m 325 -112 l 458 -112 l 458 -237 l 325 -237 l 325 -112 z "},"ŋ":{"ha":776,"x_min":85,"x_max":699,"o":"m 699 33 q 622 -176 699 -104 q 417 -249 544 -249 q 304 -233 358 -249 l 322 -125 q 425 -137 372 -137 q 534 -98 494 -137 q 574 19 574 -58 l 574 375 q 533 534 574 485 q 396 583 492 583 q 285 561 335 583 q 210 494 235 539 l 210 0 l 85 0 l 85 681 l 182 681 l 196 608 q 305 676 250 657 q 421 694 360 694 q 699 375 699 694 l 699 33 z "},"ǌ":{"ha":1071,"x_min":85,"x_max":986,"o":"m 85 681 l 182 681 l 196 608 q 305 676 250 657 q 421 694 360 694 q 699 375 699 694 l 699 0 l 574 0 l 574 375 q 533 534 574 485 q 396 583 492 583 q 285 561 335 583 q 210 494 235 539 l 210 0 l 85 0 l 85 681 m 861 972 l 986 972 l 986 833 l 861 833 l 861 972 m 760 -240 q 824 -224 803 -236 q 853 -185 844 -212 q 861 -101 861 -157 l 861 681 l 986 681 l 986 -149 q 935 -277 986 -236 q 815 -329 885 -318 l 774 -336 l 760 -240 z "},"ṉ":{"ha":776,"x_min":85,"x_max":699,"o":"m 85 681 l 182 681 l 196 608 q 305 676 250 657 q 421 694 360 694 q 699 375 699 694 l 699 0 l 574 0 l 574 375 q 533 534 574 485 q 396 583 492 583 q 285 561 335 583 q 210 494 235 539 l 210 0 l 85 0 l 85 681 m 169 -126 l 614 -126 l 614 -225 l 169 -225 l 169 -126 z "},"ñ":{"ha":776,"x_min":85,"x_max":699,"o":"m 85 681 l 182 681 l 196 608 q 305 676 250 657 q 421 694 360 694 q 699 375 699 694 l 699 0 l 574 0 l 574 375 q 533 534 574 485 q 396 583 492 583 q 285 561 335 583 q 210 494 235 539 l 210 0 l 85 0 l 85 681 m 519 806 q 472 815 496 806 q 417 840 449 824 q 366 863 385 856 q 329 871 347 871 q 294 856 307 871 q 282 817 282 842 l 178 817 q 211 931 181 892 q 297 971 242 971 q 344 962 321 971 q 400 936 368 953 q 451 913 432 921 q 488 906 469 906 q 522 920 510 906 q 535 960 535 935 l 639 960 q 606 845 636 885 q 519 806 575 806 z "},"o":{"ha":764,"x_min":44,"x_max":719,"o":"m 382 -14 q 201 33 278 -14 q 85 160 125 79 q 44 340 44 240 q 85 521 44 440 q 201 648 125 601 q 382 694 278 694 q 562 648 485 694 q 679 521 639 601 q 719 340 719 440 q 679 160 719 240 q 562 33 639 79 q 382 -14 485 -14 m 382 97 q 537 161 482 97 q 592 340 592 225 q 537 519 592 456 q 382 583 482 583 q 227 519 282 583 q 172 340 172 456 q 227 161 172 225 q 382 97 282 97 z "},"ó":{"ha":764,"x_min":44,"x_max":719,"o":"m 382 -14 q 201 33 278 -14 q 85 160 125 79 q 44 340 44 240 q 85 521 44 440 q 201 648 125 601 q 382 694 278 694 q 562 648 485 694 q 679 521 639 601 q 719 340 719 440 q 679 160 719 240 q 562 33 639 79 q 382 -14 485 -14 m 382 97 q 537 161 482 97 q 592 340 592 225 q 537 519 592 456 q 382 583 482 583 q 227 519 282 583 q 172 340 172 456 q 227 161 172 225 q 382 97 282 97 m 253 885 l 513 1038 l 513 901 l 253 800 l 253 885 z "},"ŏ":{"ha":764,"x_min":44,"x_max":719,"o":"m 382 -14 q 201 33 278 -14 q 85 160 125 79 q 44 340 44 240 q 85 521 44 440 q 201 648 125 601 q 382 694 278 694 q 562 648 485 694 q 679 521 639 601 q 719 340 719 440 q 679 160 719 240 q 562 33 639 79 q 382 -14 485 -14 m 382 97 q 537 161 482 97 q 592 340 592 225 q 537 519 592 456 q 382 583 482 583 q 227 519 282 583 q 172 340 172 456 q 227 161 172 225 q 382 97 282 97 m 382 800 q 231 851 283 800 q 179 976 179 903 l 290 976 q 316 914 290 936 q 382 892 342 892 q 448 914 422 892 q 474 976 474 936 l 585 976 q 533 851 585 903 q 382 800 481 800 z "},"ô":{"ha":764,"x_min":44,"x_max":719,"o":"m 382 -14 q 201 33 278 -14 q 85 160 125 79 q 44 340 44 240 q 85 521 44 440 q 201 648 125 601 q 382 694 278 694 q 562 648 485 694 q 679 521 639 601 q 719 340 719 440 q 679 160 719 240 q 562 33 639 79 q 382 -14 485 -14 m 382 97 q 537 161 482 97 q 592 340 592 225 q 537 519 592 456 q 382 583 482 583 q 227 519 282 583 q 172 340 172 456 q 227 161 172 225 q 382 97 282 97 m 206 868 l 382 1021 l 558 868 l 558 783 l 382 894 l 206 783 l 206 868 z "},"ố":{"ha":764,"x_min":44,"x_max":719,"o":"m 382 -14 q 201 33 278 -14 q 85 160 125 79 q 44 340 44 240 q 85 521 44 440 q 201 648 125 601 q 382 694 278 694 q 562 648 485 694 q 679 521 639 601 q 719 340 719 440 q 679 160 719 240 q 562 33 639 79 q 382 -14 485 -14 m 382 97 q 537 161 482 97 q 592 340 592 225 q 537 519 592 456 q 382 583 482 583 q 227 519 282 583 q 172 340 172 456 q 227 161 172 225 q 382 97 282 97 m 578 1119 l 714 1119 l 578 957 l 486 957 l 578 1119 m 558 839 l 558 754 l 382 846 l 206 754 l 206 839 l 382 964 l 558 839 z "},"ộ":{"ha":764,"x_min":44,"x_max":719,"o":"m 382 -14 q 201 33 278 -14 q 85 160 125 79 q 44 340 44 240 q 85 521 44 440 q 201 648 125 601 q 382 694 278 694 q 562 648 485 694 q 679 521 639 601 q 719 340 719 440 q 679 160 719 240 q 562 33 639 79 q 382 -14 485 -14 m 382 97 q 537 161 482 97 q 592 340 592 225 q 537 519 592 456 q 382 583 482 583 q 227 519 282 583 q 172 340 172 456 q 227 161 172 225 q 382 97 282 97 m 206 868 l 382 1021 l 558 868 l 558 783 l 382 894 l 206 783 l 206 868 m 315 -112 l 449 -112 l 449 -237 l 315 -237 l 315 -112 z "},"ồ":{"ha":764,"x_min":44,"x_max":719,"o":"m 382 -14 q 201 33 278 -14 q 85 160 125 79 q 44 340 44 240 q 85 521 44 440 q 201 648 125 601 q 382 694 278 694 q 562 648 485 694 q 679 521 639 601 q 719 340 719 440 q 679 160 719 240 q 562 33 639 79 q 382 -14 485 -14 m 382 97 q 537 161 482 97 q 592 340 592 225 q 537 519 592 456 q 382 583 482 583 q 227 519 282 583 q 172 340 172 456 q 227 161 172 225 q 382 97 282 97 m 506 957 l 385 1119 l 517 1119 l 594 957 l 506 957 m 558 839 l 558 754 l 382 846 l 206 754 l 206 839 l 382 964 l 558 839 z "},"ổ":{"ha":764,"x_min":44,"x_max":719,"o":"m 382 -14 q 201 33 278 -14 q 85 160 125 79 q 44 340 44 240 q 85 521 44 440 q 201 648 125 601 q 382 694 278 694 q 562 648 485 694 q 679 521 639 601 q 719 340 719 440 q 679 160 719 240 q 562 33 639 79 q 382 -14 485 -14 m 382 97 q 537 161 482 97 q 592 340 592 225 q 537 519 592 456 q 382 583 482 583 q 227 519 282 583 q 172 340 172 456 q 227 161 172 225 q 382 97 282 97 m 558 839 l 558 754 l 382 846 l 206 754 l 206 839 l 382 964 l 558 839 m 503 975 q 551 1029 551 992 q 494 1074 551 1074 q 407 1047 457 1074 l 383 1118 q 494 1144 432 1144 q 593 1116 554 1144 q 632 1038 632 1088 q 604 962 632 990 q 515 919 576 933 l 503 975 z "},"ỗ":{"ha":764,"x_min":44,"x_max":719,"o":"m 382 -14 q 201 33 278 -14 q 85 160 125 79 q 44 340 44 240 q 85 521 44 440 q 201 648 125 601 q 382 694 278 694 q 562 648 485 694 q 679 521 639 601 q 719 340 719 440 q 679 160 719 240 q 562 33 639 79 q 382 -14 485 -14 m 382 97 q 537 161 482 97 q 592 340 592 225 q 537 519 592 456 q 382 583 482 583 q 227 519 282 583 q 172 340 172 456 q 227 161 172 225 q 382 97 282 97 m 558 839 l 558 754 l 382 846 l 206 754 l 206 839 l 382 964 l 558 839 m 497 1021 q 450 1028 475 1021 q 390 1051 425 1036 q 303 1078 329 1078 q 268 1065 281 1078 q 256 1028 256 1051 l 165 1028 q 192 1131 165 1094 q 267 1167 218 1167 q 314 1159 289 1167 q 374 1136 339 1151 q 461 1110 435 1110 q 496 1123 483 1110 q 508 1160 508 1136 l 599 1160 q 572 1057 599 1093 q 497 1021 546 1021 z "},"ȍ":{"ha":764,"x_min":44,"x_max":719,"o":"m 382 -14 q 201 33 278 -14 q 85 160 125 79 q 44 340 44 240 q 85 521 44 440 q 201 648 125 601 q 382 694 278 694 q 562 648 485 694 q 679 521 639 601 q 719 340 719 440 q 679 160 719 240 q 562 33 639 79 q 382 -14 485 -14 m 382 97 q 537 161 482 97 q 592 340 592 225 q 537 519 592 456 q 382 583 482 583 q 227 519 282 583 q 172 340 172 456 q 227 161 172 225 q 382 97 282 97 m 240 803 l 97 1035 l 233 1035 l 332 803 l 240 803 m 435 803 l 299 1035 l 435 1035 l 526 803 l 435 803 z "},"ö":{"ha":764,"x_min":44,"x_max":719,"o":"m 382 -14 q 201 33 278 -14 q 85 160 125 79 q 44 340 44 240 q 85 521 44 440 q 201 648 125 601 q 382 694 278 694 q 562 648 485 694 q 679 521 639 601 q 719 340 719 440 q 679 160 719 240 q 562 33 639 79 q 382 -14 485 -14 m 382 97 q 537 161 482 97 q 592 340 592 225 q 537 519 592 456 q 382 583 482 583 q 227 519 282 583 q 172 340 172 456 q 227 161 172 225 q 382 97 282 97 m 189 932 l 308 932 l 308 821 l 189 821 l 189 932 m 456 932 l 575 932 l 575 821 l 456 821 l 456 932 z "},"ȫ":{"ha":764,"x_min":44,"x_max":719,"o":"m 382 -14 q 201 33 278 -14 q 85 160 125 79 q 44 340 44 240 q 85 521 44 440 q 201 648 125 601 q 382 694 278 694 q 562 648 485 694 q 679 521 639 601 q 719 340 719 440 q 679 160 719 240 q 562 33 639 79 q 382 -14 485 -14 m 382 97 q 537 161 482 97 q 592 340 592 225 q 537 519 592 456 q 382 583 482 583 q 227 519 282 583 q 172 340 172 456 q 227 161 172 225 q 382 97 282 97 m 189 915 l 308 915 l 308 811 l 189 811 l 189 915 m 456 915 l 575 915 l 575 811 l 456 811 l 456 915 m 160 1126 l 604 1126 l 604 1032 l 160 1032 l 160 1126 z "},"ȱ":{"ha":764,"x_min":44,"x_max":719,"o":"m 382 -14 q 201 33 278 -14 q 85 160 125 79 q 44 340 44 240 q 85 521 44 440 q 201 648 125 601 q 382 694 278 694 q 562 648 485 694 q 679 521 639 601 q 719 340 719 440 q 679 160 719 240 q 562 33 639 79 q 382 -14 485 -14 m 382 97 q 537 161 482 97 q 592 340 592 225 q 537 519 592 456 q 382 583 482 583 q 227 519 282 583 q 172 340 172 456 q 227 161 172 225 q 382 97 282 97 m 315 932 l 449 932 l 449 807 l 315 807 l 315 932 m 160 1135 l 604 1135 l 604 1040 l 160 1040 l 160 1135 z "},"ọ":{"ha":764,"x_min":44,"x_max":719,"o":"m 382 -14 q 201 33 278 -14 q 85 160 125 79 q 44 340 44 240 q 85 521 44 440 q 201 648 125 601 q 382 694 278 694 q 562 648 485 694 q 679 521 639 601 q 719 340 719 440 q 679 160 719 240 q 562 33 639 79 q 382 -14 485 -14 m 382 97 q 537 161 482 97 q 592 340 592 225 q 537 519 592 456 q 382 583 482 583 q 227 519 282 583 q 172 340 172 456 q 227 161 172 225 q 382 97 282 97 m 315 -112 l 449 -112 l 449 -237 l 315 -237 l 315 -112 z "},"ò":{"ha":764,"x_min":44,"x_max":719,"o":"m 382 -14 q 201 33 278 -14 q 85 160 125 79 q 44 340 44 240 q 85 521 44 440 q 201 648 125 601 q 382 694 278 694 q 562 648 485 694 q 679 521 639 601 q 719 340 719 440 q 679 160 719 240 q 562 33 639 79 q 382 -14 485 -14 m 382 97 q 537 161 482 97 q 592 340 592 225 q 537 519 592 456 q 382 583 482 583 q 227 519 282 583 q 172 340 172 456 q 227 161 172 225 q 382 97 282 97 m 251 901 l 251 1038 l 511 885 l 511 800 l 251 901 z "},"ỏ":{"ha":764,"x_min":44,"x_max":719,"o":"m 382 -14 q 201 33 278 -14 q 85 160 125 79 q 44 340 44 240 q 85 521 44 440 q 201 648 125 601 q 382 694 278 694 q 562 648 485 694 q 679 521 639 601 q 719 340 719 440 q 679 160 719 240 q 562 33 639 79 q 382 -14 485 -14 m 382 97 q 537 161 482 97 q 592 340 592 225 q 537 519 592 456 q 382 583 482 583 q 227 519 282 583 q 172 340 172 456 q 227 161 172 225 q 382 97 282 97 m 356 775 q 405 829 393 813 q 417 868 417 846 q 401 906 417 893 q 360 918 386 918 q 272 892 322 918 l 249 963 q 360 989 297 989 q 458 958 419 989 q 497 872 497 926 q 476 799 497 831 q 403 729 454 768 l 356 775 z "},"ơ":{"ha":764,"x_min":44,"x_max":719,"o":"m 601 619 q 689 499 658 572 q 719 340 719 426 q 679 160 719 240 q 562 33 639 79 q 382 -14 485 -14 q 201 33 278 -14 q 85 160 125 79 q 44 340 44 240 q 85 521 44 440 q 201 648 125 601 q 382 694 278 694 q 485 681 439 694 q 582 783 582 688 l 701 783 q 674 690 701 733 q 601 619 647 647 m 382 97 q 537 161 482 97 q 592 340 592 225 q 537 519 592 456 q 382 583 482 583 q 227 519 282 583 q 172 340 172 456 q 227 161 172 225 q 382 97 282 97 z "},"ớ":{"ha":764,"x_min":44,"x_max":719,"o":"m 601 619 q 689 499 658 572 q 719 340 719 426 q 679 160 719 240 q 562 33 639 79 q 382 -14 485 -14 q 201 33 278 -14 q 85 160 125 79 q 44 340 44 240 q 85 521 44 440 q 201 648 125 601 q 382 694 278 694 q 485 681 439 694 q 582 783 582 688 l 701 783 q 674 690 701 733 q 601 619 647 647 m 382 97 q 537 161 482 97 q 592 340 592 225 q 537 519 592 456 q 382 583 482 583 q 227 519 282 583 q 172 340 172 456 q 227 161 172 225 q 382 97 282 97 m 253 885 l 513 1038 l 513 901 l 253 800 l 253 885 z "},"ợ":{"ha":764,"x_min":44,"x_max":719,"o":"m 601 619 q 689 499 658 572 q 719 340 719 426 q 679 160 719 240 q 562 33 639 79 q 382 -14 485 -14 q 201 33 278 -14 q 85 160 125 79 q 44 340 44 240 q 85 521 44 440 q 201 648 125 601 q 382 694 278 694 q 485 681 439 694 q 582 783 582 688 l 701 783 q 674 690 701 733 q 601 619 647 647 m 382 97 q 537 161 482 97 q 592 340 592 225 q 537 519 592 456 q 382 583 482 583 q 227 519 282 583 q 172 340 172 456 q 227 161 172 225 q 382 97 282 97 m 315 -112 l 449 -112 l 449 -237 l 315 -237 l 315 -112 z "},"ờ":{"ha":764,"x_min":44,"x_max":719,"o":"m 601 619 q 689 499 658 572 q 719 340 719 426 q 679 160 719 240 q 562 33 639 79 q 382 -14 485 -14 q 201 33 278 -14 q 85 160 125 79 q 44 340 44 240 q 85 521 44 440 q 201 648 125 601 q 382 694 278 694 q 485 681 439 694 q 582 783 582 688 l 701 783 q 674 690 701 733 q 601 619 647 647 m 382 97 q 537 161 482 97 q 592 340 592 225 q 537 519 592 456 q 382 583 482 583 q 227 519 282 583 q 172 340 172 456 q 227 161 172 225 q 382 97 282 97 m 251 901 l 251 1038 l 511 885 l 511 800 l 251 901 z "},"ở":{"ha":764,"x_min":44,"x_max":719,"o":"m 601 619 q 689 499 658 572 q 719 340 719 426 q 679 160 719 240 q 562 33 639 79 q 382 -14 485 -14 q 201 33 278 -14 q 85 160 125 79 q 44 340 44 240 q 85 521 44 440 q 201 648 125 601 q 382 694 278 694 q 485 681 439 694 q 582 783 582 688 l 701 783 q 674 690 701 733 q 601 619 647 647 m 382 97 q 537 161 482 97 q 592 340 592 225 q 537 519 592 456 q 382 583 482 583 q 227 519 282 583 q 172 340 172 456 q 227 161 172 225 q 382 97 282 97 m 356 775 q 405 829 393 813 q 417 868 417 846 q 401 906 417 893 q 360 918 386 918 q 272 892 322 918 l 249 963 q 360 989 297 989 q 458 958 419 989 q 497 872 497 926 q 476 799 497 831 q 403 729 454 768 l 356 775 z "},"ỡ":{"ha":764,"x_min":44,"x_max":719,"o":"m 601 619 q 689 499 658 572 q 719 340 719 426 q 679 160 719 240 q 562 33 639 79 q 382 -14 485 -14 q 201 33 278 -14 q 85 160 125 79 q 44 340 44 240 q 85 521 44 440 q 201 648 125 601 q 382 694 278 694 q 485 681 439 694 q 582 783 582 688 l 701 783 q 674 690 701 733 q 601 619 647 647 m 382 97 q 537 161 482 97 q 592 340 592 225 q 537 519 592 456 q 382 583 482 583 q 227 519 282 583 q 172 340 172 456 q 227 161 172 225 q 382 97 282 97 m 493 806 q 446 815 469 806 q 390 840 422 824 q 340 863 358 856 q 303 871 321 871 q 268 856 281 871 q 256 817 256 842 l 151 817 q 185 931 154 892 q 271 971 215 971 q 318 962 294 971 q 374 936 342 953 q 424 913 406 921 q 461 906 443 906 q 496 920 483 906 q 508 960 508 935 l 613 960 q 579 845 610 885 q 493 806 549 806 z "},"ő":{"ha":764,"x_min":44,"x_max":719,"o":"m 382 -14 q 201 33 278 -14 q 85 160 125 79 q 44 340 44 240 q 85 521 44 440 q 201 648 125 601 q 382 694 278 694 q 562 648 485 694 q 679 521 639 601 q 719 340 719 440 q 679 160 719 240 q 562 33 639 79 q 382 -14 485 -14 m 382 97 q 537 161 482 97 q 592 340 592 225 q 537 519 592 456 q 382 583 482 583 q 227 519 282 583 q 172 340 172 456 q 227 161 172 225 q 382 97 282 97 m 346 1035 l 482 1035 l 329 803 l 238 803 l 346 1035 m 547 1035 l 683 1035 l 524 803 l 432 803 l 547 1035 z "},"ȏ":{"ha":764,"x_min":44,"x_max":719,"o":"m 382 -14 q 201 33 278 -14 q 85 160 125 79 q 44 340 44 240 q 85 521 44 440 q 201 648 125 601 q 382 694 278 694 q 562 648 485 694 q 679 521 639 601 q 719 340 719 440 q 679 160 719 240 q 562 33 639 79 q 382 -14 485 -14 m 382 97 q 537 161 482 97 q 592 340 592 225 q 537 519 592 456 q 382 583 482 583 q 227 519 282 583 q 172 340 172 456 q 227 161 172 225 q 382 97 282 97 m 382 976 q 533 925 481 976 q 585 800 585 874 l 474 800 q 448 863 474 840 q 382 885 422 885 q 316 863 342 885 q 290 800 290 840 l 179 800 q 231 925 179 874 q 382 976 283 976 z "},"ō":{"ha":764,"x_min":44,"x_max":719,"o":"m 382 -14 q 201 33 278 -14 q 85 160 125 79 q 44 340 44 240 q 85 521 44 440 q 201 648 125 601 q 382 694 278 694 q 562 648 485 694 q 679 521 639 601 q 719 340 719 440 q 679 160 719 240 q 562 33 639 79 q 382 -14 485 -14 m 382 97 q 537 161 482 97 q 592 340 592 225 q 537 519 592 456 q 382 583 482 583 q 227 519 282 583 q 172 340 172 456 q 227 161 172 225 q 382 97 282 97 m 160 919 l 604 919 l 604 821 l 160 821 l 160 919 z "},"ṓ":{"ha":764,"x_min":44,"x_max":719,"o":"m 382 -14 q 201 33 278 -14 q 85 160 125 79 q 44 340 44 240 q 85 521 44 440 q 201 648 125 601 q 382 694 278 694 q 562 648 485 694 q 679 521 639 601 q 719 340 719 440 q 679 160 719 240 q 562 33 639 79 q 382 -14 485 -14 m 382 97 q 537 161 482 97 q 592 340 592 225 q 537 519 592 456 q 382 583 482 583 q 227 519 282 583 q 172 340 172 456 q 227 161 172 225 q 382 97 282 97 m 160 904 l 604 904 l 604 810 l 160 810 l 160 904 m 253 1089 l 513 1221 l 513 1089 l 253 1008 l 253 1089 z "},"ṑ":{"ha":764,"x_min":44,"x_max":719,"o":"m 382 -14 q 201 33 278 -14 q 85 160 125 79 q 44 340 44 240 q 85 521 44 440 q 201 648 125 601 q 382 694 278 694 q 562 648 485 694 q 679 521 639 601 q 719 340 719 440 q 679 160 719 240 q 562 33 639 79 q 382 -14 485 -14 m 382 97 q 537 161 482 97 q 592 340 592 225 q 537 519 592 456 q 382 583 482 583 q 227 519 282 583 q 172 340 172 456 q 227 161 172 225 q 382 97 282 97 m 160 904 l 604 904 l 604 810 l 160 810 l 160 904 m 251 1089 l 251 1221 l 511 1089 l 511 1008 l 251 1089 z "},"ǫ":{"ha":764,"x_min":44,"x_max":719,"o":"m 482 -1 q 402 -76 429 -42 q 375 -147 375 -111 q 393 -200 375 -182 q 442 -218 411 -218 q 529 -194 486 -218 l 550 -262 q 435 -289 500 -289 q 334 -258 374 -289 q 294 -169 294 -226 q 322 -84 294 -125 q 389 -14 349 -43 l 382 -14 q 201 33 278 -14 q 85 160 125 79 q 44 340 44 240 q 85 521 44 440 q 201 648 125 601 q 382 694 278 694 q 562 648 485 694 q 679 521 639 601 q 719 340 719 440 q 656 122 719 215 q 482 -1 593 29 m 172 340 q 227 161 172 225 q 382 97 282 97 q 537 161 482 97 q 592 340 592 225 q 537 519 592 456 q 382 583 482 583 q 227 519 282 583 q 172 340 172 456 z "},"ø":{"ha":764,"x_min":44,"x_max":719,"o":"m 608 614 q 691 494 663 565 q 719 340 719 424 q 679 160 719 240 q 562 33 639 79 q 382 -14 485 -14 q 236 15 301 -14 l 193 -56 l 81 -56 l 156 67 q 73 185 101 114 q 44 340 44 257 q 85 521 44 440 q 201 648 125 601 q 382 694 278 694 q 528 665 464 694 l 571 736 l 683 736 l 608 614 m 172 340 q 219 169 172 233 l 467 568 q 382 583 428 583 q 227 519 282 583 q 172 340 172 456 m 382 97 q 537 161 482 97 q 592 340 592 225 q 544 511 592 447 l 297 113 q 382 97 336 97 z "},"ǿ":{"ha":764,"x_min":44,"x_max":719,"o":"m 608 614 q 691 494 663 565 q 719 340 719 424 q 679 160 719 240 q 562 33 639 79 q 382 -14 485 -14 q 236 15 301 -14 l 193 -56 l 81 -56 l 156 67 q 73 185 101 114 q 44 340 44 257 q 85 521 44 440 q 201 648 125 601 q 382 694 278 694 q 528 665 464 694 l 571 736 l 683 736 l 608 614 m 172 340 q 219 169 172 233 l 467 568 q 382 583 428 583 q 227 519 282 583 q 172 340 172 456 m 382 97 q 537 161 482 97 q 592 340 592 225 q 544 511 592 447 l 297 113 q 382 97 336 97 m 253 885 l 513 1038 l 513 901 l 253 800 l 253 885 z "},"õ":{"ha":764,"x_min":44,"x_max":719,"o":"m 382 -14 q 201 33 278 -14 q 85 160 125 79 q 44 340 44 240 q 85 521 44 440 q 201 648 125 601 q 382 694 278 694 q 562 648 485 694 q 679 521 639 601 q 719 340 719 440 q 679 160 719 240 q 562 33 639 79 q 382 -14 485 -14 m 382 97 q 537 161 482 97 q 592 340 592 225 q 537 519 592 456 q 382 583 482 583 q 227 519 282 583 q 172 340 172 456 q 227 161 172 225 q 382 97 282 97 m 493 806 q 446 815 469 806 q 390 840 422 824 q 340 863 358 856 q 303 871 321 871 q 268 856 281 871 q 256 817 256 842 l 151 817 q 185 931 154 892 q 271 971 215 971 q 318 962 294 971 q 374 936 342 953 q 424 913 406 921 q 461 906 443 906 q 496 920 483 906 q 508 960 508 935 l 613 960 q 579 845 610 885 q 493 806 549 806 z "},"ṍ":{"ha":764,"x_min":44,"x_max":719,"o":"m 382 -14 q 201 33 278 -14 q 85 160 125 79 q 44 340 44 240 q 85 521 44 440 q 201 648 125 601 q 382 694 278 694 q 562 648 485 694 q 679 521 639 601 q 719 340 719 440 q 679 160 719 240 q 562 33 639 79 q 382 -14 485 -14 m 382 97 q 537 161 482 97 q 592 340 592 225 q 537 519 592 456 q 382 583 482 583 q 227 519 282 583 q 172 340 172 456 q 227 161 172 225 q 382 97 282 97 m 497 803 q 450 810 475 803 q 390 833 425 818 q 303 860 329 860 q 268 847 281 860 q 256 810 256 833 l 165 810 q 192 913 165 876 q 267 949 218 949 q 314 941 289 949 q 374 918 339 933 q 461 892 435 892 q 496 905 483 892 q 508 942 508 918 l 599 942 q 572 839 599 875 q 497 803 546 803 m 253 1094 l 513 1226 l 513 1094 l 253 1014 l 253 1094 z "},"ṏ":{"ha":764,"x_min":44,"x_max":719,"o":"m 382 -14 q 201 33 278 -14 q 85 160 125 79 q 44 340 44 240 q 85 521 44 440 q 201 648 125 601 q 382 694 278 694 q 562 648 485 694 q 679 521 639 601 q 719 340 719 440 q 679 160 719 240 q 562 33 639 79 q 382 -14 485 -14 m 382 97 q 537 161 482 97 q 592 340 592 225 q 537 519 592 456 q 382 583 482 583 q 227 519 282 583 q 172 340 172 456 q 227 161 172 225 q 382 97 282 97 m 497 803 q 450 810 475 803 q 390 833 425 818 q 303 860 329 860 q 268 847 281 860 q 256 810 256 833 l 165 810 q 192 913 165 876 q 267 949 218 949 q 314 941 289 949 q 374 918 339 933 q 461 892 435 892 q 496 905 483 892 q 508 942 508 918 l 599 942 q 572 839 599 875 q 497 803 546 803 m 189 1160 l 308 1160 l 308 1056 l 189 1056 l 189 1160 m 456 1160 l 575 1160 l 575 1056 l 456 1056 l 456 1160 z "},"ȭ":{"ha":764,"x_min":44,"x_max":719,"o":"m 382 -14 q 201 33 278 -14 q 85 160 125 79 q 44 340 44 240 q 85 521 44 440 q 201 648 125 601 q 382 694 278 694 q 562 648 485 694 q 679 521 639 601 q 719 340 719 440 q 679 160 719 240 q 562 33 639 79 q 382 -14 485 -14 m 382 97 q 537 161 482 97 q 592 340 592 225 q 537 519 592 456 q 382 583 482 583 q 227 519 282 583 q 172 340 172 456 q 227 161 172 225 q 382 97 282 97 m 497 803 q 450 810 475 803 q 390 833 425 818 q 303 860 329 860 q 268 847 281 860 q 256 810 256 833 l 165 810 q 192 913 165 876 q 267 949 218 949 q 314 941 289 949 q 374 918 339 933 q 461 892 435 892 q 496 905 483 892 q 508 942 508 918 l 599 942 q 572 839 599 875 q 497 803 546 803 m 160 1149 l 604 1149 l 604 1054 l 160 1054 l 160 1149 z "},"œ":{"ha":1253,"x_min":44,"x_max":1211,"o":"m 1211 407 q 1206 340 1211 372 l 713 340 q 793 153 725 208 q 968 97 861 97 q 1164 138 1075 97 l 1181 39 q 953 -14 1063 -14 q 776 26 851 -14 q 654 136 700 65 q 543 26 613 65 q 382 -14 474 -14 q 201 33 278 -14 q 85 160 125 79 q 44 340 44 240 q 85 521 44 440 q 201 648 125 601 q 382 694 278 694 q 540 656 471 694 q 651 549 608 618 q 761 656 693 617 q 918 694 829 694 q 1130 618 1049 694 q 1211 407 1211 542 m 382 97 q 537 161 482 97 q 592 340 592 225 q 537 519 592 456 q 382 583 482 583 q 227 519 282 583 q 172 340 172 456 q 227 161 172 225 q 382 97 282 97 m 1082 426 q 1040 542 1082 500 q 915 583 999 583 q 789 544 835 583 q 724 426 743 504 l 1082 426 z "},"p":{"ha":774,"x_min":85,"x_max":728,"o":"m 431 694 q 588 648 521 694 q 692 521 656 601 q 728 340 728 440 q 694 159 728 239 q 593 33 660 79 q 431 -14 526 -14 q 301 11 360 -14 q 210 83 243 36 l 210 -336 l 85 -336 l 85 681 l 182 681 l 196 586 q 431 694 282 694 m 407 97 q 549 162 497 97 q 600 340 600 226 q 549 519 600 454 q 407 583 497 583 q 260 521 318 583 q 203 340 203 458 q 260 158 203 218 q 407 97 317 97 z "},"þ":{"ha":807,"x_min":83,"x_max":761,"o":"m 442 694 q 612 647 539 694 q 723 518 685 599 q 761 340 761 438 q 724 163 761 243 q 614 34 686 82 q 442 -14 542 -14 q 208 86 283 -14 l 208 -335 l 83 -335 l 83 1042 l 208 1042 l 208 596 q 442 694 301 694 m 421 86 q 579 156 524 86 q 635 340 635 226 q 579 517 635 451 q 421 583 524 583 q 258 519 318 583 q 199 340 199 454 q 258 156 199 225 q 421 86 318 86 z "},"q":{"ha":774,"x_min":46,"x_max":689,"o":"m 689 681 l 689 -336 l 564 -336 l 564 82 q 475 10 531 35 q 350 -14 419 -14 q 184 33 253 -14 q 81 159 115 79 q 46 340 46 239 q 83 516 46 435 q 188 646 119 597 q 349 694 257 694 q 482 668 428 694 q 578 588 536 642 l 592 681 l 689 681 m 367 97 q 514 158 457 97 q 571 340 571 218 q 513 521 571 458 q 367 583 456 583 q 225 519 276 583 q 174 340 174 454 q 225 162 174 226 q 367 97 276 97 z "},"r":{"ha":439,"x_min":85,"x_max":436,"o":"m 85 681 l 188 681 l 203 568 q 303 664 256 633 q 404 694 351 694 q 436 690 421 694 l 424 553 q 382 557 406 557 q 285 534 331 557 q 218 481 239 511 l 218 0 l 85 0 l 85 681 z "},"ŕ":{"ha":439,"x_min":85,"x_max":436,"o":"m 85 681 l 188 681 l 203 568 q 303 664 256 633 q 404 694 351 694 q 436 690 421 694 l 424 553 q 382 557 406 557 q 285 534 331 557 q 218 481 239 511 l 218 0 l 85 0 l 85 681 m 164 885 l 424 1038 l 424 901 l 164 800 l 164 885 z "},"ř":{"ha":439,"x_min":85,"x_max":469,"o":"m 85 681 l 188 681 l 203 568 q 303 664 256 633 q 404 694 351 694 q 436 690 421 694 l 424 553 q 382 557 406 557 q 285 534 331 557 q 218 481 239 511 l 218 0 l 85 0 l 85 681 m 117 928 l 117 1013 l 293 901 l 469 1013 l 469 928 l 293 775 l 117 928 z "},"ŗ":{"ha":439,"x_min":76,"x_max":436,"o":"m 85 681 l 188 681 l 203 568 q 303 664 256 633 q 404 694 351 694 q 436 690 421 694 l 424 553 q 382 557 406 557 q 285 534 331 557 q 218 481 239 511 l 218 0 l 85 0 l 85 681 m 76 -422 l 126 -274 l 78 -274 l 78 -126 l 228 -126 l 228 -260 l 156 -422 l 76 -422 z "},"ȑ":{"ha":439,"x_min":8,"x_max":438,"o":"m 85 681 l 188 681 l 203 568 q 303 664 256 633 q 404 694 351 694 q 436 690 421 694 l 424 553 q 382 557 406 557 q 285 534 331 557 q 218 481 239 511 l 218 0 l 85 0 l 85 681 m 151 803 l 8 1035 l 144 1035 l 243 803 l 151 803 m 346 803 l 210 1035 l 346 1035 l 438 803 l 346 803 z "},"ṛ":{"ha":439,"x_min":85,"x_max":436,"o":"m 85 681 l 188 681 l 203 568 q 303 664 256 633 q 404 694 351 694 q 436 690 421 694 l 424 553 q 382 557 406 557 q 285 534 331 557 q 218 481 239 511 l 218 0 l 85 0 l 85 681 m 85 -112 l 218 -112 l 218 -237 l 85 -237 l 85 -112 z "},"ȓ":{"ha":439,"x_min":85,"x_max":496,"o":"m 85 681 l 188 681 l 203 568 q 303 664 256 633 q 404 694 351 694 q 436 690 421 694 l 424 553 q 382 557 406 557 q 285 534 331 557 q 218 481 239 511 l 218 0 l 85 0 l 85 681 m 293 976 q 444 925 392 976 q 496 800 496 874 l 385 800 q 359 863 385 840 q 293 885 333 885 q 227 863 253 885 q 201 800 201 840 l 90 800 q 142 925 90 874 q 293 976 194 976 z "},"ṟ":{"ha":439,"x_min":-71,"x_max":436,"o":"m 85 681 l 188 681 l 203 568 q 303 664 256 633 q 404 694 351 694 q 436 690 421 694 l 424 553 q 382 557 406 557 q 285 534 331 557 q 218 481 239 511 l 218 0 l 85 0 l 85 681 m -71 -126 l 374 -126 l 374 -225 l -71 -225 l -71 -126 z "},"s":{"ha":575,"x_min":44,"x_max":538,"o":"m 278 -14 q 137 5 197 -14 q 44 46 76 24 l 60 167 q 145 119 88 142 q 272 97 203 97 q 373 119 338 97 q 408 182 408 142 q 369 253 408 229 q 272 294 331 278 q 165 330 208 311 q 90 388 121 349 q 58 490 58 426 q 121 636 58 578 q 314 694 183 694 q 415 683 374 694 q 499 650 457 671 l 483 536 q 410 580 450 564 q 317 596 369 596 q 220 573 256 596 q 185 504 185 550 q 201 455 185 474 q 249 424 218 436 q 343 392 279 411 q 480 325 422 368 q 538 189 538 282 q 478 46 538 106 q 278 -14 419 -14 z "},"ś":{"ha":575,"x_min":44,"x_max":538,"o":"m 278 -14 q 137 5 197 -14 q 44 46 76 24 l 60 167 q 145 119 88 142 q 272 97 203 97 q 373 119 338 97 q 408 182 408 142 q 369 253 408 229 q 272 294 331 278 q 165 330 208 311 q 90 388 121 349 q 58 490 58 426 q 121 636 58 578 q 314 694 183 694 q 415 683 374 694 q 499 650 457 671 l 483 536 q 410 580 450 564 q 317 596 369 596 q 220 573 256 596 q 185 504 185 550 q 201 455 185 474 q 249 424 218 436 q 343 392 279 411 q 480 325 422 368 q 538 189 538 282 q 478 46 538 106 q 278 -14 419 -14 m 179 885 l 439 1038 l 439 901 l 179 800 l 179 885 z "},"ṥ":{"ha":575,"x_min":44,"x_max":538,"o":"m 278 -14 q 137 5 197 -14 q 44 46 76 24 l 60 167 q 145 119 88 142 q 272 97 203 97 q 373 119 338 97 q 408 182 408 142 q 369 253 408 229 q 272 294 331 278 q 165 330 208 311 q 90 388 121 349 q 58 490 58 426 q 121 636 58 578 q 314 694 183 694 q 415 683 374 694 q 499 650 457 671 l 483 536 q 410 580 450 564 q 317 596 369 596 q 220 573 256 596 q 185 504 185 550 q 201 455 185 474 q 249 424 218 436 q 343 392 279 411 q 480 325 422 368 q 538 189 538 282 q 478 46 538 106 q 278 -14 419 -14 m 179 850 l 439 982 l 439 850 l 179 769 l 179 850 m 242 1171 l 375 1171 l 375 1046 l 242 1046 l 242 1171 z "},"š":{"ha":575,"x_min":44,"x_max":538,"o":"m 278 -14 q 137 5 197 -14 q 44 46 76 24 l 60 167 q 145 119 88 142 q 272 97 203 97 q 373 119 338 97 q 408 182 408 142 q 369 253 408 229 q 272 294 331 278 q 165 330 208 311 q 90 388 121 349 q 58 490 58 426 q 121 636 58 578 q 314 694 183 694 q 415 683 374 694 q 499 650 457 671 l 483 536 q 410 580 450 564 q 317 596 369 596 q 220 573 256 596 q 185 504 185 550 q 201 455 185 474 q 249 424 218 436 q 343 392 279 411 q 480 325 422 368 q 538 189 538 282 q 478 46 538 106 q 278 -14 419 -14 m 132 928 l 132 1013 l 308 901 l 485 1013 l 485 928 l 308 775 l 132 928 z "},"ṧ":{"ha":575,"x_min":44,"x_max":538,"o":"m 278 -14 q 137 5 197 -14 q 44 46 76 24 l 60 167 q 145 119 88 142 q 272 97 203 97 q 373 119 338 97 q 408 182 408 142 q 369 253 408 229 q 272 294 331 278 q 165 330 208 311 q 90 388 121 349 q 58 490 58 426 q 121 636 58 578 q 314 694 183 694 q 415 683 374 694 q 499 650 457 671 l 483 536 q 410 580 450 564 q 317 596 369 596 q 220 573 256 596 q 185 504 185 550 q 201 455 185 474 q 249 424 218 436 q 343 392 279 411 q 480 325 422 368 q 538 189 538 282 q 478 46 538 106 q 278 -14 419 -14 m 132 915 l 132 1000 l 308 908 l 485 1000 l 485 915 l 308 790 l 132 915 m 242 1189 l 375 1189 l 375 1064 l 242 1064 l 242 1189 z "},"ş":{"ha":575,"x_min":44,"x_max":538,"o":"m 538 189 q 489 56 538 114 q 324 -12 440 -1 l 304 -75 l 315 -75 q 403 -105 371 -75 q 436 -187 436 -135 q 394 -281 436 -247 q 289 -314 353 -314 q 181 -287 228 -314 l 201 -219 q 289 -243 244 -243 q 338 -229 319 -243 q 356 -190 356 -215 q 338 -149 356 -164 q 286 -135 321 -135 q 222 -146 254 -135 l 256 -14 q 129 7 183 -11 q 44 46 75 25 l 60 167 q 145 119 88 142 q 272 97 203 97 q 373 119 338 97 q 408 182 408 142 q 369 253 408 229 q 272 294 331 278 q 165 330 208 311 q 90 388 121 349 q 58 490 58 426 q 121 636 58 578 q 314 694 183 694 q 415 683 374 694 q 499 650 457 671 l 483 536 q 410 580 450 564 q 317 596 369 596 q 220 573 256 596 q 185 504 185 550 q 201 455 185 474 q 249 424 218 436 q 343 392 279 411 q 480 325 422 368 q 538 189 538 282 z "},"ŝ":{"ha":575,"x_min":44,"x_max":538,"o":"m 278 -14 q 137 5 197 -14 q 44 46 76 24 l 60 167 q 145 119 88 142 q 272 97 203 97 q 373 119 338 97 q 408 182 408 142 q 369 253 408 229 q 272 294 331 278 q 165 330 208 311 q 90 388 121 349 q 58 490 58 426 q 121 636 58 578 q 314 694 183 694 q 415 683 374 694 q 499 650 457 671 l 483 536 q 410 580 450 564 q 317 596 369 596 q 220 573 256 596 q 185 504 185 550 q 201 455 185 474 q 249 424 218 436 q 343 392 279 411 q 480 325 422 368 q 538 189 538 282 q 478 46 538 106 q 278 -14 419 -14 m 132 868 l 308 1021 l 485 868 l 485 783 l 308 894 l 132 783 l 132 868 z "},"ș":{"ha":575,"x_min":44,"x_max":538,"o":"m 278 -14 q 137 5 197 -14 q 44 46 76 24 l 60 167 q 145 119 88 142 q 272 97 203 97 q 373 119 338 97 q 408 182 408 142 q 369 253 408 229 q 272 294 331 278 q 165 330 208 311 q 90 388 121 349 q 58 490 58 426 q 121 636 58 578 q 314 694 183 694 q 415 683 374 694 q 499 650 457 671 l 483 536 q 410 580 450 564 q 317 596 369 596 q 220 573 256 596 q 185 504 185 550 q 201 455 185 474 q 249 424 218 436 q 343 392 279 411 q 480 325 422 368 q 538 189 538 282 q 478 46 538 106 q 278 -14 419 -14 m 214 -422 l 264 -274 l 215 -274 l 215 -126 l 365 -126 l 365 -260 l 293 -422 l 214 -422 z "},"ṡ":{"ha":575,"x_min":44,"x_max":538,"o":"m 278 -14 q 137 5 197 -14 q 44 46 76 24 l 60 167 q 145 119 88 142 q 272 97 203 97 q 373 119 338 97 q 408 182 408 142 q 369 253 408 229 q 272 294 331 278 q 165 330 208 311 q 90 388 121 349 q 58 490 58 426 q 121 636 58 578 q 314 694 183 694 q 415 683 374 694 q 499 650 457 671 l 483 536 q 410 580 450 564 q 317 596 369 596 q 220 573 256 596 q 185 504 185 550 q 201 455 185 474 q 249 424 218 436 q 343 392 279 411 q 480 325 422 368 q 538 189 538 282 q 478 46 538 106 q 278 -14 419 -14 m 242 946 l 375 946 l 375 821 l 242 821 l 242 946 z "},"ṣ":{"ha":575,"x_min":44,"x_max":538,"o":"m 278 -14 q 137 5 197 -14 q 44 46 76 24 l 60 167 q 145 119 88 142 q 272 97 203 97 q 373 119 338 97 q 408 182 408 142 q 369 253 408 229 q 272 294 331 278 q 165 330 208 311 q 90 388 121 349 q 58 490 58 426 q 121 636 58 578 q 314 694 183 694 q 415 683 374 694 q 499 650 457 671 l 483 536 q 410 580 450 564 q 317 596 369 596 q 220 573 256 596 q 185 504 185 550 q 201 455 185 474 q 249 424 218 436 q 343 392 279 411 q 480 325 422 368 q 538 189 538 282 q 478 46 538 106 q 278 -14 419 -14 m 222 -112 l 356 -112 l 356 -237 l 222 -237 l 222 -112 z "},"ṩ":{"ha":575,"x_min":44,"x_max":538,"o":"m 278 -14 q 137 5 197 -14 q 44 46 76 24 l 60 167 q 145 119 88 142 q 272 97 203 97 q 373 119 338 97 q 408 182 408 142 q 369 253 408 229 q 272 294 331 278 q 165 330 208 311 q 90 388 121 349 q 58 490 58 426 q 121 636 58 578 q 314 694 183 694 q 415 683 374 694 q 499 650 457 671 l 483 536 q 410 580 450 564 q 317 596 369 596 q 220 573 256 596 q 185 504 185 550 q 201 455 185 474 q 249 424 218 436 q 343 392 279 411 q 480 325 422 368 q 538 189 538 282 q 478 46 538 106 q 278 -14 419 -14 m 242 946 l 375 946 l 375 821 l 242 821 l 242 946 m 222 -112 l 356 -112 l 356 -237 l 222 -237 l 222 -112 z "},"ß":{"ha":801,"x_min":25,"x_max":765,"o":"m 481 -19 q 336 0 404 -19 l 336 97 q 482 78 410 78 q 598 110 556 78 q 640 200 640 143 q 608 289 640 256 q 514 361 576 322 q 420 433 451 400 q 389 521 389 467 q 411 605 389 568 q 493 703 433 642 q 546 767 531 742 q 561 829 561 793 q 524 917 561 885 q 419 950 488 950 q 292 902 336 950 q 249 767 249 854 l 249 0 l 129 0 l 129 583 l 25 583 l 36 681 l 129 681 l 129 764 q 208 985 129 910 q 422 1061 288 1061 q 611 1004 540 1061 q 682 851 682 947 q 663 753 682 792 q 606 674 643 715 l 582 647 q 528 583 543 606 q 514 536 514 561 q 538 481 514 504 q 611 426 561 458 q 690 369 660 394 q 743 303 721 343 q 765 207 765 263 q 683 39 765 97 q 481 -19 600 -19 z "},"t":{"ha":468,"x_min":25,"x_max":446,"o":"m 319 -14 q 185 33 229 -14 q 142 149 142 81 l 142 583 l 25 583 l 36 681 l 142 681 l 142 849 l 267 861 l 267 681 l 446 681 l 446 583 l 267 583 l 267 225 q 275 128 267 154 q 310 94 283 101 q 410 86 338 86 l 442 86 l 432 -14 l 319 -14 z "},"ŧ":{"ha":468,"x_min":25,"x_max":446,"o":"m 267 583 l 267 424 l 439 424 l 439 336 l 267 336 l 267 225 q 275 128 267 154 q 310 94 283 101 q 410 86 338 86 l 442 86 l 432 -14 l 319 -14 q 185 33 229 -14 q 142 149 142 81 l 142 336 l 25 336 l 25 424 l 142 424 l 142 583 l 25 583 l 36 681 l 142 681 l 142 849 l 267 861 l 267 681 l 446 681 l 446 583 l 267 583 z "},"ť":{"ha":468,"x_min":25,"x_max":467,"o":"m 319 -14 q 185 33 229 -14 q 142 149 142 81 l 142 583 l 25 583 l 36 681 l 142 681 l 142 849 l 267 861 l 267 681 l 446 681 l 446 583 l 267 583 l 267 225 q 275 128 267 154 q 310 94 283 101 q 410 86 338 86 l 442 86 l 432 -14 l 319 -14 m 336 983 l 467 983 l 428 751 l 336 751 l 336 983 z "},"ţ":{"ha":468,"x_min":25,"x_max":464,"o":"m 343 -75 q 431 -105 399 -75 q 464 -187 464 -135 q 422 -281 464 -247 q 317 -314 381 -314 q 208 -287 256 -314 l 229 -219 q 317 -243 272 -243 q 365 -229 347 -243 q 383 -190 383 -215 q 366 -149 383 -164 q 314 -135 349 -135 q 250 -146 282 -135 l 283 -11 q 176 43 211 -1 q 142 149 142 88 l 142 583 l 25 583 l 36 681 l 142 681 l 142 849 l 267 861 l 267 681 l 446 681 l 446 583 l 267 583 l 267 225 q 275 128 267 154 q 310 94 283 101 q 410 86 338 86 l 442 86 l 432 -14 l 351 -14 l 332 -75 l 343 -75 z "},"ț":{"ha":468,"x_min":25,"x_max":446,"o":"m 319 -14 q 185 33 229 -14 q 142 149 142 81 l 142 583 l 25 583 l 36 681 l 142 681 l 142 849 l 267 861 l 267 681 l 446 681 l 446 583 l 267 583 l 267 225 q 275 128 267 154 q 310 94 283 101 q 410 86 338 86 l 442 86 l 432 -14 l 319 -14 m 242 -422 l 292 -274 l 243 -274 l 243 -126 l 393 -126 l 393 -260 l 321 -422 l 242 -422 z "},"ẗ":{"ha":468,"x_min":11,"x_max":446,"o":"m 319 -14 q 185 33 229 -14 q 142 149 142 81 l 142 583 l 25 583 l 36 681 l 142 681 l 142 849 l 267 861 l 267 681 l 446 681 l 446 583 l 267 583 l 267 225 q 275 128 267 154 q 310 94 283 101 q 410 86 338 86 l 442 86 l 432 -14 l 319 -14 m 11 1101 l 131 1101 l 131 990 l 11 990 l 11 1101 m 278 1101 l 397 1101 l 397 990 l 278 990 l 278 1101 z "},"ṭ":{"ha":468,"x_min":25,"x_max":446,"o":"m 319 -14 q 185 33 229 -14 q 142 149 142 81 l 142 583 l 25 583 l 36 681 l 142 681 l 142 849 l 267 861 l 267 681 l 446 681 l 446 583 l 267 583 l 267 225 q 275 128 267 154 q 310 94 283 101 q 410 86 338 86 l 442 86 l 432 -14 l 319 -14 m 250 -112 l 383 -112 l 383 -237 l 250 -237 l 250 -112 z "},"ṯ":{"ha":468,"x_min":25,"x_max":539,"o":"m 319 -14 q 185 33 229 -14 q 142 149 142 81 l 142 583 l 25 583 l 36 681 l 142 681 l 142 849 l 267 861 l 267 681 l 446 681 l 446 583 l 267 583 l 267 225 q 275 128 267 154 q 310 94 283 101 q 410 86 338 86 l 442 86 l 432 -14 l 319 -14 m 94 -126 l 539 -126 l 539 -225 l 94 -225 l 94 -126 z "},"u":{"ha":728,"x_min":78,"x_max":643,"o":"m 329 -14 q 142 60 207 -14 q 78 285 78 135 l 78 681 l 203 681 l 203 319 q 241 153 203 208 q 361 97 279 97 q 453 117 411 97 q 518 175 494 136 l 518 681 l 643 681 l 643 0 l 532 0 l 518 75 q 440 8 485 29 q 329 -14 394 -14 z "},"ú":{"ha":728,"x_min":78,"x_max":643,"o":"m 329 -14 q 142 60 207 -14 q 78 285 78 135 l 78 681 l 203 681 l 203 319 q 241 153 203 208 q 361 97 279 97 q 453 117 411 97 q 518 175 494 136 l 518 681 l 643 681 l 643 0 l 532 0 l 518 75 q 440 8 485 29 q 329 -14 394 -14 m 235 885 l 494 1038 l 494 901 l 235 800 l 235 885 z "},"ŭ":{"ha":728,"x_min":78,"x_max":643,"o":"m 329 -14 q 142 60 207 -14 q 78 285 78 135 l 78 681 l 203 681 l 203 319 q 241 153 203 208 q 361 97 279 97 q 453 117 411 97 q 518 175 494 136 l 518 681 l 643 681 l 643 0 l 532 0 l 518 75 q 440 8 485 29 q 329 -14 394 -14 m 364 800 q 213 851 265 800 q 161 976 161 903 l 272 976 q 298 914 272 936 q 364 892 324 892 q 430 914 404 892 q 456 976 456 936 l 567 976 q 515 851 567 903 q 364 800 463 800 z "},"û":{"ha":728,"x_min":78,"x_max":643,"o":"m 329 -14 q 142 60 207 -14 q 78 285 78 135 l 78 681 l 203 681 l 203 319 q 241 153 203 208 q 361 97 279 97 q 453 117 411 97 q 518 175 494 136 l 518 681 l 643 681 l 643 0 l 532 0 l 518 75 q 440 8 485 29 q 329 -14 394 -14 m 188 868 l 364 1021 l 540 868 l 540 783 l 364 894 l 188 783 l 188 868 z "},"ȕ":{"ha":728,"x_min":78,"x_max":643,"o":"m 329 -14 q 142 60 207 -14 q 78 285 78 135 l 78 681 l 203 681 l 203 319 q 241 153 203 208 q 361 97 279 97 q 453 117 411 97 q 518 175 494 136 l 518 681 l 643 681 l 643 0 l 532 0 l 518 75 q 440 8 485 29 q 329 -14 394 -14 m 222 803 l 79 1035 l 215 1035 l 314 803 l 222 803 m 417 803 l 281 1035 l 417 1035 l 508 803 l 417 803 z "},"ü":{"ha":728,"x_min":78,"x_max":643,"o":"m 329 -14 q 142 60 207 -14 q 78 285 78 135 l 78 681 l 203 681 l 203 319 q 241 153 203 208 q 361 97 279 97 q 453 117 411 97 q 518 175 494 136 l 518 681 l 643 681 l 643 0 l 532 0 l 518 75 q 440 8 485 29 q 329 -14 394 -14 m 171 932 l 290 932 l 290 821 l 171 821 l 171 932 m 438 932 l 557 932 l 557 821 l 438 821 l 438 932 z "},"ụ":{"ha":728,"x_min":78,"x_max":643,"o":"m 329 -14 q 142 60 207 -14 q 78 285 78 135 l 78 681 l 203 681 l 203 319 q 241 153 203 208 q 361 97 279 97 q 453 117 411 97 q 518 175 494 136 l 518 681 l 643 681 l 643 0 l 532 0 l 518 75 q 440 8 485 29 q 329 -14 394 -14 m 297 -112 l 431 -112 l 431 -237 l 297 -237 l 297 -112 z "},"ù":{"ha":728,"x_min":78,"x_max":643,"o":"m 329 -14 q 142 60 207 -14 q 78 285 78 135 l 78 681 l 203 681 l 203 319 q 241 153 203 208 q 361 97 279 97 q 453 117 411 97 q 518 175 494 136 l 518 681 l 643 681 l 643 0 l 532 0 l 518 75 q 440 8 485 29 q 329 -14 394 -14 m 233 901 l 233 1038 l 493 885 l 493 800 l 233 901 z "},"ủ":{"ha":728,"x_min":78,"x_max":643,"o":"m 329 -14 q 142 60 207 -14 q 78 285 78 135 l 78 681 l 203 681 l 203 319 q 241 153 203 208 q 361 97 279 97 q 453 117 411 97 q 518 175 494 136 l 518 681 l 643 681 l 643 0 l 532 0 l 518 75 q 440 8 485 29 q 329 -14 394 -14 m 338 775 q 387 829 375 813 q 399 868 399 846 q 383 906 399 893 q 342 918 368 918 q 254 892 304 918 l 231 963 q 342 989 279 989 q 440 958 401 989 q 479 872 479 926 q 458 799 479 831 q 385 729 436 768 l 338 775 z "},"ư":{"ha":728,"x_min":78,"x_max":806,"o":"m 806 783 q 760 666 806 719 q 643 593 715 613 l 643 0 l 532 0 l 518 75 q 440 8 485 29 q 329 -14 394 -14 q 142 60 207 -14 q 78 285 78 135 l 78 681 l 203 681 l 203 319 q 241 153 203 208 q 361 97 279 97 q 453 117 411 97 q 518 175 494 136 l 518 681 l 575 681 q 686 783 686 681 l 806 783 z "},"ứ":{"ha":728,"x_min":78,"x_max":806,"o":"m 806 783 q 760 666 806 719 q 643 593 715 613 l 643 0 l 532 0 l 518 75 q 440 8 485 29 q 329 -14 394 -14 q 142 60 207 -14 q 78 285 78 135 l 78 681 l 203 681 l 203 319 q 241 153 203 208 q 361 97 279 97 q 453 117 411 97 q 518 175 494 136 l 518 681 l 575 681 q 686 783 686 681 l 806 783 m 235 885 l 494 1038 l 494 901 l 235 800 l 235 885 z "},"ự":{"ha":728,"x_min":78,"x_max":806,"o":"m 806 783 q 760 666 806 719 q 643 593 715 613 l 643 0 l 532 0 l 518 75 q 440 8 485 29 q 329 -14 394 -14 q 142 60 207 -14 q 78 285 78 135 l 78 681 l 203 681 l 203 319 q 241 153 203 208 q 361 97 279 97 q 453 117 411 97 q 518 175 494 136 l 518 681 l 575 681 q 686 783 686 681 l 806 783 m 297 -112 l 431 -112 l 431 -237 l 297 -237 l 297 -112 z "},"ừ":{"ha":728,"x_min":78,"x_max":806,"o":"m 806 783 q 760 666 806 719 q 643 593 715 613 l 643 0 l 532 0 l 518 75 q 440 8 485 29 q 329 -14 394 -14 q 142 60 207 -14 q 78 285 78 135 l 78 681 l 203 681 l 203 319 q 241 153 203 208 q 361 97 279 97 q 453 117 411 97 q 518 175 494 136 l 518 681 l 575 681 q 686 783 686 681 l 806 783 m 233 901 l 233 1038 l 493 885 l 493 800 l 233 901 z "},"ử":{"ha":728,"x_min":78,"x_max":806,"o":"m 806 783 q 760 666 806 719 q 643 593 715 613 l 643 0 l 532 0 l 518 75 q 440 8 485 29 q 329 -14 394 -14 q 142 60 207 -14 q 78 285 78 135 l 78 681 l 203 681 l 203 319 q 241 153 203 208 q 361 97 279 97 q 453 117 411 97 q 518 175 494 136 l 518 681 l 575 681 q 686 783 686 681 l 806 783 m 338 775 q 387 829 375 813 q 399 868 399 846 q 383 906 399 893 q 342 918 368 918 q 254 892 304 918 l 231 963 q 342 989 279 989 q 440 958 401 989 q 479 872 479 926 q 458 799 479 831 q 385 729 436 768 l 338 775 z "},"ữ":{"ha":728,"x_min":78,"x_max":806,"o":"m 806 783 q 760 666 806 719 q 643 593 715 613 l 643 0 l 532 0 l 518 75 q 440 8 485 29 q 329 -14 394 -14 q 142 60 207 -14 q 78 285 78 135 l 78 681 l 203 681 l 203 319 q 241 153 203 208 q 361 97 279 97 q 453 117 411 97 q 518 175 494 136 l 518 681 l 575 681 q 686 783 686 681 l 806 783 m 475 806 q 428 815 451 806 q 372 840 404 824 q 322 863 340 856 q 285 871 303 871 q 250 856 263 871 q 238 817 238 842 l 133 817 q 167 931 136 892 q 253 971 197 971 q 300 962 276 971 q 356 936 324 953 q 406 913 388 921 q 443 906 425 906 q 478 920 465 906 q 490 960 490 935 l 594 960 q 561 845 592 885 q 475 806 531 806 z "},"ű":{"ha":728,"x_min":78,"x_max":665,"o":"m 329 -14 q 142 60 207 -14 q 78 285 78 135 l 78 681 l 203 681 l 203 319 q 241 153 203 208 q 361 97 279 97 q 453 117 411 97 q 518 175 494 136 l 518 681 l 643 681 l 643 0 l 532 0 l 518 75 q 440 8 485 29 q 329 -14 394 -14 m 328 1035 l 464 1035 l 311 803 l 219 803 l 328 1035 m 529 1035 l 665 1035 l 506 803 l 414 803 l 529 1035 z "},"ȗ":{"ha":728,"x_min":78,"x_max":643,"o":"m 329 -14 q 142 60 207 -14 q 78 285 78 135 l 78 681 l 203 681 l 203 319 q 241 153 203 208 q 361 97 279 97 q 453 117 411 97 q 518 175 494 136 l 518 681 l 643 681 l 643 0 l 532 0 l 518 75 q 440 8 485 29 q 329 -14 394 -14 m 364 976 q 515 925 463 976 q 567 800 567 874 l 456 800 q 430 863 456 840 q 364 885 404 885 q 298 863 324 885 q 272 800 272 840 l 161 800 q 213 925 161 874 q 364 976 265 976 z "},"ū":{"ha":728,"x_min":78,"x_max":643,"o":"m 329 -14 q 142 60 207 -14 q 78 285 78 135 l 78 681 l 203 681 l 203 319 q 241 153 203 208 q 361 97 279 97 q 453 117 411 97 q 518 175 494 136 l 518 681 l 643 681 l 643 0 l 532 0 l 518 75 q 440 8 485 29 q 329 -14 394 -14 m 142 919 l 586 919 l 586 821 l 142 821 l 142 919 z "},"ṻ":{"ha":728,"x_min":78,"x_max":643,"o":"m 329 -14 q 142 60 207 -14 q 78 285 78 135 l 78 681 l 203 681 l 203 319 q 241 153 203 208 q 361 97 279 97 q 453 117 411 97 q 518 175 494 136 l 518 681 l 643 681 l 643 0 l 532 0 l 518 75 q 440 8 485 29 q 329 -14 394 -14 m 142 904 l 586 904 l 586 810 l 142 810 l 142 904 m 171 1154 l 290 1154 l 290 1050 l 171 1050 l 171 1154 m 438 1154 l 557 1154 l 557 1050 l 438 1050 l 438 1154 z "},"ų":{"ha":728,"x_min":78,"x_max":710,"o":"m 710 -262 q 594 -289 660 -289 q 494 -258 533 -289 q 454 -169 454 -226 q 488 -72 454 -118 q 569 0 522 -26 l 532 0 l 518 75 q 440 8 485 29 q 329 -14 394 -14 q 142 60 207 -14 q 78 285 78 135 l 78 681 l 203 681 l 203 319 q 241 153 203 208 q 361 97 279 97 q 453 117 411 97 q 518 175 494 136 l 518 681 l 643 681 l 643 0 q 563 -76 590 -40 q 535 -147 535 -111 q 553 -200 535 -182 q 601 -218 571 -218 q 689 -194 646 -218 l 710 -262 z "},"ů":{"ha":728,"x_min":78,"x_max":643,"o":"m 329 -14 q 142 60 207 -14 q 78 285 78 135 l 78 681 l 203 681 l 203 319 q 241 153 203 208 q 361 97 279 97 q 453 117 411 97 q 518 175 494 136 l 518 681 l 643 681 l 643 0 l 532 0 l 518 75 q 440 8 485 29 q 329 -14 394 -14 m 364 789 q 258 829 296 789 q 219 928 219 869 q 258 1026 219 985 q 364 1067 297 1067 q 470 1026 432 1067 q 508 928 508 985 q 471 829 508 869 q 364 789 433 789 m 364 850 q 419 872 396 850 q 442 928 442 893 q 419 983 442 961 q 364 1006 396 1006 q 309 983 332 1006 q 286 928 286 961 q 309 872 286 893 q 364 850 332 850 z "},"ũ":{"ha":728,"x_min":78,"x_max":643,"o":"m 329 -14 q 142 60 207 -14 q 78 285 78 135 l 78 681 l 203 681 l 203 319 q 241 153 203 208 q 361 97 279 97 q 453 117 411 97 q 518 175 494 136 l 518 681 l 643 681 l 643 0 l 532 0 l 518 75 q 440 8 485 29 q 329 -14 394 -14 m 475 806 q 428 815 451 806 q 372 840 404 824 q 322 863 340 856 q 285 871 303 871 q 250 856 263 871 q 238 817 238 842 l 133 817 q 167 931 136 892 q 253 971 197 971 q 300 962 276 971 q 356 936 324 953 q 406 913 388 921 q 443 906 425 906 q 478 920 465 906 q 490 960 490 935 l 594 960 q 561 845 592 885 q 475 806 531 806 z "},"ṹ":{"ha":728,"x_min":78,"x_max":643,"o":"m 329 -14 q 142 60 207 -14 q 78 285 78 135 l 78 681 l 203 681 l 203 319 q 241 153 203 208 q 361 97 279 97 q 453 117 411 97 q 518 175 494 136 l 518 681 l 643 681 l 643 0 l 532 0 l 518 75 q 440 8 485 29 q 329 -14 394 -14 m 479 803 q 432 810 457 803 q 372 833 407 818 q 285 860 311 860 q 250 847 263 860 q 238 810 238 833 l 147 810 q 174 913 147 876 q 249 949 200 949 q 296 941 271 949 q 356 918 321 933 q 443 892 417 892 q 478 905 465 892 q 490 942 490 918 l 581 942 q 554 839 581 875 q 479 803 528 803 m 235 1094 l 494 1226 l 494 1094 l 235 1014 l 235 1094 z "},"v":{"ha":683,"x_min":13,"x_max":671,"o":"m 13 681 l 151 681 l 342 138 l 531 681 l 671 681 l 413 0 l 272 0 l 13 681 z "}}}
